SplineFontDB: 3.0
FontName: DistinguishMono-Thin
FullName: Distinguish Mono Thin
FamilyName: Distinguish Mono
Weight: Thin
Copyright: Copyright 2015 Google Inc. All Rights Reserved.
Version: 2.000;GOOG;noto-source:20170915:90ef993387c0; ttfautohint (v1.7)
ItalicAngle: 0
UnderlinePosition: -125
UnderlineWidth: 50
Ascent: 800
Descent: 200
InvalidEm: 0
sfntRevision: 0x00020000
LayerCount: 2
Layer: 0 1 "Back" 1
Layer: 1 1 "Fore" 0
XUID: [1021 269 1684064080 4084467]
StyleMap: 0x0000
FSType: 0
OS2Version: 4
OS2_WeightWidthSlopeOnly: 1
OS2_UseTypoMetrics: 0
CreationTime: 1435678095
ModificationTime: 1515872163
PfmFamily: 17
TTFWeight: 100
TTFWidth: 5
LineGap: 0
VLineGap: 0
Panose: 2 11 2 9 4 5 4 2 2 4
OS2TypoAscent: 1069
OS2TypoAOffset: 0
OS2TypoDescent: -293
OS2TypoDOffset: 0
OS2TypoLinegap: 0
OS2WinAscent: 1069
OS2WinAOffset: 0
OS2WinDescent: 293
OS2WinDOffset: 0
HheadAscent: 1069
HheadAOffset: 0
HheadDescent: -293
HheadDOffset: 0
OS2SubXSize: 650
OS2SubYSize: 600
OS2SubXOff: 0
OS2SubYOff: 75
OS2SupXSize: 650
OS2SupYSize: 600
OS2SupXOff: 0
OS2SupYOff: 350
OS2StrikeYSize: 50
OS2StrikeYPos: 322
OS2CapHeight: 714
OS2XHeight: 536
OS2Vendor: 'GOOG'
OS2CodePages: 00000000.00000000
OS2UnicodeRanges: e00002ff.400038df.08000029.00100000
Lookup: 1 0 0 "'aalt' Access All Alternates lookup 0" { "'aalt' Access All Alternates lookup 0 subtable"  } ['aalt' ('DFLT' <'dflt' > 'cyrl' <'SRB ' 'dflt' > 'grek' <'dflt' > 'latn' <'CAT ' 'MAH ' 'MOL ' 'NAV ' 'ROM ' 'dflt' > ) ]
Lookup: 3 0 0 "'aalt' Access All Alternates lookup 1" { "'aalt' Access All Alternates lookup 1 subtable"  } ['aalt' ('DFLT' <'dflt' > 'cyrl' <'SRB ' 'dflt' > 'grek' <'dflt' > 'latn' <'CAT ' 'MAH ' 'MOL ' 'NAV ' 'ROM ' 'dflt' > ) ]
Lookup: 4 0 0 "'ccmp' Glyph Composition/Decomposition lookup 2" { "'ccmp' Glyph Composition/Decomposition lookup 2 subtable"  } ['ccmp' ('DFLT' <'dflt' > 'cyrl' <'SRB ' 'dflt' > 'grek' <'dflt' > 'latn' <'CAT ' 'MAH ' 'MOL ' 'NAV ' 'ROM ' 'dflt' > ) ]

StartChar: .notdef
Encoding: 65536 -1 0
Width: 600
Flags: W
LayerCount: 2
Fore
SplineSet
94 0 m 1,0,-1
 94 714 l 1,1,-1
 505 714 l 1,2,-1
 505 0 l 1,3,-1
 94 0 l 1,0,-1
145 51 m 1,4,-1
 454 51 l 1,5,-1
 454 663 l 1,6,-1
 145 663 l 1,7,-1
 145 51 l 1,4,-1
EndSplineSet
EndChar

StartChar: exclam
Encoding: 33 33 4
Width: 600
Flags: W
LayerCount: 2
Fore
SplineSet
288 174 m 1,0,-1
 286 714 l 1,1,-1
 315 714 l 1,2,-1
 313 174 l 1,3,-1
 288 174 l 1,0,-1
299 -12 m 0,4,5
 282 -12 282 -12 276.5 -1.5 c 128,-1,6
 271 9 271 9 271 23 c 0,7,8
 271 36 271 36 276.5 47 c 128,-1,9
 282 58 282 58 299 58 c 0,10,11
 319 58 319 58 324 47 c 128,-1,12
 329 36 329 36 329 23 c 0,13,14
 329 9 329 9 324 -1.5 c 128,-1,15
 319 -12 319 -12 299 -12 c 0,4,5
EndSplineSet
Substitution2: "'smcp' Lowercase to Small Capitals lookup 33 subtable" exclam.sc
Substitution2: "'c2sc' Capitals to Small Capitals lookup 32 subtable" exclam.sc
Substitution2: "'aalt' Access All Alternates lookup 0 subtable" exclam.sc
EndChar

StartChar: quotedbl
Encoding: 34 34 5
Width: 600
Flags: W
LayerCount: 2
Fore
SplineSet
363 456 m 1,0,-1
 359 714 l 1,1,-1
 387 714 l 1,2,-1
 383 456 l 1,3,-1
 363 456 l 1,0,-1
217 456 m 1,4,-1
 213 714 l 1,5,-1
 241 714 l 1,6,-1
 237 456 l 1,7,-1
 217 456 l 1,4,-1
EndSplineSet
EndChar

StartChar: numbersign
Encoding: 35 35 6
Width: 600
Flags: W
LayerCount: 2
Fore
SplineSet
105 0 m 1,0,-1
 140 231 l 1,1,-1
 23 231 l 1,2,-1
 23 255 l 1,3,-1
 143 255 l 1,4,-1
 176 471 l 1,5,-1
 54 471 l 1,6,-1
 54 495 l 1,7,-1
 180 495 l 1,8,-1
 214 714 l 1,9,-1
 238 714 l 1,10,-1
 205 495 l 1,11,-1
 369 495 l 1,12,-1
 403 714 l 1,13,-1
 427 714 l 1,14,-1
 394 495 l 1,15,-1
 512 495 l 1,16,-1
 512 471 l 1,17,-1
 391 471 l 1,18,-1
 358 255 l 1,19,-1
 479 255 l 1,20,-1
 479 231 l 1,21,-1
 355 231 l 1,22,-1
 319 0 l 1,23,-1
 294 0 l 1,24,-1
 330 231 l 1,25,-1
 165 231 l 1,26,-1
 129 0 l 1,27,-1
 105 0 l 1,0,-1
168 255 m 1,28,-1
 334 255 l 1,29,-1
 366 471 l 1,30,-1
 201 471 l 1,31,-1
 168 255 l 1,28,-1
EndSplineSet
EndChar

StartChar: dollar
Encoding: 36 36 7
Width: 600
Flags: W
LayerCount: 2
Fore
SplineSet
286 -58 m 1,0,-1
 286 20 l 1,1,2
 223 21 223 21 177.5 29.5 c 128,-1,3
 132 38 132 38 100 49 c 1,4,-1
 100 78 l 1,5,6
 134 64 134 64 182.5 55 c 128,-1,7
 231 46 231 46 286 45 c 1,8,-1
 286 353 l 1,9,10
 234 372 234 372 191.5 394 c 128,-1,11
 149 416 149 416 123 449 c 128,-1,12
 97 482 97 482 97 536 c 0,13,14
 97 586 97 586 121.5 620 c 128,-1,15
 146 654 146 654 189 672.5 c 128,-1,16
 232 691 232 691 286 694 c 1,17,-1
 286 759 l 1,18,-1
 310 759 l 1,19,-1
 310 694 l 1,20,21
 350 693 350 693 391 684.5 c 128,-1,22
 432 676 432 676 472 657 c 1,23,-1
 461 634 l 1,24,25
 419 653 419 653 380.5 660.5 c 128,-1,26
 342 668 342 668 310 669 c 1,27,-1
 310 370 l 1,28,29
 366 350 366 350 409.5 327.5 c 128,-1,30
 453 305 453 305 477.5 272 c 128,-1,31
 502 239 502 239 502 186 c 0,32,33
 502 106 502 106 447.5 65 c 128,-1,34
 393 24 393 24 310 20 c 1,35,-1
 310 -58 l 1,36,-1
 286 -58 l 1,0,-1
286 379 m 1,37,-1
 286 669 l 1,38,39
 241 667 241 667 204.5 652 c 128,-1,40
 168 637 168 637 146 608.5 c 128,-1,41
 124 580 124 580 124 538 c 0,42,43
 124 492 124 492 147 462.5 c 128,-1,44
 170 433 170 433 207 414 c 128,-1,45
 244 395 244 395 286 379 c 1,37,-1
310 45 m 1,46,47
 381 49 381 49 428 83 c 128,-1,48
 475 117 475 117 475 187 c 0,49,50
 475 229 475 229 455 256.5 c 128,-1,51
 435 284 435 284 397.5 304 c 128,-1,52
 360 324 360 324 310 343 c 1,53,-1
 310 45 l 1,46,47
EndSplineSet
EndChar

StartChar: percent
Encoding: 37 37 8
Width: 600
Flags: W
LayerCount: 2
Fore
SplineSet
139 383 m 0,0,1
 68 383 68 383 34 431.5 c 128,-1,2
 0 480 0 480 0 555 c 0,3,4
 0 626 0 626 34 674 c 128,-1,5
 68 722 68 722 139 722 c 0,6,7
 209 722 209 722 242.5 674 c 128,-1,8
 276 626 276 626 276 555 c 0,9,10
 276 480 276 480 242.5 431.5 c 128,-1,11
 209 383 209 383 139 383 c 0,0,1
94 0 m 1,12,-1
 464 714 l 1,13,-1
 494 714 l 1,14,-1
 124 0 l 1,15,-1
 94 0 l 1,12,-1
139 407 m 0,16,17
 195 407 195 407 222.5 448.5 c 128,-1,18
 250 490 250 490 250 555 c 0,19,20
 250 616 250 616 223 657 c 128,-1,21
 196 698 196 698 139 698 c 0,22,23
 80 698 80 698 53 657.5 c 128,-1,24
 26 617 26 617 26 555 c 0,25,26
 26 491 26 491 53 449 c 128,-1,27
 80 407 80 407 139 407 c 0,16,17
463 -9 m 0,28,29
 392 -9 392 -9 358 39.5 c 128,-1,30
 324 88 324 88 324 163 c 0,31,32
 324 234 324 234 358 282 c 128,-1,33
 392 330 392 330 463 330 c 0,34,35
 533 330 533 330 566.5 282 c 128,-1,36
 600 234 600 234 600 163 c 0,37,38
 600 88 600 88 566.5 39.5 c 128,-1,39
 533 -9 533 -9 463 -9 c 0,28,29
463 15 m 0,40,41
 519 15 519 15 546.5 56.5 c 128,-1,42
 574 98 574 98 574 163 c 0,43,44
 574 224 574 224 547 265 c 128,-1,45
 520 306 520 306 463 306 c 0,46,47
 404 306 404 306 377 265.5 c 128,-1,48
 350 225 350 225 350 163 c 0,49,50
 350 99 350 99 377 57 c 128,-1,51
 404 15 404 15 463 15 c 0,40,41
EndSplineSet
EndChar

StartChar: ampersand
Encoding: 38 38 9
Width: 600
Flags: W
LayerCount: 2
Fore
SplineSet
262 -10 m 0,0,1
 180 -10 180 -10 132 39.5 c 128,-1,2
 84 89 84 89 84 175 c 0,3,4
 84 233 84 233 104.5 272 c 128,-1,5
 125 311 125 311 158.5 339 c 128,-1,6
 192 367 192 367 231 392 c 1,7,8
 191 444 191 444 170 489 c 128,-1,9
 149 534 149 534 149 583 c 0,10,11
 149 648 149 648 184 686.5 c 128,-1,12
 219 725 219 725 276 725 c 0,13,14
 331 725 331 725 365.5 688 c 128,-1,15
 400 651 400 651 400 583 c 0,16,17
 400 530 400 530 380 493.5 c 128,-1,18
 360 457 360 457 329 431 c 128,-1,19
 298 405 298 405 266 385 c 1,20,-1
 458 136 l 1,21,22
 483 176 483 176 498.5 223 c 128,-1,23
 514 270 514 270 519 317 c 1,24,-1
 544 317 l 1,25,26
 537 262 537 262 519.5 210 c 128,-1,27
 502 158 502 158 474 115 c 1,28,-1
 563 0 l 1,29,-1
 532 0 l 1,30,-1
 460 94 l 1,31,32
 424 47 424 47 374.5 18.5 c 128,-1,33
 325 -10 325 -10 262 -10 c 0,0,1
174 585 m 0,34,35
 174 537 174 537 196 492 c 128,-1,36
 218 447 218 447 251 404 c 1,37,38
 281 424 281 424 309.5 448 c 128,-1,39
 338 472 338 472 356 505 c 128,-1,40
 374 538 374 538 374 584 c 0,41,42
 374 636 374 636 348 668 c 128,-1,43
 322 700 322 700 276 700 c 0,44,45
 228 700 228 700 201 667.5 c 128,-1,46
 174 635 174 635 174 585 c 0,34,35
110 174 m 0,47,48
 110 100 110 100 150.5 57.5 c 128,-1,49
 191 15 191 15 261 15 c 0,50,51
 319 15 319 15 365 43 c 128,-1,52
 411 71 411 71 444 115 c 1,53,-1
 246 372 l 1,54,55
 210 349 210 349 179 323 c 128,-1,56
 148 297 148 297 129 261.5 c 128,-1,57
 110 226 110 226 110 174 c 0,47,48
EndSplineSet
Substitution2: "'smcp' Lowercase to Small Capitals lookup 33 subtable" ampersand.sc
Substitution2: "'c2sc' Capitals to Small Capitals lookup 32 subtable" ampersand.sc
Substitution2: "'aalt' Access All Alternates lookup 0 subtable" ampersand.sc
EndChar

StartChar: quotesingle
Encoding: 39 39 10
Width: 600
Flags: W
LayerCount: 2
Fore
SplineSet
290 456 m 1,0,-1
 286 714 l 1,1,-1
 314 714 l 1,2,-1
 310 456 l 1,3,-1
 290 456 l 1,0,-1
EndSplineSet
EndChar

StartChar: parenleft
Encoding: 40 40 11
Width: 600
Flags: W
LayerCount: 2
Fore
SplineSet
367 -158 m 1,0,1
 299 -74 299 -74 260.5 34.5 c 128,-1,2
 222 143 222 143 222 274 c 0,3,4
 222 407 222 407 260.5 520 c 128,-1,5
 299 633 299 633 367 714 c 1,6,-1
 397 714 l 1,7,8
 320 626 320 626 284.5 513.5 c 128,-1,9
 249 401 249 401 249 275 c 0,10,11
 249 150 249 150 284.5 40.5 c 128,-1,12
 320 -69 320 -69 396 -158 c 1,13,-1
 367 -158 l 1,0,1
EndSplineSet
Substitution2: "'smcp' Lowercase to Small Capitals lookup 33 subtable" parenleft.sc
Substitution2: "'c2sc' Capitals to Small Capitals lookup 32 subtable" parenleft.sc
Substitution2: "'sups' Superscript lookup 21 subtable" uni207D
Substitution2: "'subs' Subscript lookup 20 subtable" uni208D
AlternateSubs2: "'aalt' Access All Alternates lookup 1 subtable" uni208D uni207D parenleft.sc
EndChar

StartChar: asterisk
Encoding: 42 42 13
Width: 600
Flags: W
LayerCount: 2
Fore
SplineSet
439 357 m 1,0,-1
 323 524 l 1,1,-1
 208 358 l 1,2,-1
 185 374 l 1,3,-1
 307 536 l 1,4,-1
 112 594 l 1,5,-1
 121 621 l 1,6,-1
 313 556 l 1,7,-1
 309 758 l 1,8,-1
 337 758 l 1,9,-1
 332 556 l 1,10,-1
 525 621 l 1,11,-1
 533 594 l 1,12,-1
 339 537 l 1,13,-1
 462 374 l 1,14,-1
 439 357 l 1,0,-1
EndSplineSet
EndChar

StartChar: plus
Encoding: 43 43 14
Width: 600
Flags: W
LayerCount: 2
Fore
SplineSet
288 123 m 1,0,-1
 288 341 l 1,1,-1
 70 341 l 1,2,-1
 70 365 l 1,3,-1
 288 365 l 1,4,-1
 288 583 l 1,5,-1
 312 583 l 1,6,-1
 312 365 l 1,7,-1
 530 365 l 1,8,-1
 530 341 l 1,9,-1
 312 341 l 1,10,-1
 312 123 l 1,11,-1
 288 123 l 1,0,-1
EndSplineSet
Substitution2: "'sups' Superscript lookup 21 subtable" uni207A
Substitution2: "'subs' Subscript lookup 20 subtable" uni208A
AlternateSubs2: "'aalt' Access All Alternates lookup 1 subtable" uni208A uni207A
EndChar

StartChar: comma
Encoding: 44 44 15
Width: 600
Flags: W
LayerCount: 2
Fore
SplineSet
248 -129 m 1,0,1
 270 -56 270 -56 283 1.5 c 128,-1,2
 296 59 296 59 304 116 c 1,3,-1
 332 116 l 1,4,-1
 335 104 l 1,5,6
 324 48 324 48 307.5 -14.5 c 128,-1,7
 291 -77 291 -77 270 -129 c 1,8,-1
 248 -129 l 1,0,1
EndSplineSet
EndChar

StartChar: hyphen
Encoding: 45 45 16
Width: 600
Flags: W
LayerCount: 2
Fore
SplineSet
150 265 m 1,0,-1
 150 290 l 1,1,-1
 450 290 l 1,2,-1
 450 265 l 1,3,-1
 150 265 l 1,0,-1
EndSplineSet
EndChar

StartChar: period
Encoding: 46 46 17
Width: 600
Flags: W
LayerCount: 2
Fore
SplineSet
300 -12 m 0,0,1
 282 -12 282 -12 276 -1.5 c 128,-1,2
 270 9 270 9 270 23 c 0,3,4
 270 36 270 36 276 47 c 128,-1,5
 282 58 282 58 300 58 c 0,6,7
 319 58 319 58 324.5 47 c 128,-1,8
 330 36 330 36 330 23 c 0,9,10
 330 9 330 9 324.5 -1.5 c 128,-1,11
 319 -12 319 -12 300 -12 c 0,0,1
EndSplineSet
EndChar

StartChar: slash
Encoding: 47 47 18
Width: 600
Flags: W
LayerCount: 2
Fore
SplineSet
152 0 m 1,0,-1
 420 714 l 1,1,-1
 448 714 l 1,2,-1
 180 0 l 1,3,-1
 152 0 l 1,0,-1
EndSplineSet
Substitution2: "'frac' Diagonal Fractions lookup 24 subtable" fraction
Substitution2: "'aalt' Access All Alternates lookup 0 subtable" fraction
EndChar

StartChar: zero
Encoding: 48 48 19
Width: 600
Flags: W
LayerCount: 2
Fore
SplineSet
301 -10 m 0,0,1
 197 -10 197 -10 142 79 c 128,-1,2
 87 168 87 168 87 359 c 0,3,4
 87 466 87 466 107.5 549 c 128,-1,5
 128 632 128 632 175 678.5 c 128,-1,6
 222 725 222 725 303 725 c 256,7,8
 384 725 384 725 429.5 678.5 c 128,-1,9
 475 632 475 632 493.5 550.5 c 128,-1,10
 512 469 512 469 512 365 c 0,11,12
 512 176 512 176 460.5 83 c 128,-1,13
 409 -10 409 -10 301 -10 c 0,0,1
114 360 m 0,14,15
 114 212 114 212 147 128 c 1,16,-1
 438 624 l 1,17,18
 417 660 417 660 384 680 c 128,-1,19
 351 700 351 700 303 700 c 0,20,21
 231 700 231 700 189.5 656.5 c 128,-1,22
 148 613 148 613 131 536.5 c 128,-1,23
 114 460 114 460 114 360 c 0,14,15
302 15 m 256,24,25
 398 15 398 15 441.5 100.5 c 128,-1,26
 485 186 485 186 485 363 c 0,27,28
 485 434 485 434 477.5 493.5 c 128,-1,29
 470 553 470 553 451 597 c 1,30,-1
 160 102 l 1,31,32
 206 15 206 15 302 15 c 256,24,25
EndSplineSet
Substitution2: "'zero' Slashed Zero lookup 36 subtable" zero.slash
Substitution2: "'onum' Oldstyle Figures lookup 31 subtable" zero.osf
Substitution2: "'frac' Diagonal Fractions lookup 25 subtable" zero.numr
Substitution2: "'dnom' Denominators lookup 23 subtable" zero.dnom
Substitution2: "'numr' Numerators lookup 22 subtable" zero.numr
Substitution2: "'sups' Superscript lookup 21 subtable" uni2070
Substitution2: "'subs' Subscript lookup 20 subtable" uni2080
AlternateSubs2: "'aalt' Access All Alternates lookup 1 subtable" uni2070 zero.osf zero.dnom zero.numr uni2080
EndChar

StartChar: one
Encoding: 49 49 20
Width: 600
Flags: W
LayerCount: 2
Fore
SplineSet
200 0 m 1,0,-1
 200 20 l 1,1,-1
 333 23 l 1,2,-1
 333 563 l 2,3,4
 333 606 333 606 333 635.5 c 128,-1,5
 333 665 333 665 334 685 c 1,6,7
 322 674 322 674 310.5 665 c 128,-1,8
 299 656 299 656 280 642 c 2,9,-1
 157 551 l 1,10,-1
 141 572 l 1,11,-1
 336 714 l 1,12,-1
 359 714 l 1,13,-1
 359 23 l 1,14,-1
 486 20 l 1,15,-1
 486 0 l 1,16,-1
 200 0 l 1,0,-1
EndSplineSet
Substitution2: "'onum' Oldstyle Figures lookup 31 subtable" one.osf
Substitution2: "'frac' Diagonal Fractions lookup 25 subtable" one.numr
Substitution2: "'dnom' Denominators lookup 23 subtable" one.dnom
Substitution2: "'numr' Numerators lookup 22 subtable" one.numr
Substitution2: "'sups' Superscript lookup 21 subtable" uni00B9
Substitution2: "'subs' Subscript lookup 20 subtable" uni2081
AlternateSubs2: "'aalt' Access All Alternates lookup 1 subtable" uni00B9 one.osf one.dnom one.numr uni2081
EndChar

StartChar: two
Encoding: 50 50 21
Width: 600
Flags: W
LayerCount: 2
Fore
SplineSet
109 0 m 1,0,-1
 109 23 l 1,1,-1
 333 260 l 2,2,3
 378 308 378 308 406 351 c 128,-1,4
 434 394 434 394 447 439 c 128,-1,5
 460 484 460 484 460 539 c 0,6,7
 460 614 460 614 417 656.5 c 128,-1,8
 374 699 374 699 298 699 c 0,9,10
 255 699 255 699 210 683 c 128,-1,11
 165 667 165 667 125 635 c 1,12,-1
 110 655 l 1,13,14
 156 692 156 692 205 708 c 128,-1,15
 254 724 254 724 300 724 c 0,16,17
 386 724 386 724 436.5 674 c 128,-1,18
 487 624 487 624 487 539 c 0,19,20
 487 479 487 479 472.5 430.5 c 128,-1,21
 458 382 458 382 428.5 338 c 128,-1,22
 399 294 399 294 353 246 c 2,23,-1
 145 27 l 1,24,-1
 145 25 l 1,25,-1
 521 25 l 1,26,-1
 521 0 l 1,27,-1
 109 0 l 1,0,-1
EndSplineSet
Substitution2: "'onum' Oldstyle Figures lookup 31 subtable" two.osf
Substitution2: "'frac' Diagonal Fractions lookup 25 subtable" two.numr
Substitution2: "'dnom' Denominators lookup 23 subtable" two.dnom
Substitution2: "'numr' Numerators lookup 22 subtable" two.numr
Substitution2: "'sups' Superscript lookup 21 subtable" uni00B2
Substitution2: "'subs' Subscript lookup 20 subtable" uni2082
AlternateSubs2: "'aalt' Access All Alternates lookup 1 subtable" uni00B2 two.osf two.dnom two.numr uni2082
EndChar

StartChar: three
Encoding: 51 51 22
Width: 600
Flags: W
LayerCount: 2
Fore
SplineSet
284 -10 m 0,0,1
 232 -10 232 -10 184 2 c 128,-1,2
 136 14 136 14 98 32 c 1,3,-1
 98 60 l 1,4,5
 136 41 136 41 185 28 c 128,-1,6
 234 15 234 15 288 15 c 0,7,8
 389 15 389 15 442 63.5 c 128,-1,9
 495 112 495 112 495 194 c 0,10,11
 495 254 495 254 467.5 290 c 128,-1,12
 440 326 440 326 391 342.5 c 128,-1,13
 342 359 342 359 279 359 c 2,14,-1
 196 359 l 1,15,-1
 196 384 l 1,16,-1
 279 384 l 2,17,18
 330 384 330 384 374 401.5 c 128,-1,19
 418 419 418 419 445.5 456.5 c 128,-1,20
 473 494 473 494 473 553 c 0,21,22
 473 626 473 626 428.5 662.5 c 128,-1,23
 384 699 384 699 310 699 c 0,24,25
 260 699 260 699 215 682 c 128,-1,26
 170 665 170 665 121 630 c 1,27,-1
 106 650 l 1,28,29
 150 684 150 684 200 704 c 128,-1,30
 250 724 250 724 311 724 c 0,31,32
 396 724 396 724 448 679 c 128,-1,33
 500 634 500 634 500 554 c 0,34,35
 500 480 500 480 460 433.5 c 128,-1,36
 420 387 420 387 358 375 c 1,37,-1
 358 373 l 1,38,39
 437 362 437 362 479.5 318 c 128,-1,40
 522 274 522 274 522 195 c 0,41,42
 522 103 522 103 462 46.5 c 128,-1,43
 402 -10 402 -10 284 -10 c 0,0,1
EndSplineSet
Substitution2: "'onum' Oldstyle Figures lookup 31 subtable" three.osf
Substitution2: "'frac' Diagonal Fractions lookup 25 subtable" three.numr
Substitution2: "'dnom' Denominators lookup 23 subtable" three.dnom
Substitution2: "'numr' Numerators lookup 22 subtable" three.numr
Substitution2: "'sups' Superscript lookup 21 subtable" uni00B3
Substitution2: "'subs' Subscript lookup 20 subtable" uni2083
AlternateSubs2: "'aalt' Access All Alternates lookup 1 subtable" uni00B3 three.osf three.dnom three.numr uni2083
EndChar

StartChar: four
Encoding: 52 52 23
Width: 600
Flags: W
LayerCount: 2
Fore
SplineSet
400 0 m 1,0,-1
 400 195 l 1,1,-1
 60 195 l 1,2,-1
 60 213 l 1,3,-1
 394 718 l 1,4,-1
 426 718 l 1,5,-1
 426 219 l 1,6,-1
 540 219 l 1,7,-1
 540 195 l 1,8,-1
 426 195 l 1,9,-1
 426 0 l 1,10,-1
 400 0 l 1,0,-1
94 219 m 1,11,-1
 400 219 l 1,12,-1
 400 524 l 2,13,14
 400 567 400 567 400 593.5 c 128,-1,15
 400 620 400 620 400 640 c 128,-1,16
 400 660 400 660 401 686 c 1,17,-1
 399 686 l 1,18,19
 382 659 382 659 370 638.5 c 128,-1,20
 358 618 358 618 337 587 c 2,21,-1
 94 219 l 1,11,-1
EndSplineSet
Substitution2: "'onum' Oldstyle Figures lookup 31 subtable" four.osf
Substitution2: "'frac' Diagonal Fractions lookup 25 subtable" four.numr
Substitution2: "'dnom' Denominators lookup 23 subtable" four.dnom
Substitution2: "'numr' Numerators lookup 22 subtable" four.numr
Substitution2: "'sups' Superscript lookup 21 subtable" uni2074
Substitution2: "'subs' Subscript lookup 20 subtable" uni2084
AlternateSubs2: "'aalt' Access All Alternates lookup 1 subtable" uni2074 four.osf four.dnom four.numr uni2084
EndChar

StartChar: five
Encoding: 53 53 24
Width: 600
Flags: W
LayerCount: 2
Fore
SplineSet
276 -10 m 0,0,1
 227 -10 227 -10 180 2.5 c 128,-1,2
 133 15 133 15 104 32 c 1,3,-1
 104 62 l 1,4,5
 138 41 138 41 184.5 28 c 128,-1,6
 231 15 231 15 278 15 c 0,7,8
 372 15 372 15 425 68.5 c 128,-1,9
 478 122 478 122 478 217 c 0,10,11
 478 302 478 302 432 351.5 c 128,-1,12
 386 401 386 401 288 401 c 0,13,14
 221 401 221 401 147 378 c 1,15,-1
 128 393 l 1,16,-1
 158 714 l 1,17,-1
 472 714 l 1,18,-1
 472 689 l 1,19,-1
 181 689 l 1,20,-1
 155 406 l 1,21,22
 169 411 169 411 206.5 418.5 c 128,-1,23
 244 426 244 426 289 426 c 0,24,25
 392 426 392 426 448.5 372 c 128,-1,26
 505 318 505 318 505 219 c 0,27,28
 505 112 505 112 445.5 51 c 128,-1,29
 386 -10 386 -10 276 -10 c 0,0,1
EndSplineSet
Substitution2: "'onum' Oldstyle Figures lookup 31 subtable" five.osf
Substitution2: "'frac' Diagonal Fractions lookup 25 subtable" five.numr
Substitution2: "'dnom' Denominators lookup 23 subtable" five.dnom
Substitution2: "'numr' Numerators lookup 22 subtable" five.numr
Substitution2: "'sups' Superscript lookup 21 subtable" uni2075
Substitution2: "'subs' Subscript lookup 20 subtable" uni2085
AlternateSubs2: "'aalt' Access All Alternates lookup 1 subtable" uni2075 five.osf five.dnom five.numr uni2085
EndChar

StartChar: six
Encoding: 54 54 25
Width: 600
Flags: W
LayerCount: 2
Fore
SplineSet
312 -10 m 0,0,1
 249 -10 249 -10 206.5 17 c 128,-1,2
 164 44 164 44 138.5 91 c 128,-1,3
 113 138 113 138 101.5 199 c 128,-1,4
 90 260 90 260 90 327 c 0,5,6
 90 466 90 466 126.5 554 c 128,-1,7
 163 642 163 642 224.5 684 c 128,-1,8
 286 726 286 726 363 726 c 0,9,10
 411 726 411 726 455 713 c 1,11,-1
 455 686 l 1,12,13
 415 701 415 701 362 701 c 0,14,15
 296 701 296 701 240 664 c 128,-1,16
 184 627 184 627 149.5 543.5 c 128,-1,17
 115 460 115 460 115 322 c 1,18,-1
 117 322 l 1,19,20
 130 350 130 350 155.5 377 c 128,-1,21
 181 404 181 404 220.5 421.5 c 128,-1,22
 260 439 260 439 315 439 c 0,23,24
 408 439 408 439 461 380.5 c 128,-1,25
 514 322 514 322 514 225 c 0,26,27
 514 156 514 156 490 103 c 128,-1,28
 466 50 466 50 421 20 c 128,-1,29
 376 -10 376 -10 312 -10 c 0,0,1
312 15 m 0,30,31
 397 15 397 15 442 72 c 128,-1,32
 487 129 487 129 487 225 c 0,33,34
 487 310 487 310 445 362 c 128,-1,35
 403 414 403 414 314 414 c 0,36,37
 256 414 256 414 212.5 391 c 128,-1,38
 169 368 169 368 145.5 329.5 c 128,-1,39
 122 291 122 291 122 245 c 0,40,41
 122 228 122 228 126.5 199.5 c 128,-1,42
 131 171 131 171 142.5 139.5 c 128,-1,43
 154 108 154 108 175.5 79.5 c 128,-1,44
 197 51 197 51 230.5 33 c 128,-1,45
 264 15 264 15 312 15 c 0,30,31
EndSplineSet
Substitution2: "'onum' Oldstyle Figures lookup 31 subtable" six.osf
Substitution2: "'frac' Diagonal Fractions lookup 25 subtable" six.numr
Substitution2: "'dnom' Denominators lookup 23 subtable" six.dnom
Substitution2: "'numr' Numerators lookup 22 subtable" six.numr
Substitution2: "'sups' Superscript lookup 21 subtable" uni2076
Substitution2: "'subs' Subscript lookup 20 subtable" uni2086
AlternateSubs2: "'aalt' Access All Alternates lookup 1 subtable" uni2076 six.osf six.dnom six.numr uni2086
EndChar

StartChar: seven
Encoding: 55 55 26
Width: 600
Flags: W
LayerCount: 2
Fore
SplineSet
213 0 m 1,0,-1
 480 689 l 1,1,-1
 128 689 l 1,2,-1
 128 714 l 1,3,-1
 510 714 l 1,4,-1
 510 697 l 1,5,-1
 242 0 l 1,6,-1
 213 0 l 1,0,-1
EndSplineSet
Substitution2: "'onum' Oldstyle Figures lookup 31 subtable" seven.osf
Substitution2: "'frac' Diagonal Fractions lookup 25 subtable" seven.numr
Substitution2: "'dnom' Denominators lookup 23 subtable" seven.dnom
Substitution2: "'numr' Numerators lookup 22 subtable" seven.numr
Substitution2: "'sups' Superscript lookup 21 subtable" uni2077
Substitution2: "'subs' Subscript lookup 20 subtable" uni2087
AlternateSubs2: "'aalt' Access All Alternates lookup 1 subtable" uni2077 seven.osf seven.dnom seven.numr uni2087
EndChar

StartChar: eight
Encoding: 56 56 27
Width: 600
Flags: W
LayerCount: 2
Fore
SplineSet
278 -10 m 256,0,1
 218 -10 218 -10 172 13.5 c 128,-1,2
 126 37 126 37 100 78.5 c 128,-1,3
 74 120 74 120 74 176 c 0,4,5
 74 256 74 256 122 304 c 128,-1,6
 170 352 170 352 251 381 c 1,7,8
 208 398 208 398 173.5 420.5 c 128,-1,9
 139 443 139 443 118 476 c 128,-1,10
 97 509 97 509 97 558 c 0,11,12
 97 634 97 634 148.5 679 c 128,-1,13
 200 724 200 724 287 724 c 0,14,15
 366 724 366 724 417.5 681 c 128,-1,16
 469 638 469 638 469 564 c 0,17,18
 469 496 469 496 428.5 455 c 128,-1,19
 388 414 388 414 314 382 c 1,20,21
 402 350 402 350 447.5 303 c 128,-1,22
 493 256 493 256 493 181 c 0,23,24
 493 120 493 120 464.5 77.5 c 128,-1,25
 436 35 436 35 387 12.5 c 128,-1,26
 338 -10 338 -10 278 -10 c 256,0,1
284 395 m 1,27,28
 364 426 364 426 403 462.5 c 128,-1,29
 442 499 442 499 442 565 c 0,30,31
 442 628 442 628 400.5 663.5 c 128,-1,32
 359 699 359 699 287 699 c 0,33,34
 214 699 214 699 169 663 c 128,-1,35
 124 627 124 627 124 560 c 0,36,37
 124 514 124 514 143.5 484.5 c 128,-1,38
 163 455 163 455 199 434 c 128,-1,39
 235 413 235 413 284 395 c 1,27,28
278 15 m 0,40,41
 360 15 360 15 413 57.5 c 128,-1,42
 466 100 466 100 466 183 c 0,43,44
 466 226 466 226 448.5 258 c 128,-1,45
 431 290 431 290 390.5 316.5 c 128,-1,46
 350 343 350 343 281 368 c 1,47,48
 231 350 231 350 190 325.5 c 128,-1,49
 149 301 149 301 125 265 c 128,-1,50
 101 229 101 229 101 176 c 0,51,52
 101 103 101 103 149.5 59 c 128,-1,53
 198 15 198 15 278 15 c 0,40,41
EndSplineSet
Substitution2: "'onum' Oldstyle Figures lookup 31 subtable" eight.osf
Substitution2: "'frac' Diagonal Fractions lookup 25 subtable" eight.numr
Substitution2: "'dnom' Denominators lookup 23 subtable" eight.dnom
Substitution2: "'numr' Numerators lookup 22 subtable" eight.numr
Substitution2: "'sups' Superscript lookup 21 subtable" uni2078
Substitution2: "'subs' Subscript lookup 20 subtable" uni2088
AlternateSubs2: "'aalt' Access All Alternates lookup 1 subtable" uni2078 eight.osf eight.dnom eight.numr uni2088
EndChar

StartChar: nine
Encoding: 57 57 28
Width: 600
Flags: W
LayerCount: 2
Fore
SplineSet
229 -10 m 0,0,1
 165 -10 165 -10 121 3 c 1,2,-1
 121 31 l 1,3,4
 139 24 139 24 168.5 19.5 c 128,-1,5
 198 15 198 15 229 15 c 0,6,7
 298 15 298 15 354.5 51 c 128,-1,8
 411 87 411 87 445.5 170 c 128,-1,9
 480 253 480 253 483 394 c 1,10,-1
 481 394 l 1,11,12
 467 365 467 365 441 338 c 128,-1,13
 415 311 415 311 375 294 c 128,-1,14
 335 277 335 277 280 277 c 0,15,16
 186 277 186 277 134.5 335.5 c 128,-1,17
 83 394 83 394 83 491 c 0,18,19
 83 560 83 560 107 613 c 128,-1,20
 131 666 131 666 176.5 696 c 128,-1,21
 222 726 222 726 287 726 c 0,22,23
 347 726 347 726 389 699 c 128,-1,24
 431 672 431 672 457 626.5 c 128,-1,25
 483 581 483 581 495 522.5 c 128,-1,26
 507 464 507 464 507 401 c 0,27,28
 507 254 507 254 470.5 163.5 c 128,-1,29
 434 73 434 73 371 31.5 c 128,-1,30
 308 -10 308 -10 229 -10 c 0,0,1
282 302 m 0,31,32
 342 302 342 302 385.5 326.5 c 128,-1,33
 429 351 429 351 452.5 387.5 c 128,-1,34
 476 424 476 424 476 458 c 0,35,36
 476 488 476 488 468 529 c 128,-1,37
 460 570 460 570 439.5 609.5 c 128,-1,38
 419 649 419 649 382 675 c 128,-1,39
 345 701 345 701 287 701 c 0,40,41
 201 701 201 701 155.5 644.5 c 128,-1,42
 110 588 110 588 110 491 c 0,43,44
 110 403 110 403 153 352.5 c 128,-1,45
 196 302 196 302 282 302 c 0,31,32
EndSplineSet
Substitution2: "'onum' Oldstyle Figures lookup 31 subtable" nine.osf
Substitution2: "'frac' Diagonal Fractions lookup 25 subtable" nine.numr
Substitution2: "'dnom' Denominators lookup 23 subtable" nine.dnom
Substitution2: "'numr' Numerators lookup 22 subtable" nine.numr
Substitution2: "'sups' Superscript lookup 21 subtable" uni2079
Substitution2: "'subs' Subscript lookup 20 subtable" uni2089
AlternateSubs2: "'aalt' Access All Alternates lookup 1 subtable" uni2079 nine.osf nine.dnom nine.numr uni2089
EndChar

StartChar: colon
Encoding: 58 58 29
Width: 600
Flags: W
LayerCount: 2
Fore
SplineSet
300 466 m 0,0,1
 282 466 282 466 276 476.5 c 128,-1,2
 270 487 270 487 270 501 c 0,3,4
 270 514 270 514 276 525 c 128,-1,5
 282 536 282 536 300 536 c 0,6,7
 319 536 319 536 323.5 525 c 128,-1,8
 328 514 328 514 328 501 c 0,9,10
 328 487 328 487 323.5 476.5 c 128,-1,11
 319 466 319 466 300 466 c 0,0,1
300 -12 m 0,12,13
 282 -12 282 -12 276 -1.5 c 128,-1,14
 270 9 270 9 270 23 c 0,15,16
 270 36 270 36 276 47 c 128,-1,17
 282 58 282 58 300 58 c 0,18,19
 319 58 319 58 323.5 47 c 128,-1,20
 328 36 328 36 328 23 c 0,21,22
 328 9 328 9 323.5 -1.5 c 128,-1,23
 319 -12 319 -12 300 -12 c 0,12,13
EndSplineSet
EndChar

StartChar: semicolon
Encoding: 59 59 30
Width: 600
Flags: W
LayerCount: 2
Fore
SplineSet
310 470 m 0,0,1
 295 470 295 470 290 479 c 128,-1,2
 285 488 285 488 285 501 c 0,3,4
 285 513 285 513 290 522.5 c 128,-1,5
 295 532 295 532 310 532 c 0,6,7
 328 532 328 532 332.5 522.5 c 128,-1,8
 337 513 337 513 337 501 c 0,9,10
 337 488 337 488 332.5 479 c 128,-1,11
 328 470 328 470 310 470 c 0,0,1
238 -129 m 1,12,13
 260 -56 260 -56 273 1.5 c 128,-1,14
 286 59 286 59 294 116 c 1,15,-1
 322 116 l 1,16,-1
 325 104 l 1,17,18
 314 48 314 48 297.5 -14.5 c 128,-1,19
 281 -77 281 -77 260 -129 c 1,20,-1
 238 -129 l 1,12,13
EndSplineSet
EndChar

StartChar: equal
Encoding: 61 61 32
Width: 600
Flags: W
LayerCount: 2
Fore
SplineSet
70 442 m 1,0,-1
 70 467 l 1,1,-1
 530 467 l 1,2,-1
 530 442 l 1,3,-1
 70 442 l 1,0,-1
70 239 m 1,4,-1
 70 264 l 1,5,-1
 530 264 l 1,6,-1
 530 239 l 1,7,-1
 70 239 l 1,4,-1
EndSplineSet
Substitution2: "'sups' Superscript lookup 21 subtable" uni207C
Substitution2: "'subs' Subscript lookup 20 subtable" uni208C
AlternateSubs2: "'aalt' Access All Alternates lookup 1 subtable" uni208C uni207C
EndChar

StartChar: greater
Encoding: 62 62 33
Width: 600
Flags: W
LayerCount: 2
Fore
SplineSet
71 138 m 1,0,-1
 71 164 l 1,1,-1
 494 362 l 1,2,-1
 71 560 l 1,3,-1
 71 586 l 1,4,-1
 529 371 l 1,5,-1
 529 353 l 1,6,-1
 71 138 l 1,0,-1
EndSplineSet
EndChar

StartChar: question
Encoding: 63 63 34
Width: 600
Flags: W
LayerCount: 2
Fore
SplineSet
238 174 m 1,0,-1
 238 186 l 2,1,2
 238 236 238 236 245 267.5 c 128,-1,3
 252 299 252 299 270 322.5 c 128,-1,4
 288 346 288 346 323 371 c 0,5,6
 359 396 359 396 385.5 421 c 128,-1,7
 412 446 412 446 426.5 477 c 128,-1,8
 441 508 441 508 441 554 c 0,9,10
 441 629 441 629 396.5 664 c 128,-1,11
 352 699 352 699 282 699 c 0,12,13
 245 699 245 699 211.5 691 c 128,-1,14
 178 683 178 683 142 665 c 1,15,-1
 132 691 l 1,16,17
 176 709 176 709 209 716.5 c 128,-1,18
 242 724 242 724 282 724 c 0,19,20
 366 724 366 724 417 682 c 128,-1,21
 468 640 468 640 468 554 c 0,22,23
 468 504 468 504 451.5 468.5 c 128,-1,24
 435 433 435 433 405.5 405.5 c 128,-1,25
 376 378 376 378 336 350 c 0,26,27
 297 323 297 323 280 288.5 c 128,-1,28
 263 254 263 254 263 186 c 2,29,-1
 263 174 l 1,30,-1
 238 174 l 1,0,-1
252 -12 m 0,31,32
 236 -12 236 -12 230 -1.5 c 128,-1,33
 224 9 224 9 224 23 c 0,34,35
 224 36 224 36 230 47 c 128,-1,36
 236 58 236 58 252 58 c 0,37,38
 272 58 272 58 277 47 c 128,-1,39
 282 36 282 36 282 23 c 0,40,41
 282 9 282 9 277 -1.5 c 128,-1,42
 272 -12 272 -12 252 -12 c 0,31,32
EndSplineSet
Substitution2: "'smcp' Lowercase to Small Capitals lookup 33 subtable" question.sc
Substitution2: "'c2sc' Capitals to Small Capitals lookup 32 subtable" question.sc
Substitution2: "'aalt' Access All Alternates lookup 0 subtable" question.sc
EndChar

StartChar: at
Encoding: 64 64 35
Width: 600
Flags: W
LayerCount: 2
Fore
SplineSet
325 -89 m 0,0,1
 227 -89 227 -89 157.5 -42 c 128,-1,2
 88 5 88 5 51.5 90.5 c 128,-1,3
 15 176 15 176 15 294 c 0,4,5
 15 428 15 428 54 521.5 c 128,-1,6
 93 615 93 615 161.5 664 c 128,-1,7
 230 713 230 713 318 713 c 0,8,9
 402 713 402 713 462 669.5 c 128,-1,10
 522 626 522 626 553.5 546 c 128,-1,11
 585 466 585 466 585 356 c 0,12,13
 585 288 585 288 572.5 233.5 c 128,-1,14
 560 179 560 179 534.5 146.5 c 128,-1,15
 509 114 509 114 471 114 c 0,16,17
 436 114 436 114 415 136.5 c 128,-1,18
 394 159 394 159 390 197 c 1,19,-1
 388 197 l 1,20,21
 374 157 374 157 344.5 135.5 c 128,-1,22
 315 114 315 114 279 114 c 0,23,24
 225 114 225 114 196 160 c 128,-1,25
 167 206 167 206 167 287 c 0,26,27
 167 353 167 353 186 404 c 128,-1,28
 205 455 205 455 241 484 c 128,-1,29
 277 513 277 513 328 513 c 0,30,31
 372 513 372 513 420 493 c 1,32,-1
 413 348 l 2,33,34
 412 330 412 330 410.5 304 c 128,-1,35
 409 278 409 278 409 257 c 0,36,37
 409 199 409 199 422.5 169 c 128,-1,38
 436 139 436 139 469 139 c 0,39,40
 500 139 500 139 519.5 167.5 c 128,-1,41
 539 196 539 196 548.5 244 c 128,-1,42
 558 292 558 292 558 353 c 0,43,44
 558 508 558 508 497 598 c 128,-1,45
 436 688 436 688 321 688 c 0,46,47
 239 688 239 688 176 641.5 c 128,-1,48
 113 595 113 595 77.5 506.5 c 128,-1,49
 42 418 42 418 42 292 c 0,50,51
 42 182 42 182 75.5 102 c 128,-1,52
 109 22 109 22 172 -21 c 128,-1,53
 235 -64 235 -64 323 -64 c 0,54,55
 412 -64 412 -64 496 -21 c 1,56,-1
 496 -49 l 1,57,58
 459 -68 459 -68 415 -78.5 c 128,-1,59
 371 -89 371 -89 325 -89 c 0,0,1
282 139 m 0,60,61
 326 139 326 139 352.5 183 c 128,-1,62
 379 227 379 227 385 323 c 2,63,-1
 394 473 l 1,64,65
 361 488 361 488 328 488 c 0,66,67
 265 488 265 488 229.5 434.5 c 128,-1,68
 194 381 194 381 194 288 c 0,69,70
 194 218 194 218 215.5 178.5 c 128,-1,71
 237 139 237 139 282 139 c 0,60,61
EndSplineSet
EndChar

StartChar: A
Encoding: 65 65 36
Width: 600
GlyphClass: 2
Flags: W
AnchorPoint: "Anchor-4" 580 714 basechar 0
AnchorPoint: "Anchor-3" 300 714 basechar 0
AnchorPoint: "Anchor-2" 540 10 basechar 0
AnchorPoint: "Anchor-0" 300 0 basechar 0
LayerCount: 2
Fore
SplineSet
20 0 m 1,0,-1
 288 716 l 1,1,-1
 313 716 l 1,2,-1
 580 0 l 1,3,-1
 552 0 l 1,4,-1
 452 271 l 1,5,-1
 149 271 l 1,6,-1
 48 0 l 1,7,-1
 20 0 l 1,0,-1
268 592 m 2,8,-1
 158 296 l 1,9,-1
 443 296 l 1,10,-1
 334 592 l 2,11,12
 326 612 326 612 317 635 c 128,-1,13
 308 658 308 658 300 681 c 1,14,15
 292 658 292 658 284 635 c 128,-1,16
 276 612 276 612 268 592 c 2,8,-1
EndSplineSet
Substitution2: "'c2sc' Capitals to Small Capitals lookup 32 subtable" a.sc
Substitution2: "Single Substitution lookup 30 subtable" ordfeminine
AlternateSubs2: "'aalt' Access All Alternates lookup 1 subtable" ordfeminine a.sc
EndChar

StartChar: B
Encoding: 66 66 37
Width: 600
GlyphClass: 2
Flags: W
AnchorPoint: "Anchor-4" 580 714 basechar 0
AnchorPoint: "Anchor-3" 300 714 basechar 0
AnchorPoint: "Anchor-0" 300 0 basechar 0
LayerCount: 2
Fore
SplineSet
115 0 m 1,0,-1
 115 714 l 1,1,-1
 280 714 l 2,2,3
 411 714 411 714 466.5 671 c 128,-1,4
 522 628 522 628 522 542 c 0,5,6
 522 481 522 481 486 435 c 128,-1,7
 450 389 450 389 381 377 c 1,8,-1
 381 375 l 1,9,10
 470 362 470 362 505 316 c 128,-1,11
 540 270 540 270 540 203 c 0,12,13
 540 130 540 130 507 85 c 128,-1,14
 474 40 474 40 416.5 20 c 128,-1,15
 359 0 359 0 286 0 c 2,16,-1
 115 0 l 1,0,-1
141 388 m 1,17,-1
 286 388 l 2,18,19
 495 388 495 388 495 542 c 0,20,21
 495 621 495 621 442.5 655 c 128,-1,22
 390 689 390 689 274 689 c 2,23,-1
 141 689 l 1,24,-1
 141 388 l 1,17,-1
141 25 m 1,25,-1
 283 25 l 2,26,27
 390 25 390 25 451.5 68 c 128,-1,28
 513 111 513 111 513 203 c 0,29,30
 513 264 513 264 485.5 299 c 128,-1,31
 458 334 458 334 406 348.5 c 128,-1,32
 354 363 354 363 283 363 c 2,33,-1
 141 363 l 1,34,-1
 141 25 l 1,25,-1
EndSplineSet
Substitution2: "'c2sc' Capitals to Small Capitals lookup 32 subtable" b.sc
Substitution2: "'aalt' Access All Alternates lookup 0 subtable" b.sc
EndChar

StartChar: C
Encoding: 67 67 38
Width: 600
GlyphClass: 2
Flags: W
AnchorPoint: "Anchor-4" 580 714 basechar 0
AnchorPoint: "Anchor-3" 360 714 basechar 0
AnchorPoint: "Anchor-0" 347 0 basechar 0
LayerCount: 2
Fore
SplineSet
364 -10 m 0,0,1
 266 -10 266 -10 200.5 36 c 128,-1,2
 135 82 135 82 102.5 163 c 128,-1,3
 70 244 70 244 70 349 c 0,4,5
 70 463 70 463 106.5 547.5 c 128,-1,6
 143 632 143 632 212.5 678 c 128,-1,7
 282 724 282 724 382 724 c 0,8,9
 422 724 422 724 466 715 c 128,-1,10
 510 706 510 706 550 687 c 1,11,-1
 540 663 l 1,12,13
 496 684 496 684 455 691.5 c 128,-1,14
 414 699 414 699 383 699 c 0,15,16
 292 699 292 699 228 656.5 c 128,-1,17
 164 614 164 614 130.5 535 c 128,-1,18
 97 456 97 456 97 349 c 0,19,20
 97 250 97 250 127 175 c 128,-1,21
 157 100 157 100 217.5 57.5 c 128,-1,22
 278 15 278 15 368 15 c 0,23,24
 413 15 413 15 457.5 25 c 128,-1,25
 502 35 502 35 537 48 c 1,26,-1
 537 21 l 1,27,28
 505 8 505 8 461 -1 c 128,-1,29
 417 -10 417 -10 364 -10 c 0,0,1
EndSplineSet
Substitution2: "'c2sc' Capitals to Small Capitals lookup 32 subtable" c.sc
Substitution2: "'aalt' Access All Alternates lookup 0 subtable" c.sc
EndChar

StartChar: D
Encoding: 68 68 39
Width: 600
GlyphClass: 2
Flags: W
AnchorPoint: "Anchor-4" 600 714 basechar 0
AnchorPoint: "Anchor-3" 302 714 basechar 0
AnchorPoint: "Anchor-1" 284 357 basechar 0
AnchorPoint: "Anchor-0" 270 0 basechar 0
LayerCount: 2
Fore
SplineSet
95 0 m 1,0,-1
 95 714 l 1,1,-1
 237 714 l 2,2,3
 393 714 393 714 469 624.5 c 128,-1,4
 545 535 545 535 545 363 c 0,5,6
 545 185 545 185 465 92.5 c 128,-1,7
 385 0 385 0 228 0 c 2,8,-1
 95 0 l 1,0,-1
121 25 m 1,9,-1
 217 25 l 2,10,11
 369 25 369 25 443.5 108.5 c 128,-1,12
 518 192 518 192 518 362 c 0,13,14
 518 522 518 522 449 605.5 c 128,-1,15
 380 689 380 689 227 689 c 2,16,-1
 121 689 l 1,17,-1
 121 25 l 1,9,-1
EndSplineSet
Substitution2: "'c2sc' Capitals to Small Capitals lookup 32 subtable" d.sc
Substitution2: "'aalt' Access All Alternates lookup 0 subtable" d.sc
EndChar

StartChar: E
Encoding: 69 69 40
Width: 600
GlyphClass: 2
Flags: W
AnchorPoint: "Anchor-4" 580 714 basechar 0
AnchorPoint: "Anchor-3" 310 714 basechar 0
AnchorPoint: "Anchor-2" 457 10 basechar 0
AnchorPoint: "Anchor-0" 310 0 basechar 0
LayerCount: 2
Fore
SplineSet
115 0 m 1,0,-1
 115 714 l 1,1,-1
 510 714 l 1,2,-1
 510 689 l 1,3,-1
 141 689 l 1,4,-1
 141 389 l 1,5,-1
 490 389 l 1,6,-1
 490 364 l 1,7,-1
 141 364 l 1,8,-1
 141 25 l 1,9,-1
 510 25 l 1,10,-1
 510 0 l 1,11,-1
 115 0 l 1,0,-1
EndSplineSet
Substitution2: "'c2sc' Capitals to Small Capitals lookup 32 subtable" e.sc
Substitution2: "'aalt' Access All Alternates lookup 0 subtable" e.sc
EndChar

StartChar: F
Encoding: 70 70 41
Width: 600
GlyphClass: 2
Flags: W
AnchorPoint: "Anchor-4" 580 714 basechar 0
AnchorPoint: "Anchor-3" 322 714 basechar 0
AnchorPoint: "Anchor-0" 313 0 basechar 0
LayerCount: 2
Fore
SplineSet
115 0 m 1,0,-1
 115 714 l 1,1,-1
 510 714 l 1,2,-1
 510 689 l 1,3,-1
 141 689 l 1,4,-1
 141 354 l 1,5,-1
 491 354 l 1,6,-1
 491 329 l 1,7,-1
 141 329 l 1,8,-1
 141 0 l 1,9,-1
 115 0 l 1,0,-1
EndSplineSet
Substitution2: "'c2sc' Capitals to Small Capitals lookup 32 subtable" f.sc
Substitution2: "'aalt' Access All Alternates lookup 0 subtable" f.sc
EndChar

StartChar: G
Encoding: 71 71 42
Width: 600
GlyphClass: 2
Flags: W
AnchorPoint: "Anchor-4" 580 714 basechar 0
AnchorPoint: "Anchor-3" 326 714 basechar 0
AnchorPoint: "Anchor-0" 330 0 basechar 0
LayerCount: 2
Fore
SplineSet
324 -10 m 0,0,1
 191 -10 191 -10 123 84.5 c 128,-1,2
 55 179 55 179 55 344 c 0,3,4
 55 460 55 460 88 546 c 128,-1,5
 121 632 121 632 184 679 c 128,-1,6
 247 726 247 726 337 726 c 0,7,8
 374 726 374 726 416.5 717 c 128,-1,9
 459 708 459 708 497 685 c 1,10,-1
 485 662 l 1,11,12
 444 686 444 686 404 693.5 c 128,-1,13
 364 701 364 701 336 701 c 0,14,15
 214 701 214 701 148 605.5 c 128,-1,16
 82 510 82 510 82 343 c 0,17,18
 82 174 82 174 147.5 94.5 c 128,-1,19
 213 15 213 15 326 15 c 0,20,21
 369 15 369 15 408 25.5 c 128,-1,22
 447 36 447 36 479 52 c 1,23,-1
 479 325 l 1,24,-1
 317 325 l 1,25,-1
 317 350 l 1,26,-1
 505 350 l 1,27,-1
 505 36 l 1,28,29
 464 13 464 13 416 1.5 c 128,-1,30
 368 -10 368 -10 324 -10 c 0,0,1
EndSplineSet
Substitution2: "'c2sc' Capitals to Small Capitals lookup 32 subtable" g.sc
Substitution2: "'aalt' Access All Alternates lookup 0 subtable" g.sc
EndChar

StartChar: H
Encoding: 72 72 43
Width: 600
GlyphClass: 2
Flags: W
AnchorPoint: "Anchor-4" 600 714 basechar 0
AnchorPoint: "Anchor-3" 300 714 basechar 0
AnchorPoint: "Anchor-1" 300 377 basechar 0
AnchorPoint: "Anchor-0" 300 0 basechar 0
LayerCount: 2
Fore
SplineSet
95 0 m 1,0,-1
 95 714 l 1,1,-1
 121 714 l 1,2,-1
 121 388 l 1,3,-1
 479 388 l 1,4,-1
 479 714 l 1,5,-1
 505 714 l 1,6,-1
 505 0 l 1,7,-1
 479 0 l 1,8,-1
 479 363 l 1,9,-1
 121 363 l 1,10,-1
 121 0 l 1,11,-1
 95 0 l 1,0,-1
EndSplineSet
Substitution2: "'c2sc' Capitals to Small Capitals lookup 32 subtable" h.sc
Substitution2: "'aalt' Access All Alternates lookup 0 subtable" h.sc
EndChar

StartChar: I
Encoding: 73 73 44
Width: 600
GlyphClass: 2
Flags: W
AnchorPoint: "Anchor-4" 580 714 basechar 0
AnchorPoint: "Anchor-3" 300 714 basechar 0
AnchorPoint: "Anchor-2" 337 10 basechar 0
AnchorPoint: "Anchor-0" 300 0 basechar 0
LayerCount: 2
Fore
SplineSet
160 0 m 1,0,-1
 160 20 l 1,1,-1
 287 23 l 1,2,-1
 287 690 l 1,3,-1
 160 694 l 1,4,-1
 160 714 l 1,5,-1
 440 714 l 1,6,-1
 440 694 l 1,7,-1
 313 690 l 1,8,-1
 313 23 l 1,9,-1
 440 20 l 1,10,-1
 440 0 l 1,11,-1
 160 0 l 1,0,-1
EndSplineSet
Substitution2: "'c2sc' Capitals to Small Capitals lookup 32 subtable" i.sc
Substitution2: "'aalt' Access All Alternates lookup 0 subtable" i.sc
EndChar

StartChar: J
Encoding: 74 74 45
Width: 600
GlyphClass: 2
Flags: W
AnchorPoint: "Anchor-4" 580 714 basechar 0
AnchorPoint: "Anchor-3" 408 714 basechar 0
AnchorPoint: "Anchor-0" 300 0 basechar 0
LayerCount: 2
Fore
SplineSet
255 -15 m 0,0,1
 212 -15 212 -15 181 -3.5 c 128,-1,2
 150 8 150 8 120 27 c 1,3,-1
 120 55 l 1,4,5
 148 37 148 37 179.5 23 c 128,-1,6
 211 9 211 9 255 9 c 0,7,8
 332 9 332 9 363 58.5 c 128,-1,9
 394 108 394 108 394 204 c 2,10,-1
 394 714 l 1,11,-1
 420 714 l 1,12,-1
 420 196 l 2,13,14
 420 98 420 98 383.5 41.5 c 128,-1,15
 347 -15 347 -15 255 -15 c 0,0,1
EndSplineSet
Substitution2: "'c2sc' Capitals to Small Capitals lookup 32 subtable" j.sc
Substitution2: "'aalt' Access All Alternates lookup 0 subtable" j.sc
EndChar

StartChar: K
Encoding: 75 75 46
Width: 600
GlyphClass: 2
Flags: W
AnchorPoint: "Anchor-4" 580 714 basechar 0
AnchorPoint: "Anchor-3" 300 714 basechar 0
AnchorPoint: "Anchor-0" 320 0 basechar 0
LayerCount: 2
Fore
SplineSet
95 0 m 1,0,-1
 95 714 l 1,1,-1
 121 714 l 1,2,-1
 121 322 l 1,3,4
 134 338 134 338 145.5 349.5 c 128,-1,5
 157 361 157 361 172 376 c 2,6,-1
 497 714 l 1,7,-1
 534 714 l 1,8,-1
 246 417 l 1,9,-1
 540 0 l 1,10,-1
 510 0 l 1,11,-1
 229 400 l 1,12,-1
 121 293 l 1,13,-1
 121 0 l 1,14,-1
 95 0 l 1,0,-1
EndSplineSet
Substitution2: "'c2sc' Capitals to Small Capitals lookup 32 subtable" k.sc
Substitution2: "'aalt' Access All Alternates lookup 0 subtable" k.sc
EndChar

StartChar: L
Encoding: 76 76 47
Width: 600
GlyphClass: 2
Flags: W
AnchorPoint: "Anchor-4" 423 714 basechar 0
AnchorPoint: "Anchor-3" 163 714 basechar 0
AnchorPoint: "Anchor-1" 300 357 basechar 0
AnchorPoint: "Anchor-0" 340 0 basechar 0
LayerCount: 2
Fore
SplineSet
150 0 m 1,0,-1
 150 714 l 1,1,-1
 176 714 l 1,2,-1
 176 25 l 1,3,-1
 510 25 l 1,4,-1
 510 0 l 1,5,-1
 150 0 l 1,0,-1
EndSplineSet
Substitution2: "'c2sc' Capitals to Small Capitals lookup 32 subtable" l.sc
Substitution2: "'aalt' Access All Alternates lookup 0 subtable" l.sc
EndChar

StartChar: M
Encoding: 77 77 48
Width: 600
GlyphClass: 2
Flags: W
AnchorPoint: "Anchor-4" 600 714 basechar 0
AnchorPoint: "Anchor-3" 304 714 basechar 0
AnchorPoint: "Anchor-0" 300 0 basechar 0
LayerCount: 2
Fore
SplineSet
60 0 m 1,0,-1
 60 714 l 1,1,-1
 96 714 l 1,2,-1
 298 235 l 1,3,-1
 301 235 l 1,4,-1
 502 714 l 1,5,-1
 540 714 l 1,6,-1
 540 0 l 1,7,-1
 514 0 l 1,8,-1
 514 674 l 1,9,-1
 512 674 l 1,10,-1
 314 203 l 1,11,-1
 286 203 l 1,12,-1
 86 675 l 1,13,-1
 84 675 l 1,14,15
 86 641 86 641 86 624.5 c 128,-1,16
 86 608 86 608 86 586 c 2,17,-1
 86 0 l 1,18,-1
 60 0 l 1,0,-1
EndSplineSet
Substitution2: "'c2sc' Capitals to Small Capitals lookup 32 subtable" m.sc
Substitution2: "'aalt' Access All Alternates lookup 0 subtable" m.sc
EndChar

StartChar: N
Encoding: 78 78 49
Width: 600
GlyphClass: 2
Flags: W
AnchorPoint: "Anchor-4" 600 714 basechar 0
AnchorPoint: "Anchor-3" 305 714 basechar 0
AnchorPoint: "Anchor-0" 300 0 basechar 0
LayerCount: 2
Fore
SplineSet
95 0 m 1,0,-1
 95 714 l 1,1,-1
 122 714 l 1,2,-1
 478 53 l 1,3,-1
 480 53 l 1,4,5
 479 88 479 88 479 125.5 c 128,-1,6
 479 163 479 163 479 191 c 2,7,-1
 479 714 l 1,8,-1
 505 714 l 1,9,-1
 505 0 l 1,10,-1
 478 0 l 1,11,-1
 122 665 l 1,12,-1
 120 665 l 1,13,14
 121 633 121 633 121 602 c 128,-1,15
 121 571 121 571 121 530 c 2,16,-1
 121 0 l 1,17,-1
 95 0 l 1,0,-1
EndSplineSet
Substitution2: "'c2sc' Capitals to Small Capitals lookup 32 subtable" n.sc
Substitution2: "'aalt' Access All Alternates lookup 0 subtable" n.sc
EndChar

StartChar: O
Encoding: 79 79 50
Width: 600
GlyphClass: 2
Flags: W
AnchorPoint: "Anchor-4" 600 714 basechar 0
AnchorPoint: "Anchor-3" 300 714 basechar 0
AnchorPoint: "Anchor-2" 302 10 basechar 0
AnchorPoint: "Anchor-1" 300 357 basechar 0
AnchorPoint: "Anchor-0" 300 0 basechar 0
LayerCount: 2
Fore
SplineSet
301 -10 m 0,0,1
 235 -10 235 -10 188.5 19 c 128,-1,2
 142 48 142 48 112.5 99 c 128,-1,3
 83 150 83 150 69 217 c 128,-1,4
 55 284 55 284 55 360 c 0,5,6
 55 530 55 530 119.5 627 c 128,-1,7
 184 724 184 724 303 724 c 0,8,9
 384 724 384 724 438 678.5 c 128,-1,10
 492 633 492 633 518.5 551.5 c 128,-1,11
 545 470 545 470 545 360 c 0,12,13
 545 257 545 257 520 173 c 128,-1,14
 495 89 495 89 441.5 39.5 c 128,-1,15
 388 -10 388 -10 301 -10 c 0,0,1
302 15 m 0,16,17
 410 15 410 15 464 107 c 128,-1,18
 518 199 518 199 518 358 c 0,19,20
 518 522 518 522 462.5 610.5 c 128,-1,21
 407 699 407 699 302 699 c 0,22,23
 230 699 230 699 180.5 656.5 c 128,-1,24
 131 614 131 614 106 537.5 c 128,-1,25
 81 461 81 461 81 358 c 0,26,27
 81 254 81 254 105.5 177 c 128,-1,28
 130 100 130 100 179 57.5 c 128,-1,29
 228 15 228 15 302 15 c 0,16,17
EndSplineSet
Substitution2: "'c2sc' Capitals to Small Capitals lookup 32 subtable" o.sc
Substitution2: "Single Substitution lookup 30 subtable" ordmasculine
AlternateSubs2: "'aalt' Access All Alternates lookup 1 subtable" ordmasculine o.sc
EndChar

StartChar: P
Encoding: 80 80 51
Width: 600
GlyphClass: 2
Flags: W
AnchorPoint: "Anchor-4" 600 714 basechar 0
AnchorPoint: "Anchor-3" 300 714 basechar 0
AnchorPoint: "Anchor-0" 300 0 basechar 0
LayerCount: 2
Fore
SplineSet
115 0 m 1,0,-1
 115 714 l 1,1,-1
 294 714 l 2,2,3
 416 714 416 714 478 668 c 128,-1,4
 540 622 540 622 540 516 c 0,5,6
 540 402 540 402 472 353.5 c 128,-1,7
 404 305 404 305 280 305 c 2,8,-1
 141 305 l 1,9,-1
 141 0 l 1,10,-1
 115 0 l 1,0,-1
141 330 m 1,11,-1
 278 330 l 2,12,13
 348 330 348 330 400.5 346.5 c 128,-1,14
 453 363 453 363 483 403.5 c 128,-1,15
 513 444 513 444 513 516 c 0,16,17
 513 608 513 608 459 648.5 c 128,-1,18
 405 689 405 689 290 689 c 2,19,-1
 141 689 l 1,20,-1
 141 330 l 1,11,-1
EndSplineSet
Substitution2: "'c2sc' Capitals to Small Capitals lookup 32 subtable" p.sc
Substitution2: "'aalt' Access All Alternates lookup 0 subtable" p.sc
EndChar

StartChar: Q
Encoding: 81 81 52
Width: 600
GlyphClass: 2
Flags: W
AnchorPoint: "Anchor-4" 600 714 basechar 0
AnchorPoint: "Anchor-3" 300 714 basechar 0
AnchorPoint: "Anchor-2" 302 10 basechar 0
AnchorPoint: "Anchor-1" 300 357 basechar 0
AnchorPoint: "Anchor-0" 300 -210 basechar 0
LayerCount: 2
Fore
SplineSet
301 -10 m 0,0,1
 235 -10 235 -10 188.5 19 c 128,-1,2
 142 48 142 48 112.5 99 c 128,-1,3
 83 150 83 150 69 217 c 128,-1,4
 55 284 55 284 55 360 c 0,5,6
 55 530 55 530 119.5 627 c 128,-1,7
 184 724 184 724 303 724 c 0,8,9
 384 724 384 724 438 678.5 c 128,-1,10
 492 633 492 633 518.5 551.5 c 128,-1,11
 545 470 545 470 545 360 c 0,12,13
 545 277 545 277 529 206 c 128,-1,14
 513 135 513 135 479 83.5 c 128,-1,15
 445 32 445 32 392 8 c 1,16,-1
 497 -170 l 1,17,-1
 467 -170 l 1,18,-1
 368 -1 l 1,19,20
 337 -10 337 -10 301 -10 c 0,0,1
302 15 m 0,21,22
 410 15 410 15 464 107 c 128,-1,23
 518 199 518 199 518 358 c 0,24,25
 518 522 518 522 462.5 610.5 c 128,-1,26
 407 699 407 699 302 699 c 0,27,28
 230 699 230 699 180.5 656.5 c 128,-1,29
 131 614 131 614 106 537.5 c 128,-1,30
 81 461 81 461 81 358 c 0,31,32
 81 254 81 254 105.5 177 c 128,-1,33
 130 100 130 100 179 57.5 c 128,-1,34
 228 15 228 15 302 15 c 0,21,22
EndSplineSet
Substitution2: "'c2sc' Capitals to Small Capitals lookup 32 subtable" q.sc
Substitution2: "'aalt' Access All Alternates lookup 0 subtable" q.sc
EndChar

StartChar: R
Encoding: 82 82 53
Width: 600
GlyphClass: 2
Flags: W
AnchorPoint: "Anchor-4" 580 714 basechar 0
AnchorPoint: "Anchor-3" 300 714 basechar 0
AnchorPoint: "Anchor-0" 340 0 basechar 0
LayerCount: 2
Fore
SplineSet
115 0 m 1,0,-1
 115 714 l 1,1,-1
 276 714 l 2,2,3
 354 714 354 714 411 696.5 c 128,-1,4
 468 679 468 679 499 636.5 c 128,-1,5
 530 594 530 594 530 520 c 0,6,7
 530 435 530 435 489 390 c 128,-1,8
 448 345 448 345 369 327 c 1,9,-1
 565 0 l 1,10,-1
 535 0 l 1,11,-1
 344 320 l 1,12,-1
 141 320 l 1,13,-1
 141 0 l 1,14,-1
 115 0 l 1,0,-1
141 345 m 1,15,-1
 307 345 l 2,16,17
 362 345 362 345 406.5 363 c 128,-1,18
 451 381 451 381 477 420.5 c 128,-1,19
 503 460 503 460 503 522 c 0,20,21
 503 616 503 616 441.5 652.5 c 128,-1,22
 380 689 380 689 271 689 c 2,23,-1
 141 689 l 1,24,-1
 141 345 l 1,15,-1
EndSplineSet
Substitution2: "'c2sc' Capitals to Small Capitals lookup 32 subtable" r.sc
Substitution2: "'aalt' Access All Alternates lookup 0 subtable" r.sc
EndChar

StartChar: S
Encoding: 83 83 54
Width: 600
GlyphClass: 2
Flags: W
AnchorPoint: "Anchor-4" 580 714 basechar 0
AnchorPoint: "Anchor-3" 321 714 basechar 0
AnchorPoint: "Anchor-0" 300 0 basechar 0
LayerCount: 2
Fore
SplineSet
278 -10 m 0,0,1
 221 -10 221 -10 171.5 0 c 128,-1,2
 122 10 122 10 90 20 c 1,3,-1
 90 48 l 1,4,5
 130 33 130 33 180.5 24 c 128,-1,6
 231 15 231 15 278 15 c 0,7,8
 340 15 340 15 390 32.5 c 128,-1,9
 440 50 440 50 469 86 c 128,-1,10
 498 122 498 122 498 180 c 0,11,12
 498 232 498 232 474 261.5 c 128,-1,13
 450 291 450 291 405 311 c 128,-1,14
 360 331 360 331 297 352 c 0,15,16
 238 372 238 372 193 393.5 c 128,-1,17
 148 415 148 415 123 449 c 128,-1,18
 98 483 98 483 98 540 c 0,19,20
 98 604 98 604 128.5 644.5 c 128,-1,21
 159 685 159 685 211.5 704.5 c 128,-1,22
 264 724 264 724 329 724 c 0,23,24
 372 724 372 724 416.5 716 c 128,-1,25
 461 708 461 708 505 688 c 1,26,-1
 494 664 l 1,27,28
 448 684 448 684 405 691.5 c 128,-1,29
 362 699 362 699 328 699 c 0,30,31
 276 699 276 699 229.5 683.5 c 128,-1,32
 183 668 183 668 154 634 c 128,-1,33
 125 600 125 600 125 542 c 0,34,35
 125 490 125 490 149.5 460 c 128,-1,36
 174 430 174 430 216 411 c 128,-1,37
 258 392 258 392 311 375 c 0,38,39
 373 354 373 354 421.5 332.5 c 128,-1,40
 470 311 470 311 497.5 276.5 c 128,-1,41
 525 242 525 242 525 181 c 0,42,43
 525 116 525 116 493.5 74 c 128,-1,44
 462 32 462 32 406.5 11 c 128,-1,45
 351 -10 351 -10 278 -10 c 0,0,1
EndSplineSet
Substitution2: "'c2sc' Capitals to Small Capitals lookup 32 subtable" s.sc
Substitution2: "'aalt' Access All Alternates lookup 0 subtable" s.sc
EndChar

StartChar: T
Encoding: 84 84 55
Width: 600
GlyphClass: 2
Flags: W
AnchorPoint: "Anchor-4" 580 714 basechar 0
AnchorPoint: "Anchor-3" 300 714 basechar 0
AnchorPoint: "Anchor-1" 300 357 basechar 0
AnchorPoint: "Anchor-0" 299 0 basechar 0
LayerCount: 2
Fore
SplineSet
287 0 m 1,0,-1
 287 689 l 1,1,-1
 50 689 l 1,2,-1
 50 714 l 1,3,-1
 550 714 l 1,4,-1
 550 689 l 1,5,-1
 313 689 l 1,6,-1
 313 0 l 1,7,-1
 287 0 l 1,0,-1
EndSplineSet
Substitution2: "'c2sc' Capitals to Small Capitals lookup 32 subtable" t.sc
Substitution2: "'aalt' Access All Alternates lookup 0 subtable" t.sc
EndChar

StartChar: U
Encoding: 85 85 56
Width: 600
GlyphClass: 2
Flags: W
AnchorPoint: "Anchor-4" 580 714 basechar 0
AnchorPoint: "Anchor-3" 300 714 basechar 0
AnchorPoint: "Anchor-2" 540 10 basechar 0
AnchorPoint: "Anchor-0" 300 0 basechar 0
LayerCount: 2
Fore
SplineSet
296 -10 m 0,0,1
 192 -10 192 -10 143.5 57.5 c 128,-1,2
 95 125 95 125 95 254 c 2,3,-1
 95 714 l 1,4,-1
 121 714 l 1,5,-1
 121 258 l 2,6,7
 121 137 121 137 163 76 c 128,-1,8
 205 15 205 15 297 15 c 0,9,10
 386 15 386 15 432.5 74 c 128,-1,11
 479 133 479 133 479 258 c 2,12,-1
 479 714 l 1,13,-1
 505 714 l 1,14,-1
 505 252 l 2,15,16
 505 118 505 118 450.5 54 c 128,-1,17
 396 -10 396 -10 296 -10 c 0,0,1
EndSplineSet
Substitution2: "'c2sc' Capitals to Small Capitals lookup 32 subtable" u.sc
Substitution2: "'aalt' Access All Alternates lookup 0 subtable" u.sc
EndChar

StartChar: V
Encoding: 86 86 57
Width: 600
GlyphClass: 2
Flags: W
AnchorPoint: "Anchor-4" 580 714 basechar 0
AnchorPoint: "Anchor-3" 300 714 basechar 0
AnchorPoint: "Anchor-0" 300 0 basechar 0
LayerCount: 2
Fore
SplineSet
287 0 m 1,0,-1
 40 714 l 1,1,-1
 68 714 l 1,2,-1
 265 143 l 2,3,4
 276 109 276 109 284 82.5 c 128,-1,5
 292 56 292 56 300 34 c 1,6,-1
 301 34 l 1,7,8
 308 56 308 56 316.5 83 c 128,-1,9
 325 110 325 110 336 143 c 2,10,-1
 531 714 l 1,11,-1
 560 714 l 1,12,-1
 314 0 l 1,13,-1
 287 0 l 1,0,-1
EndSplineSet
Substitution2: "'c2sc' Capitals to Small Capitals lookup 32 subtable" v.sc
Substitution2: "'aalt' Access All Alternates lookup 0 subtable" v.sc
EndChar

StartChar: W
Encoding: 87 87 58
Width: 600
GlyphClass: 2
Flags: W
AnchorPoint: "Anchor-4" 580 714 basechar 0
AnchorPoint: "Anchor-3" 300 714 basechar 0
AnchorPoint: "Anchor-0" 300 0 basechar 0
LayerCount: 2
Fore
SplineSet
155 0 m 1,0,-1
 40 714 l 1,1,-1
 67 714 l 1,2,3
 89 574 89 574 110.5 433 c 128,-1,4
 132 292 132 292 154 152 c 0,5,6
 159 120 159 120 162.5 100 c 128,-1,7
 166 80 166 80 168 64 c 128,-1,8
 170 48 170 48 173 29 c 1,9,-1
 175 29 l 1,10,11
 178 50 178 50 181 64.5 c 128,-1,12
 184 79 184 79 188 98.5 c 128,-1,13
 192 118 192 118 200 152 c 2,14,-1
 285 528 l 1,15,-1
 314 528 l 1,16,-1
 398 156 l 2,17,18
 407 117 407 117 412.5 91 c 128,-1,19
 418 65 418 65 424 29 c 1,20,-1
 426 29 l 1,21,22
 432 64 432 64 436 93 c 128,-1,23
 440 122 440 122 445 156 c 0,24,25
 467 296 467 296 489 435 c 128,-1,26
 511 574 511 574 533 714 c 1,27,-1
 560 714 l 1,28,-1
 443 0 l 1,29,-1
 408 0 l 1,30,-1
 322 388 l 2,31,32
 317 411 317 411 314 426.5 c 128,-1,33
 311 442 311 442 308 457 c 128,-1,34
 305 472 305 472 301 495 c 1,35,-1
 299 495 l 1,36,37
 295 472 295 472 291.5 457 c 128,-1,38
 288 442 288 442 284.5 426.5 c 128,-1,39
 281 411 281 411 276 388 c 2,40,-1
 190 0 l 1,41,-1
 155 0 l 1,0,-1
EndSplineSet
Substitution2: "'c2sc' Capitals to Small Capitals lookup 32 subtable" w.sc
Substitution2: "'aalt' Access All Alternates lookup 0 subtable" w.sc
EndChar

StartChar: X
Encoding: 88 88 59
Width: 600
GlyphClass: 2
Flags: W
AnchorPoint: "Anchor-4" 580 714 basechar 0
AnchorPoint: "Anchor-3" 300 714 basechar 0
AnchorPoint: "Anchor-0" 300 0 basechar 0
LayerCount: 2
Fore
SplineSet
50 0 m 1,0,-1
 288 372 l 1,1,-1
 75 714 l 1,2,-1
 106 714 l 1,3,-1
 302 393 l 1,4,-1
 502 714 l 1,5,-1
 532 714 l 1,6,-1
 316 373 l 1,7,-1
 550 0 l 1,8,-1
 519 0 l 1,9,-1
 302 352 l 1,10,-1
 81 0 l 1,11,-1
 50 0 l 1,0,-1
EndSplineSet
Substitution2: "'c2sc' Capitals to Small Capitals lookup 32 subtable" x.sc
Substitution2: "'aalt' Access All Alternates lookup 0 subtable" x.sc
EndChar

StartChar: Y
Encoding: 89 89 60
Width: 600
GlyphClass: 2
Flags: W
AnchorPoint: "Anchor-4" 580 714 basechar 0
AnchorPoint: "Anchor-3" 300 714 basechar 0
AnchorPoint: "Anchor-0" 300 0 basechar 0
LayerCount: 2
Fore
SplineSet
289 0 m 1,0,-1
 289 271 l 1,1,-1
 50 714 l 1,2,-1
 79 714 l 1,3,-1
 302 294 l 1,4,-1
 521 714 l 1,5,-1
 550 714 l 1,6,-1
 315 271 l 1,7,-1
 315 0 l 1,8,-1
 289 0 l 1,0,-1
EndSplineSet
Substitution2: "'c2sc' Capitals to Small Capitals lookup 32 subtable" y.sc
Substitution2: "'aalt' Access All Alternates lookup 0 subtable" y.sc
EndChar

StartChar: Z
Encoding: 90 90 61
Width: 600
GlyphClass: 2
Flags: W
AnchorPoint: "Anchor-4" 580 714 basechar 0
AnchorPoint: "Anchor-3" 317 714 basechar 0
AnchorPoint: "Anchor-0" 320 0 basechar 0
LayerCount: 2
Fore
SplineSet
115 0 m 1,0,-1
 115 18 l 1,1,-1
 450 689 l 1,2,-1
 143 689 l 1,3,-1
 143 714 l 1,4,-1
 483 714 l 1,5,-1
 483 696 l 1,6,-1
 148 25 l 1,7,-1
 495 25 l 1,8,-1
 495 0 l 1,9,-1
 115 0 l 1,0,-1
EndSplineSet
Substitution2: "'c2sc' Capitals to Small Capitals lookup 32 subtable" z.sc
Substitution2: "'aalt' Access All Alternates lookup 0 subtable" z.sc
EndChar

StartChar: bracketleft
Encoding: 91 91 62
Width: 600
Flags: W
LayerCount: 2
Fore
SplineSet
238 -158 m 1,0,-1
 238 714 l 1,1,-1
 438 714 l 1,2,-1
 438 689 l 1,3,-1
 263 689 l 1,4,-1
 263 -133 l 1,5,-1
 438 -133 l 1,6,-1
 438 -158 l 1,7,-1
 238 -158 l 1,0,-1
EndSplineSet
Substitution2: "'smcp' Lowercase to Small Capitals lookup 33 subtable" bracketleft.sc
Substitution2: "'c2sc' Capitals to Small Capitals lookup 32 subtable" bracketleft.sc
Substitution2: "'aalt' Access All Alternates lookup 0 subtable" bracketleft.sc
EndChar

StartChar: asciicircum
Encoding: 94 94 65
Width: 600
Flags: W
LayerCount: 2
Fore
SplineSet
61 278 m 1,0,-1
 297 719 l 1,1,-1
 320 719 l 1,2,-1
 539 278 l 1,3,-1
 510 278 l 1,4,-1
 307 686 l 1,5,-1
 90 278 l 1,6,-1
 61 278 l 1,0,-1
EndSplineSet
EndChar

StartChar: underscore
Encoding: 95 95 66
Width: 600
Flags: W
LayerCount: 2
Fore
SplineSet
0 -110 m 1,0,-1
 0 -85 l 1,1,-1
 600 -85 l 1,2,-1
 600 -110 l 1,3,-1
 0 -110 l 1,0,-1
EndSplineSet
EndChar

StartChar: grave
Encoding: 96 96 67
Width: 600
Flags: W
LayerCount: 2
Fore
SplineSet
359 606 m 1,0,1
 319 639 319 639 278 682 c 128,-1,2
 237 725 237 725 211 759 c 1,3,-1
 211 766 l 1,4,-1
 241 766 l 1,5,6
 256 744 256 744 280 716 c 128,-1,7
 304 688 304 688 331 660 c 128,-1,8
 358 632 358 632 380 612 c 1,9,-1
 380 606 l 1,10,-1
 359 606 l 1,0,1
EndSplineSet
EndChar

StartChar: a
Encoding: 97 97 68
Width: 600
GlyphClass: 2
Flags: W
AnchorPoint: "Anchor-4" 580 528 basechar 0
AnchorPoint: "Anchor-3" 305 528 basechar 0
AnchorPoint: "Anchor-2" 540 10 basechar 0
AnchorPoint: "Anchor-0" 306 0 basechar 0
LayerCount: 2
Fore
SplineSet
254 -10 m 0,0,1
 173 -10 173 -10 131.5 27.5 c 128,-1,2
 90 65 90 65 90 128 c 0,3,4
 90 212 90 212 158.5 250 c 128,-1,5
 227 288 227 288 341 294 c 2,6,-1
 464 300 l 1,7,-1
 464 343 l 2,8,9
 464 434 464 434 425 473 c 128,-1,10
 386 512 386 512 304 512 c 0,11,12
 267 512 267 512 229 503 c 128,-1,13
 191 494 191 494 148 472 c 1,14,-1
 139 497 l 1,15,16
 179 516 179 516 220.5 526.5 c 128,-1,17
 262 537 262 537 305 537 c 0,18,19
 398 537 398 537 444 492.5 c 128,-1,20
 490 448 490 448 490 350 c 2,21,-1
 490 0 l 1,22,-1
 468 0 l 1,23,-1
 464 103 l 1,24,-1
 462 103 l 1,25,26
 440 55 440 55 388 22.5 c 128,-1,27
 336 -10 336 -10 254 -10 c 0,0,1
256 15 m 0,28,29
 358 15 358 15 411 72.5 c 128,-1,30
 464 130 464 130 464 220 c 2,31,-1
 464 275 l 1,32,-1
 346 270 l 2,33,34
 278 267 278 267 226.5 252.5 c 128,-1,35
 175 238 175 238 146 208 c 128,-1,36
 117 178 117 178 117 128 c 0,37,38
 117 76 117 76 152 45.5 c 128,-1,39
 187 15 187 15 256 15 c 0,28,29
EndSplineSet
Substitution2: "'smcp' Lowercase to Small Capitals lookup 33 subtable" a.sc
Substitution2: "Single Substitution lookup 30 subtable" ordfeminine
AlternateSubs2: "'aalt' Access All Alternates lookup 1 subtable" ordfeminine a.sc
EndChar

StartChar: b
Encoding: 98 98 69
Width: 600
GlyphClass: 2
Flags: W
AnchorPoint: "Anchor-4" 580 760 basechar 0
AnchorPoint: "Anchor-3" 300 760 basechar 0
AnchorPoint: "Anchor-0" 300 0 basechar 0
LayerCount: 2
Fore
SplineSet
309 -10 m 0,0,1
 236 -10 236 -10 193 22 c 128,-1,2
 150 54 150 54 133 104 c 1,3,-1
 131 104 l 1,4,-1
 127 0 l 1,5,-1
 105 0 l 1,6,-1
 105 760 l 1,7,-1
 131 760 l 1,8,-1
 131 525 l 2,9,10
 131 500 131 500 130.5 465 c 128,-1,11
 130 430 130 430 129 398 c 1,12,-1
 131 398 l 1,13,14
 147 457 147 457 197 497 c 128,-1,15
 247 537 247 537 325 537 c 0,16,17
 426 537 426 537 478 467 c 128,-1,18
 530 397 530 397 530 273 c 0,19,20
 530 192 530 192 508 128 c 128,-1,21
 486 64 486 64 437.5 27 c 128,-1,22
 389 -10 389 -10 309 -10 c 0,0,1
309 15 m 0,23,24
 404 15 404 15 453.5 81 c 128,-1,25
 503 147 503 147 503 272 c 0,26,27
 503 384 503 384 459 448 c 128,-1,28
 415 512 415 512 323 512 c 0,29,30
 227 512 227 512 179 445.5 c 128,-1,31
 131 379 131 379 131 256 c 0,32,33
 131 137 131 137 174.5 76 c 128,-1,34
 218 15 218 15 309 15 c 0,23,24
EndSplineSet
Substitution2: "'smcp' Lowercase to Small Capitals lookup 33 subtable" b.sc
Substitution2: "'aalt' Access All Alternates lookup 0 subtable" b.sc
EndChar

StartChar: c
Encoding: 99 99 70
Width: 600
GlyphClass: 2
Flags: W
AnchorPoint: "Anchor-4" 580 528 basechar 0
AnchorPoint: "Anchor-3" 330 528 basechar 0
AnchorPoint: "Anchor-0" 335 0 basechar 0
LayerCount: 2
Fore
SplineSet
351 -10 m 0,0,1
 260 -10 260 -10 202.5 25.5 c 128,-1,2
 145 61 145 61 117.5 121.5 c 128,-1,3
 90 182 90 182 90 256 c 0,4,5
 90 341 90 341 123.5 404 c 128,-1,6
 157 467 157 467 220 502 c 128,-1,7
 283 537 283 537 371 537 c 0,8,9
 443 537 443 537 500 513 c 1,10,-1
 495 487 l 1,11,12
 465 500 465 500 431.5 506 c 128,-1,13
 398 512 398 512 369 512 c 0,14,15
 291 512 291 512 234.5 480.5 c 128,-1,16
 178 449 178 449 147.5 391.5 c 128,-1,17
 117 334 117 334 117 257 c 0,18,19
 117 192 117 192 141 136.5 c 128,-1,20
 165 81 165 81 216.5 48 c 128,-1,21
 268 15 268 15 351 15 c 0,22,23
 388 15 388 15 427.5 22.5 c 128,-1,24
 467 30 467 30 496 42 c 1,25,-1
 496 16 l 1,26,27
 471 6 471 6 432.5 -2 c 128,-1,28
 394 -10 394 -10 351 -10 c 0,0,1
EndSplineSet
Substitution2: "'smcp' Lowercase to Small Capitals lookup 33 subtable" c.sc
Substitution2: "'aalt' Access All Alternates lookup 0 subtable" c.sc
EndChar

StartChar: d
Encoding: 100 100 71
Width: 600
GlyphClass: 2
Flags: W
AnchorPoint: "Anchor-4" 580 760 basechar 0
AnchorPoint: "Anchor-3" 300 760 basechar 0
AnchorPoint: "Anchor-1" 300 264 basechar 0
AnchorPoint: "Anchor-0" 300 0 basechar 0
LayerCount: 2
Fore
SplineSet
281 -10 m 0,0,1
 175 -10 175 -10 122.5 59 c 128,-1,2
 70 128 70 128 70 254 c 0,3,4
 70 391 70 391 127.5 464 c 128,-1,5
 185 537 185 537 289 537 c 0,6,7
 342 537 342 537 378 519 c 128,-1,8
 414 501 414 501 436 472 c 128,-1,9
 458 443 458 443 469 409 c 1,10,-1
 471 409 l 1,11,12
 470 443 470 443 469.5 477.5 c 128,-1,13
 469 512 469 512 469 543 c 2,14,-1
 469 760 l 1,15,-1
 495 760 l 1,16,-1
 495 0 l 1,17,-1
 473 0 l 1,18,-1
 471 113 l 1,19,-1
 469 113 l 1,20,21
 449 60 449 60 404.5 25 c 128,-1,22
 360 -10 360 -10 281 -10 c 0,0,1
283 15 m 0,23,24
 384 15 384 15 426.5 80 c 128,-1,25
 469 145 469 145 469 263 c 2,26,-1
 469 266 l 2,27,28
 469 386 469 386 425 449 c 128,-1,29
 381 512 381 512 289 512 c 0,30,31
 198 512 198 512 147.5 448 c 128,-1,32
 97 384 97 384 97 254 c 0,33,34
 97 15 97 15 283 15 c 0,23,24
EndSplineSet
Substitution2: "'smcp' Lowercase to Small Capitals lookup 33 subtable" d.sc
Substitution2: "'aalt' Access All Alternates lookup 0 subtable" d.sc
EndChar

StartChar: e
Encoding: 101 101 72
Width: 600
GlyphClass: 2
Flags: W
AnchorPoint: "Anchor-4" 580 528 basechar 0
AnchorPoint: "Anchor-3" 303 528 basechar 0
AnchorPoint: "Anchor-2" 315 10 basechar 0
AnchorPoint: "Anchor-0" 310 0 basechar 0
LayerCount: 2
Fore
SplineSet
336 -10 m 0,0,1
 242 -10 242 -10 184.5 25 c 128,-1,2
 127 60 127 60 101 119.5 c 128,-1,3
 75 179 75 179 75 254 c 0,4,5
 75 332 75 332 101 396 c 128,-1,6
 127 460 127 460 180.5 498.5 c 128,-1,7
 234 537 234 537 318 537 c 0,8,9
 391 537 391 537 436.5 504.5 c 128,-1,10
 482 472 482 472 503.5 416 c 128,-1,11
 525 360 525 360 525 291 c 2,12,-1
 525 266 l 1,13,-1
 102 266 l 1,14,15
 102 148 102 148 156.5 81.5 c 128,-1,16
 211 15 211 15 337 15 c 0,17,18
 386 15 386 15 427 24.5 c 128,-1,19
 468 34 468 34 510 51 c 1,20,-1
 510 23 l 1,21,22
 470 6 470 6 425 -2 c 128,-1,23
 380 -10 380 -10 336 -10 c 0,0,1
103 291 m 1,24,-1
 498 291 l 1,25,26
 498 392 498 392 454 452 c 128,-1,27
 410 512 410 512 318 512 c 0,28,29
 230 512 230 512 171.5 456 c 128,-1,30
 113 400 113 400 103 291 c 1,24,-1
EndSplineSet
Substitution2: "'smcp' Lowercase to Small Capitals lookup 33 subtable" e.sc
Substitution2: "'aalt' Access All Alternates lookup 0 subtable" e.sc
EndChar

StartChar: f
Encoding: 102 102 73
Width: 600
GlyphClass: 2
Flags: W
AnchorPoint: "Anchor-4" 580 765 basechar 0
AnchorPoint: "Anchor-3" 420 765 basechar 0
AnchorPoint: "Anchor-0" 300 0 basechar 0
LayerCount: 2
Fore
SplineSet
273 0 m 1,0,-1
 273 503 l 1,1,-1
 94 503 l 1,2,-1
 94 524 l 1,3,-1
 273 528 l 1,4,-1
 273 603 l 2,5,6
 273 681 273 681 314 723 c 128,-1,7
 355 765 355 765 445 765 c 0,8,9
 471 765 471 765 506 761 c 128,-1,10
 541 757 541 757 560 752 c 1,11,-1
 556 728 l 1,12,13
 535 733 535 733 504.5 736.5 c 128,-1,14
 474 740 474 740 445 740 c 0,15,16
 371 740 371 740 335 707.5 c 128,-1,17
 299 675 299 675 299 592 c 2,18,-1
 299 528 l 1,19,-1
 528 528 l 1,20,-1
 528 503 l 1,21,-1
 299 503 l 1,22,-1
 299 0 l 1,23,-1
 273 0 l 1,0,-1
EndSplineSet
Substitution2: "'smcp' Lowercase to Small Capitals lookup 33 subtable" f.sc
Substitution2: "'aalt' Access All Alternates lookup 0 subtable" f.sc
EndChar

StartChar: g
Encoding: 103 103 74
Width: 600
GlyphClass: 2
Flags: W
AnchorPoint: "Anchor-4" 580 528 basechar 0
AnchorPoint: "Anchor-3" 300 528 basechar 0
AnchorPoint: "Anchor-0" 300 -247 basechar 0
LayerCount: 2
Fore
SplineSet
274 -247 m 0,0,1
 218 -247 218 -247 175 -236 c 128,-1,2
 132 -225 132 -225 98 -210 c 1,3,-1
 98 -180 l 1,4,5
 132 -197 132 -197 177.5 -209.5 c 128,-1,6
 223 -222 223 -222 276 -222 c 0,7,8
 382 -222 382 -222 425.5 -170 c 128,-1,9
 469 -118 469 -118 469 -32 c 2,10,-1
 469 17 l 2,11,12
 469 46 469 46 469.5 70 c 128,-1,13
 470 94 470 94 471 123 c 1,14,-1
 469 123 l 1,15,16
 450 59 450 59 401 24.5 c 128,-1,17
 352 -10 352 -10 280 -10 c 0,18,19
 181 -10 181 -10 125.5 57 c 128,-1,20
 70 124 70 124 70 257 c 0,21,22
 70 388 70 388 126 462.5 c 128,-1,23
 182 537 182 537 292 537 c 0,24,25
 366 537 366 537 405.5 506.5 c 128,-1,26
 445 476 445 476 466 432 c 1,27,-1
 468 432 l 1,28,-1
 473 528 l 1,29,-1
 495 528 l 1,30,-1
 495 -38 l 2,31,32
 495 -101 495 -101 473.5 -148 c 128,-1,33
 452 -195 452 -195 403.5 -221 c 128,-1,34
 355 -247 355 -247 274 -247 c 0,0,1
283 15 m 0,35,36
 339 15 339 15 375.5 35.5 c 128,-1,37
 412 56 412 56 432.5 89.5 c 128,-1,38
 453 123 453 123 461 164 c 128,-1,39
 469 205 469 205 469 246 c 2,40,-1
 469 294 l 2,41,42
 469 355 469 355 453 404.5 c 128,-1,43
 437 454 437 454 398.5 483 c 128,-1,44
 360 512 360 512 292 512 c 0,45,46
 192 512 192 512 144.5 444 c 128,-1,47
 97 376 97 376 97 258 c 0,48,49
 97 139 97 139 143.5 77 c 128,-1,50
 190 15 190 15 283 15 c 0,35,36
EndSplineSet
Substitution2: "'smcp' Lowercase to Small Capitals lookup 33 subtable" g.sc
Substitution2: "'aalt' Access All Alternates lookup 0 subtable" g.sc
EndChar

StartChar: h
Encoding: 104 104 75
Width: 600
GlyphClass: 2
Flags: W
AnchorPoint: "Anchor-4" 580 760 basechar 0
AnchorPoint: "Anchor-3" 116 760 basechar 0
AnchorPoint: "Anchor-1" 300 264 basechar 0
AnchorPoint: "Anchor-0" 300 0 basechar 0
LayerCount: 2
Fore
SplineSet
105 0 m 1,0,-1
 105 760 l 1,1,-1
 131 760 l 1,2,-1
 131 496 l 2,3,4
 131 472 131 472 130.5 453.5 c 128,-1,5
 130 435 130 435 129 412 c 1,6,-1
 131 412 l 1,7,8
 141 445 141 445 164.5 473.5 c 128,-1,9
 188 502 188 502 226 519.5 c 128,-1,10
 264 537 264 537 320 537 c 0,11,12
 404 537 404 537 452 491 c 128,-1,13
 500 445 500 445 500 350 c 2,14,-1
 500 0 l 1,15,-1
 474 0 l 1,16,-1
 474 345 l 2,17,18
 474 433 474 433 433 472.5 c 128,-1,19
 392 512 392 512 319 512 c 0,20,21
 235 512 235 512 183 461 c 128,-1,22
 131 410 131 410 131 302 c 2,23,-1
 131 0 l 1,24,-1
 105 0 l 1,0,-1
EndSplineSet
Substitution2: "'smcp' Lowercase to Small Capitals lookup 33 subtable" h.sc
Substitution2: "'subs' Subscript lookup 20 subtable" uni2095
AlternateSubs2: "'aalt' Access All Alternates lookup 1 subtable" h.sc uni2095
EndChar

StartChar: i
Encoding: 105 105 76
Width: 600
GlyphClass: 2
Flags: W
AnchorPoint: "Anchor-4" 491 734 basechar 0
AnchorPoint: "Anchor-3" 314 734 basechar 0
AnchorPoint: "Anchor-0" 321 0 basechar 0
LayerCount: 2
Fore
SplineSet
317 660 m 256,0,1
 298 660 298 660 291.5 671 c 128,-1,2
 285 682 285 682 285 697 c 0,3,4
 285 711 285 711 291.5 722.5 c 128,-1,5
 298 734 298 734 317 734 c 0,6,7
 335 734 335 734 341 722.5 c 128,-1,8
 347 711 347 711 347 697 c 0,9,10
 347 684 347 684 341.5 672 c 128,-1,11
 336 660 336 660 317 660 c 256,0,1
100 0 m 1,12,-1
 100 21 l 1,13,-1
 307 25 l 1,14,-1
 307 503 l 1,15,-1
 118 507 l 1,16,-1
 118 528 l 1,17,-1
 333 528 l 1,18,-1
 333 25 l 1,19,-1
 530 21 l 1,20,-1
 530 0 l 1,21,-1
 100 0 l 1,12,-1
EndSplineSet
Substitution2: "'smcp' Lowercase to Small Capitals lookup 33 subtable" i.sc
Substitution2: "Single Substitution lookup 5 subtable" dotlessi
Substitution2: "Single Substitution lookup 4 subtable" dotlessi
AlternateSubs2: "'aalt' Access All Alternates lookup 1 subtable" dotlessi i.sc
EndChar

StartChar: j
Encoding: 106 106 77
Width: 600
GlyphClass: 2
Flags: W
AnchorPoint: "Anchor-4" 580 734 basechar 0
AnchorPoint: "Anchor-3" 340 734 basechar 0
AnchorPoint: "Anchor-0" 254 -248 basechar 0
LayerCount: 2
Fore
SplineSet
340 660 m 0,0,1
 321 660 321 660 314.5 671 c 128,-1,2
 308 682 308 682 308 697 c 0,3,4
 308 711 308 711 314 722.5 c 128,-1,5
 320 734 320 734 340 734 c 0,6,7
 358 734 358 734 364 722.5 c 128,-1,8
 370 711 370 711 370 697 c 0,9,10
 370 684 370 684 365 672 c 128,-1,11
 360 660 360 660 340 660 c 0,0,1
201 -248 m 0,12,13
 164 -248 164 -248 128 -240 c 128,-1,14
 92 -232 92 -232 80 -228 c 1,15,-1
 80 -201 l 1,16,17
 90 -206 90 -206 111 -210.5 c 128,-1,18
 132 -215 132 -215 156.5 -218.5 c 128,-1,19
 181 -222 181 -222 201 -222 c 0,20,21
 266 -222 266 -222 298 -184 c 128,-1,22
 330 -146 330 -146 330 -81 c 2,23,-1
 330 503 l 1,24,-1
 141 507 l 1,25,-1
 141 528 l 1,26,-1
 356 528 l 1,27,-1
 356 -88 l 2,28,29
 356 -169 356 -169 313.5 -208.5 c 128,-1,30
 271 -248 271 -248 201 -248 c 0,12,13
EndSplineSet
Substitution2: "'smcp' Lowercase to Small Capitals lookup 33 subtable" j.sc
Substitution2: "Single Substitution lookup 5 subtable" uni0237
Substitution2: "Single Substitution lookup 4 subtable" uni0237
AlternateSubs2: "'aalt' Access All Alternates lookup 1 subtable" uni0237 j.sc
EndChar

StartChar: k
Encoding: 107 107 78
Width: 600
GlyphClass: 2
Flags: W
AnchorPoint: "Anchor-4" 580 760 basechar 0
AnchorPoint: "Anchor-3" 340 760 basechar 0
AnchorPoint: "Anchor-0" 334 0 basechar 0
LayerCount: 2
Fore
SplineSet
140 0 m 1,0,-1
 140 760 l 1,1,-1
 166 760 l 1,2,-1
 166 385 l 2,3,4
 166 337 166 337 166 293 c 128,-1,5
 166 249 166 249 165 201 c 1,6,-1
 167 201 l 1,7,8
 183 217 183 217 199.5 233.5 c 128,-1,9
 216 250 216 250 235 269 c 2,10,-1
 491 528 l 1,11,-1
 525 528 l 1,12,-1
 318 315 l 1,13,-1
 545 0 l 1,14,-1
 514 0 l 1,15,-1
 300 297 l 1,16,-1
 166 169 l 1,17,-1
 166 0 l 1,18,-1
 140 0 l 1,0,-1
EndSplineSet
Substitution2: "'smcp' Lowercase to Small Capitals lookup 33 subtable" k.sc
Substitution2: "'subs' Subscript lookup 20 subtable" uni2096
AlternateSubs2: "'aalt' Access All Alternates lookup 1 subtable" k.sc uni2096
EndChar

StartChar: l
Encoding: 108 108 79
Width: 600
GlyphClass: 2
Flags: W
AnchorPoint: "Anchor-4" 486 760 basechar 0
AnchorPoint: "Anchor-3" 300 760 basechar 0
AnchorPoint: "Anchor-1" 314 379 basechar 0
AnchorPoint: "Anchor-0" 314 0 basechar 0
LayerCount: 2
Fore
SplineSet
100 0 m 1,0,-1
 100 21 l 1,1,-1
 301 25 l 1,2,-1
 301 735 l 1,3,-1
 122 739 l 1,4,-1
 122 760 l 1,5,-1
 327 760 l 1,6,-1
 327 25 l 1,7,-1
 530 21 l 1,8,-1
 530 0 l 1,9,-1
 100 0 l 1,0,-1
EndSplineSet
Substitution2: "'smcp' Lowercase to Small Capitals lookup 33 subtable" l.sc
Substitution2: "'subs' Subscript lookup 20 subtable" uni2097
AlternateSubs2: "'aalt' Access All Alternates lookup 1 subtable" l.sc uni2097
EndChar

StartChar: m
Encoding: 109 109 80
Width: 600
GlyphClass: 2
Flags: W
AnchorPoint: "Anchor-4" 580 528 basechar 0
AnchorPoint: "Anchor-3" 311 528 basechar 0
AnchorPoint: "Anchor-0" 303 0 basechar 0
LayerCount: 2
Fore
SplineSet
70 0 m 1,0,-1
 70 527 l 1,1,-1
 89 527 l 1,2,-1
 92 430 l 1,3,-1
 94 430 l 1,4,5
 102 453 102 453 114 478 c 128,-1,6
 126 503 126 503 148 520 c 128,-1,7
 170 537 170 537 207 537 c 0,8,9
 258 537 258 537 280.5 504.5 c 128,-1,10
 303 472 303 472 308 431 c 1,11,-1
 311 431 l 1,12,13
 326 476 326 476 352 506.5 c 128,-1,14
 378 537 378 537 427 537 c 0,15,16
 477 537 477 537 506 498.5 c 128,-1,17
 535 460 535 460 535 381 c 2,18,-1
 535 0 l 1,19,-1
 509 0 l 1,20,-1
 509 372 l 2,21,22
 509 450 509 450 485 481 c 128,-1,23
 461 512 461 512 425 512 c 0,24,25
 376 512 376 512 346.5 465 c 128,-1,26
 317 418 317 418 317 341 c 2,27,-1
 317 0 l 1,28,-1
 291 0 l 1,29,-1
 291 355 l 2,30,31
 291 417 291 417 279.5 451 c 128,-1,32
 268 485 268 485 248.5 498.5 c 128,-1,33
 229 512 229 512 206 512 c 0,34,35
 166 512 166 512 142 483 c 128,-1,36
 118 454 118 454 107 411.5 c 128,-1,37
 96 369 96 369 96 328 c 2,38,-1
 96 0 l 1,39,-1
 70 0 l 1,0,-1
EndSplineSet
Substitution2: "'smcp' Lowercase to Small Capitals lookup 33 subtable" m.sc
Substitution2: "'subs' Subscript lookup 20 subtable" uni2098
AlternateSubs2: "'aalt' Access All Alternates lookup 1 subtable" m.sc uni2098
EndChar

StartChar: n
Encoding: 110 110 81
Width: 600
GlyphClass: 2
Flags: W
AnchorPoint: "Anchor-4" 580 528 basechar 0
AnchorPoint: "Anchor-3" 308 528 basechar 0
AnchorPoint: "Anchor-0" 309 0 basechar 0
LayerCount: 2
Fore
SplineSet
105 0 m 1,0,-1
 105 528 l 1,1,-1
 127 528 l 1,2,-1
 130 417 l 1,3,-1
 132 417 l 1,4,5
 144 448 144 448 166.5 475 c 128,-1,6
 189 502 189 502 226.5 519.5 c 128,-1,7
 264 537 264 537 320 537 c 0,8,9
 404 537 404 537 452 491.5 c 128,-1,10
 500 446 500 446 500 354 c 2,11,-1
 500 0 l 1,12,-1
 474 0 l 1,13,-1
 474 345 l 2,14,15
 474 433 474 433 433 472.5 c 128,-1,16
 392 512 392 512 319 512 c 0,17,18
 235 512 235 512 183 461 c 128,-1,19
 131 410 131 410 131 302 c 2,20,-1
 131 0 l 1,21,-1
 105 0 l 1,0,-1
EndSplineSet
Substitution2: "'smcp' Lowercase to Small Capitals lookup 33 subtable" n.sc
Substitution2: "'sups' Superscript lookup 21 subtable" nsuperior
Substitution2: "'subs' Subscript lookup 20 subtable" uni2099
AlternateSubs2: "'aalt' Access All Alternates lookup 1 subtable" nsuperior n.sc uni2099
EndChar

StartChar: o
Encoding: 111 111 82
Width: 600
GlyphClass: 2
Flags: W
AnchorPoint: "Anchor-4" 580 528 basechar 0
AnchorPoint: "Anchor-3" 300 528 basechar 0
AnchorPoint: "Anchor-2" 300 10 basechar 0
AnchorPoint: "Anchor-1" 300 264 basechar 0
AnchorPoint: "Anchor-0" 300 0 basechar 0
LayerCount: 2
Fore
SplineSet
300 -10 m 256,0,1
 222 -10 222 -10 171 26 c 128,-1,2
 120 62 120 62 95 124 c 128,-1,3
 70 186 70 186 70 264 c 0,4,5
 70 390 70 390 132 463.5 c 128,-1,6
 194 537 194 537 305 537 c 0,7,8
 385 537 385 537 434.5 500.5 c 128,-1,9
 484 464 484 464 507 403 c 128,-1,10
 530 342 530 342 530 267 c 0,11,12
 530 188 530 188 505 125.5 c 128,-1,13
 480 63 480 63 429 26.5 c 128,-1,14
 378 -10 378 -10 300 -10 c 256,0,1
300 15 m 0,15,16
 370 15 370 15 415 47 c 128,-1,17
 460 79 460 79 481.5 135.5 c 128,-1,18
 503 192 503 192 503 265 c 0,19,20
 503 334 503 334 483.5 390 c 128,-1,21
 464 446 464 446 420.5 479 c 128,-1,22
 377 512 377 512 305 512 c 0,23,24
 207 512 207 512 152 446.5 c 128,-1,25
 97 381 97 381 97 263 c 0,26,27
 97 190 97 190 119 134 c 128,-1,28
 141 78 141 78 186.5 46.5 c 128,-1,29
 232 15 232 15 300 15 c 0,15,16
EndSplineSet
Substitution2: "'smcp' Lowercase to Small Capitals lookup 33 subtable" o.sc
Substitution2: "Single Substitution lookup 30 subtable" ordmasculine
AlternateSubs2: "'aalt' Access All Alternates lookup 1 subtable" ordmasculine o.sc
EndChar

StartChar: p
Encoding: 112 112 83
Width: 600
GlyphClass: 2
Flags: W
AnchorPoint: "Anchor-4" 580 528 basechar 0
AnchorPoint: "Anchor-3" 320 528 basechar 0
AnchorPoint: "Anchor-0" 320 -240 basechar 0
LayerCount: 2
Fore
SplineSet
105 -240 m 1,0,-1
 105 528 l 1,1,-1
 127 528 l 1,2,-1
 128 399 l 1,3,-1
 131 399 l 1,4,5
 142 434 142 434 167 465.5 c 128,-1,6
 192 497 192 497 232 517 c 128,-1,7
 272 537 272 537 328 537 c 0,8,9
 427 537 427 537 478.5 468.5 c 128,-1,10
 530 400 530 400 530 271 c 0,11,12
 530 135 530 135 474 62.5 c 128,-1,13
 418 -10 418 -10 317 -10 c 0,14,15
 238 -10 238 -10 193 28 c 128,-1,16
 148 66 148 66 131 119 c 1,17,-1
 129 119 l 1,18,19
 130 85 130 85 130.5 50.5 c 128,-1,20
 131 16 131 16 131 -15 c 2,21,-1
 131 -240 l 1,22,-1
 105 -240 l 1,0,-1
317 15 m 0,23,24
 406 15 406 15 454.5 78.5 c 128,-1,25
 503 142 503 142 503 272 c 0,26,27
 503 512 503 512 328 512 c 0,28,29
 234 512 234 512 182.5 447 c 128,-1,30
 131 382 131 382 131 265 c 2,31,-1
 131 262 l 2,32,33
 131 135 131 135 181.5 75 c 128,-1,34
 232 15 232 15 317 15 c 0,23,24
EndSplineSet
Substitution2: "'smcp' Lowercase to Small Capitals lookup 33 subtable" p.sc
Substitution2: "'subs' Subscript lookup 20 subtable" uni209A
AlternateSubs2: "'aalt' Access All Alternates lookup 1 subtable" p.sc uni209A
EndChar

StartChar: q
Encoding: 113 113 84
Width: 600
GlyphClass: 2
Flags: W
AnchorPoint: "Anchor-4" 580 528 basechar 0
AnchorPoint: "Anchor-3" 290 528 basechar 0
AnchorPoint: "Anchor-0" 290 -240 basechar 0
LayerCount: 2
Fore
SplineSet
469 -240 m 1,0,-1
 469 3 l 2,1,2
 469 27 469 27 469.5 63 c 128,-1,3
 470 99 470 99 471 124 c 1,4,-1
 469 124 l 1,5,6
 449 66 449 66 402.5 28 c 128,-1,7
 356 -10 356 -10 277 -10 c 0,8,9
 174 -10 174 -10 122 59 c 128,-1,10
 70 128 70 128 70 254 c 0,11,12
 70 335 70 335 92.5 399 c 128,-1,13
 115 463 115 463 162.5 500 c 128,-1,14
 210 537 210 537 286 537 c 256,15,16
 362 537 362 537 406 502.5 c 128,-1,17
 450 468 450 468 467 422 c 1,18,-1
 469 422 l 1,19,-1
 473 528 l 1,20,-1
 495 528 l 1,21,-1
 495 -240 l 1,22,-1
 469 -240 l 1,0,-1
277 15 m 0,23,24
 374 15 374 15 421.5 81.5 c 128,-1,25
 469 148 469 148 469 265 c 2,26,-1
 469 275 l 2,27,28
 469 391 469 391 423 451.5 c 128,-1,29
 377 512 377 512 286 512 c 0,30,31
 192 512 192 512 144.5 445.5 c 128,-1,32
 97 379 97 379 97 256 c 0,33,34
 97 138 97 138 141.5 76.5 c 128,-1,35
 186 15 186 15 277 15 c 0,23,24
EndSplineSet
Substitution2: "'smcp' Lowercase to Small Capitals lookup 33 subtable" q.sc
Substitution2: "'aalt' Access All Alternates lookup 0 subtable" q.sc
EndChar

StartChar: r
Encoding: 114 114 85
Width: 600
GlyphClass: 2
Flags: W
AnchorPoint: "Anchor-4" 580 528 basechar 0
AnchorPoint: "Anchor-3" 346 528 basechar 0
AnchorPoint: "Anchor-0" 286 0 basechar 0
LayerCount: 2
Fore
SplineSet
100 0 m 1,0,-1
 100 21 l 1,1,-1
 274 25 l 1,2,-1
 274 503 l 1,3,-1
 118 507 l 1,4,-1
 118 528 l 1,5,-1
 300 528 l 1,6,-1
 300 407 l 1,7,-1
 303 407 l 1,8,9
 316 461 316 461 360.5 498.5 c 128,-1,10
 405 536 405 536 473 536 c 0,11,12
 499 536 499 536 524.5 532 c 128,-1,13
 550 528 550 528 567 523 c 1,14,-1
 561 497 l 1,15,16
 542 503 542 503 519.5 506.5 c 128,-1,17
 497 510 497 510 472 510 c 0,18,19
 386 510 386 510 343 445.5 c 128,-1,20
 300 381 300 381 300 273 c 2,21,-1
 300 25 l 1,22,-1
 500 21 l 1,23,-1
 500 0 l 1,24,-1
 100 0 l 1,0,-1
EndSplineSet
Substitution2: "'smcp' Lowercase to Small Capitals lookup 33 subtable" r.sc
Substitution2: "'aalt' Access All Alternates lookup 0 subtable" r.sc
EndChar

StartChar: s
Encoding: 115 115 86
Width: 600
GlyphClass: 2
Flags: W
AnchorPoint: "Anchor-4" 580 528 basechar 0
AnchorPoint: "Anchor-3" 300 528 basechar 0
AnchorPoint: "Anchor-0" 300 0 basechar 0
LayerCount: 2
Fore
SplineSet
290 -10 m 0,0,1
 240 -10 240 -10 194 1 c 128,-1,2
 148 12 148 12 120 25 c 1,3,-1
 120 54 l 1,4,5
 200 15 200 15 290 15 c 0,6,7
 378 15 378 15 415.5 46.5 c 128,-1,8
 453 78 453 78 453 130 c 0,9,10
 453 172 453 172 432.5 196.5 c 128,-1,11
 412 221 412 221 377 235 c 128,-1,12
 342 249 342 249 299 262 c 0,13,14
 258 274 258 274 221 288.5 c 128,-1,15
 184 303 184 303 160.5 329 c 128,-1,16
 137 355 137 355 137 404 c 0,17,18
 137 469 137 469 183.5 503 c 128,-1,19
 230 537 230 537 315 537 c 0,20,21
 360 537 360 537 398 529 c 128,-1,22
 436 521 436 521 467 508 c 1,23,-1
 456 483 l 1,24,25
 428 496 428 496 391 504 c 128,-1,26
 354 512 354 512 315 512 c 0,27,28
 242 512 242 512 203 486 c 128,-1,29
 164 460 164 460 164 405 c 0,30,31
 164 366 164 366 182.5 345 c 128,-1,32
 201 324 201 324 233.5 311.5 c 128,-1,33
 266 299 266 299 308 286 c 0,34,35
 358 270 358 270 397 253.5 c 128,-1,36
 436 237 436 237 458 209 c 128,-1,37
 480 181 480 181 480 133 c 0,38,39
 480 67 480 67 434 28.5 c 128,-1,40
 388 -10 388 -10 290 -10 c 0,0,1
EndSplineSet
Substitution2: "'smcp' Lowercase to Small Capitals lookup 33 subtable" s.sc
Substitution2: "'subs' Subscript lookup 20 subtable" uni209B
AlternateSubs2: "'aalt' Access All Alternates lookup 1 subtable" s.sc uni209B
EndChar

StartChar: t
Encoding: 116 116 87
Width: 600
GlyphClass: 2
Flags: W
AnchorPoint: "Anchor-4" 580 659 basechar 0
AnchorPoint: "Anchor-3" 270 659 basechar 0
AnchorPoint: "Anchor-1" 267 264 basechar 0
AnchorPoint: "Anchor-0" 387 0 basechar 0
LayerCount: 2
Fore
SplineSet
411 -10 m 0,0,1
 351 -10 351 -10 317 13 c 128,-1,2
 283 36 283 36 269 78.5 c 128,-1,3
 255 121 255 121 255 180 c 2,4,-1
 255 503 l 1,5,-1
 84 503 l 1,6,-1
 84 524 l 1,7,-1
 254 528 l 1,8,-1
 259 659 l 1,9,-1
 281 659 l 1,10,-1
 281 528 l 1,11,-1
 498 528 l 1,12,-1
 498 503 l 1,13,-1
 281 503 l 1,14,-1
 281 183 l 2,15,16
 281 102 281 102 307.5 58.5 c 128,-1,17
 334 15 334 15 411 15 c 0,18,19
 436 15 436 15 455 18.5 c 128,-1,20
 474 22 474 22 490 28 c 1,21,-1
 490 3 l 1,22,23
 474 -2 474 -2 455.5 -6 c 128,-1,24
 437 -10 437 -10 411 -10 c 0,0,1
EndSplineSet
Substitution2: "'smcp' Lowercase to Small Capitals lookup 33 subtable" t.sc
Substitution2: "'subs' Subscript lookup 20 subtable" uni209C
AlternateSubs2: "'aalt' Access All Alternates lookup 1 subtable" t.sc uni209C
EndChar

StartChar: u
Encoding: 117 117 88
Width: 600
GlyphClass: 2
Flags: W
AnchorPoint: "Anchor-4" 580 528 basechar 0
AnchorPoint: "Anchor-3" 300 528 basechar 0
AnchorPoint: "Anchor-2" 540 10 basechar 0
AnchorPoint: "Anchor-0" 300 0 basechar 0
LayerCount: 2
Fore
SplineSet
281 -10 m 0,0,1
 192 -10 192 -10 146 42 c 128,-1,2
 100 94 100 94 100 194 c 2,3,-1
 100 528 l 1,4,-1
 126 528 l 1,5,-1
 126 198 l 2,6,7
 126 103 126 103 166 59 c 128,-1,8
 206 15 206 15 282 15 c 0,9,10
 364 15 364 15 416.5 66.5 c 128,-1,11
 469 118 469 118 469 226 c 2,12,-1
 469 528 l 1,13,-1
 495 528 l 1,14,-1
 495 0 l 1,15,-1
 473 0 l 1,16,-1
 470 112 l 1,17,-1
 468 112 l 1,18,19
 457 82 457 82 434 54 c 128,-1,20
 411 26 411 26 373.5 8 c 128,-1,21
 336 -10 336 -10 281 -10 c 0,0,1
EndSplineSet
Substitution2: "'smcp' Lowercase to Small Capitals lookup 33 subtable" u.sc
Substitution2: "'aalt' Access All Alternates lookup 0 subtable" u.sc
EndChar

StartChar: v
Encoding: 118 118 89
Width: 600
GlyphClass: 2
Flags: W
AnchorPoint: "Anchor-4" 580 528 basechar 0
AnchorPoint: "Anchor-3" 300 528 basechar 0
AnchorPoint: "Anchor-0" 300 0 basechar 0
LayerCount: 2
Fore
SplineSet
289 0 m 1,0,-1
 85 528 l 1,1,-1
 113 528 l 1,2,-1
 261 138 l 2,3,4
 273 106 273 106 281.5 82.5 c 128,-1,5
 290 59 290 59 299 34 c 1,6,-1
 301 34 l 1,7,8
 310 59 310 59 318 82.5 c 128,-1,9
 326 106 326 106 338 138 c 2,10,-1
 487 528 l 1,11,-1
 515 528 l 1,12,-1
 310 0 l 1,13,-1
 289 0 l 1,0,-1
EndSplineSet
Substitution2: "'smcp' Lowercase to Small Capitals lookup 33 subtable" v.sc
Substitution2: "'aalt' Access All Alternates lookup 0 subtable" v.sc
EndChar

StartChar: w
Encoding: 119 119 90
Width: 600
GlyphClass: 2
Flags: W
AnchorPoint: "Anchor-4" 580 528 basechar 0
AnchorPoint: "Anchor-3" 306 528 basechar 0
AnchorPoint: "Anchor-0" 306 0 basechar 0
LayerCount: 2
Fore
SplineSet
157 0 m 1,0,-1
 25 528 l 1,1,-1
 50 528 l 1,2,-1
 144 152 l 2,3,4
 154 108 154 108 159 84 c 128,-1,5
 164 60 164 60 169 37 c 1,6,-1
 171 37 l 1,7,8
 178 60 178 60 185 84 c 128,-1,9
 192 108 192 108 205 152 c 2,10,-1
 293 432 l 1,11,-1
 318 432 l 1,12,-1
 407 152 l 2,13,14
 420 109 420 109 427 85 c 128,-1,15
 434 61 434 61 441 37 c 1,16,-1
 443 37 l 1,17,18
 447 60 447 60 451 84.5 c 128,-1,19
 455 109 455 109 465 152 c 2,20,-1
 550 528 l 1,21,-1
 575 528 l 1,22,-1
 455 0 l 1,23,-1
 432 0 l 1,24,-1
 338 291 l 2,25,26
 330 317 330 317 321.5 343.5 c 128,-1,27
 313 370 313 370 306 399 c 1,28,-1
 304 399 l 1,29,30
 297 370 297 370 288.5 343 c 128,-1,31
 280 316 280 316 273 292 c 2,32,-1
 181 0 l 1,33,-1
 157 0 l 1,0,-1
EndSplineSet
Substitution2: "'smcp' Lowercase to Small Capitals lookup 33 subtable" w.sc
Substitution2: "'aalt' Access All Alternates lookup 0 subtable" w.sc
EndChar

StartChar: x
Encoding: 120 120 91
Width: 600
GlyphClass: 2
Flags: W
AnchorPoint: "Anchor-4" 580 528 basechar 0
AnchorPoint: "Anchor-3" 300 528 basechar 0
AnchorPoint: "Anchor-0" 300 0 basechar 0
LayerCount: 2
Fore
SplineSet
85 0 m 1,0,-1
 283 270 l 1,1,-1
 96 528 l 1,2,-1
 127 528 l 1,3,-1
 298 288 l 1,4,-1
 473 528 l 1,5,-1
 503 528 l 1,6,-1
 315 271 l 1,7,-1
 515 0 l 1,8,-1
 484 0 l 1,9,-1
 299 252 l 1,10,-1
 116 0 l 1,11,-1
 85 0 l 1,0,-1
EndSplineSet
Substitution2: "'smcp' Lowercase to Small Capitals lookup 33 subtable" x.sc
Substitution2: "'aalt' Access All Alternates lookup 0 subtable" x.sc
EndChar

StartChar: y
Encoding: 121 121 92
Width: 600
GlyphClass: 2
Flags: W
AnchorPoint: "Anchor-4" 580 528 basechar 0
AnchorPoint: "Anchor-3" 300 528 basechar 0
AnchorPoint: "Anchor-0" 300 -247 basechar 0
LayerCount: 2
Fore
SplineSet
138 -247 m 0,0,1
 112 -247 112 -247 85 -237 c 1,2,-1
 85 -211 l 1,3,4
 99 -216 99 -216 111.5 -219 c 128,-1,5
 124 -222 124 -222 138 -222 c 0,6,7
 177 -222 177 -222 200.5 -195.5 c 128,-1,8
 224 -169 224 -169 247 -106 c 2,9,-1
 288 6 l 1,10,-1
 91 528 l 1,11,-1
 118 528 l 1,12,-1
 255 163 l 2,13,14
 272 120 272 120 281 95 c 128,-1,15
 290 70 290 70 301 39 c 1,16,-1
 303 39 l 1,17,18
 310 60 310 60 316.5 77 c 128,-1,19
 323 94 323 94 331 115 c 128,-1,20
 339 136 339 136 351 168 c 2,21,-1
 487 528 l 1,22,-1
 515 528 l 1,23,-1
 269 -119 l 2,24,25
 244 -184 244 -184 216 -215.5 c 128,-1,26
 188 -247 188 -247 138 -247 c 0,0,1
EndSplineSet
Substitution2: "'smcp' Lowercase to Small Capitals lookup 33 subtable" y.sc
Substitution2: "'aalt' Access All Alternates lookup 0 subtable" y.sc
EndChar

StartChar: z
Encoding: 122 122 93
Width: 600
GlyphClass: 2
Flags: W
AnchorPoint: "Anchor-4" 580 528 basechar 0
AnchorPoint: "Anchor-3" 310 528 basechar 0
AnchorPoint: "Anchor-0" 310 0 basechar 0
LayerCount: 2
Fore
SplineSet
115 0 m 1,0,-1
 115 17 l 1,1,-1
 447 503 l 1,2,-1
 142 503 l 1,3,-1
 142 528 l 1,4,-1
 485 528 l 1,5,-1
 485 513 l 1,6,-1
 151 25 l 1,7,-1
 482 25 l 1,8,-1
 482 0 l 1,9,-1
 115 0 l 1,0,-1
EndSplineSet
Substitution2: "'smcp' Lowercase to Small Capitals lookup 33 subtable" z.sc
Substitution2: "'aalt' Access All Alternates lookup 0 subtable" z.sc
EndChar

StartChar: braceleft
Encoding: 123 123 94
Width: 600
Flags: W
LayerCount: 2
Fore
SplineSet
440 -158 m 1,0,1
 350 -158 350 -158 313 -126.5 c 128,-1,2
 276 -95 276 -95 276 -26 c 2,3,-1
 276 151 l 2,4,5
 276 213 276 213 251 239.5 c 128,-1,6
 226 266 226 266 166 266 c 1,7,-1
 166 291 l 1,8,9
 226 291 226 291 251 317.5 c 128,-1,10
 276 344 276 344 276 408 c 2,11,-1
 276 582 l 2,12,13
 276 651 276 651 313 682.5 c 128,-1,14
 350 714 350 714 440 714 c 1,15,-1
 440 689 l 1,16,17
 361 689 361 689 332 664 c 128,-1,18
 303 639 303 639 303 579 c 2,19,-1
 303 403 l 2,20,21
 303 353 303 353 285.5 320.5 c 128,-1,22
 268 288 268 288 224 281 c 1,23,-1
 224 279 l 1,24,25
 268 270 268 270 285.5 237 c 128,-1,26
 303 204 303 204 303 155 c 2,27,-1
 303 -23 l 2,28,29
 303 -83 303 -83 332 -108 c 128,-1,30
 361 -133 361 -133 440 -133 c 1,31,-1
 440 -158 l 1,0,1
EndSplineSet
Substitution2: "'smcp' Lowercase to Small Capitals lookup 33 subtable" braceleft.sc
Substitution2: "'c2sc' Capitals to Small Capitals lookup 32 subtable" braceleft.sc
Substitution2: "'aalt' Access All Alternates lookup 0 subtable" braceleft.sc
EndChar

StartChar: bar
Encoding: 124 124 95
Width: 600
Flags: W
LayerCount: 2
Fore
SplineSet
287 -240 m 1,0,-1
 287 760 l 1,1,-1
 312 760 l 1,2,-1
 312 -240 l 1,3,-1
 287 -240 l 1,0,-1
EndSplineSet
EndChar

StartChar: asciitilde
Encoding: 126 126 97
Width: 600
Flags: W
LayerCount: 2
Fore
SplineSet
71 308 m 1,0,-1
 71 340 l 1,1,2
 94 362 94 362 125 379.5 c 128,-1,3
 156 397 156 397 192 397 c 0,4,5
 231 397 231 397 256.5 387.5 c 128,-1,6
 282 378 282 378 310 364 c 0,7,8
 337 350 337 350 360.5 341.5 c 128,-1,9
 384 333 384 333 415 333 c 0,10,11
 442 333 442 333 470.5 347.5 c 128,-1,12
 499 362 499 362 529 393 c 1,13,-1
 529 363 l 1,14,15
 510 343 510 343 480.5 326 c 128,-1,16
 451 309 451 309 415 309 c 256,17,18
 379 309 379 309 353 318 c 128,-1,19
 327 327 327 327 297 342 c 0,20,21
 270 356 270 356 247 364.5 c 128,-1,22
 224 373 224 373 192 373 c 256,23,24
 160 373 160 373 130 355.5 c 128,-1,25
 100 338 100 338 71 308 c 1,0,-1
EndSplineSet
EndChar

StartChar: cent
Encoding: 162 162 100
Width: 600
Flags: W
LayerCount: 2
Fore
SplineSet
323 -10 m 1,0,-1
 323 90 l 1,1,2
 244 94 244 94 193.5 130 c 128,-1,3
 143 166 143 166 119 226 c 128,-1,4
 95 286 95 286 95 361 c 256,5,6
 95 436 95 436 122 495.5 c 128,-1,7
 149 555 149 555 200 592 c 128,-1,8
 251 629 251 629 323 636 c 1,9,-1
 323 724 l 1,10,-1
 348 724 l 1,11,-1
 348 637 l 1,12,13
 388 637 388 637 418 632 c 128,-1,14
 448 627 448 627 478 614 c 1,15,-1
 473 589 l 1,16,17
 443 602 443 602 413.5 607.5 c 128,-1,18
 384 613 384 613 355 613 c 0,19,20
 283 613 283 613 230.5 581 c 128,-1,21
 178 549 178 549 150 492 c 128,-1,22
 122 435 122 435 122 361 c 0,23,24
 122 293 122 293 144.5 237 c 128,-1,25
 167 181 167 181 214.5 148 c 128,-1,26
 262 115 262 115 338 115 c 0,27,28
 374 115 374 115 409.5 122 c 128,-1,29
 445 129 445 129 474 141 c 1,30,-1
 474 116 l 1,31,32
 451 106 451 106 418.5 98.5 c 128,-1,33
 386 91 386 91 348 90 c 1,34,-1
 348 -10 l 1,35,-1
 323 -10 l 1,0,-1
EndSplineSet
EndChar

StartChar: sterling
Encoding: 163 163 101
Width: 600
Flags: W
LayerCount: 2
Fore
SplineSet
92 0 m 1,0,-1
 92 23 l 1,1,2
 153 34 153 34 184 74 c 128,-1,3
 215 114 215 114 215 187 c 2,4,-1
 215 335 l 1,5,-1
 108 335 l 1,6,-1
 108 360 l 1,7,-1
 215 360 l 1,8,-1
 215 516 l 2,9,10
 215 622 215 622 259 672.5 c 128,-1,11
 303 723 303 723 389 723 c 0,12,13
 432 723 432 723 467 711.5 c 128,-1,14
 502 700 502 700 531 684 c 1,15,-1
 522 660 l 1,16,17
 488 680 488 680 456 689 c 128,-1,18
 424 698 424 698 389 698 c 0,19,20
 313 698 313 698 277 654 c 128,-1,21
 241 610 241 610 241 512 c 2,22,-1
 241 360 l 1,23,-1
 420 360 l 1,24,-1
 420 335 l 1,25,-1
 241 335 l 1,26,-1
 241 178 l 2,27,28
 241 116 241 116 218.5 79 c 128,-1,29
 196 42 196 42 161 25 c 1,30,-1
 538 25 l 1,31,-1
 538 0 l 1,32,-1
 92 0 l 1,0,-1
EndSplineSet
EndChar

StartChar: currency
Encoding: 164 164 102
Width: 600
Flags: W
LayerCount: 2
Fore
SplineSet
509 124 m 1,0,-1
 432 202 l 1,1,2
 404 176 404 176 370 164.5 c 128,-1,3
 336 153 336 153 300 153 c 256,4,5
 264 153 264 153 231 164.5 c 128,-1,6
 198 176 198 176 169 202 c 1,7,-1
 91 126 l 1,8,-1
 73 144 l 1,9,-1
 150 220 l 1,10,11
 125 248 125 248 112.5 283 c 128,-1,12
 100 318 100 318 100 354 c 256,13,14
 100 390 100 390 111 424 c 128,-1,15
 122 458 122 458 147 486 c 1,16,-1
 70 564 l 1,17,-1
 88 582 l 1,18,-1
 166 504 l 1,19,20
 194 530 194 530 229 542.5 c 128,-1,21
 264 555 264 555 300 555 c 256,22,23
 336 555 336 555 371 542.5 c 128,-1,24
 406 530 406 530 435 504 c 1,25,-1
 512 581 l 1,26,-1
 529 563 l 1,27,-1
 452 486 l 1,28,29
 478 458 478 458 489.5 424 c 128,-1,30
 501 390 501 390 501 354 c 256,31,32
 501 318 501 318 488.5 283 c 128,-1,33
 476 248 476 248 450 220 c 1,34,-1
 528 142 l 1,35,-1
 509 124 l 1,0,-1
299 179 m 0,36,37
 348 179 348 179 387.5 203 c 128,-1,38
 427 227 427 227 451 267.5 c 128,-1,39
 475 308 475 308 475 356 c 0,40,41
 475 403 475 403 452.5 442.5 c 128,-1,42
 430 482 430 482 391 506 c 128,-1,43
 352 530 352 530 303 530 c 0,44,45
 250 530 250 530 210 506 c 128,-1,46
 170 482 170 482 147.5 442 c 128,-1,47
 125 402 125 402 125 353 c 256,48,49
 125 304 125 304 149 264.5 c 128,-1,50
 173 225 173 225 212.5 202 c 128,-1,51
 252 179 252 179 299 179 c 0,36,37
EndSplineSet
EndChar

StartChar: yen
Encoding: 165 165 103
Width: 600
Flags: W
LayerCount: 2
Fore
SplineSet
288 0 m 1,0,-1
 288 162 l 1,1,-1
 112 162 l 1,2,-1
 112 187 l 1,3,-1
 288 187 l 1,4,-1
 288 298 l 1,5,-1
 112 298 l 1,6,-1
 112 323 l 1,7,-1
 279 323 l 1,8,-1
 40 714 l 1,9,-1
 71 714 l 1,10,-1
 301 336 l 1,11,-1
 529 714 l 1,12,-1
 560 714 l 1,13,-1
 321 323 l 1,14,-1
 489 323 l 1,15,-1
 489 298 l 1,16,-1
 314 298 l 1,17,-1
 314 187 l 1,18,-1
 489 187 l 1,19,-1
 489 162 l 1,20,-1
 314 162 l 1,21,-1
 314 0 l 1,22,-1
 288 0 l 1,0,-1
EndSplineSet
EndChar

StartChar: brokenbar
Encoding: 166 166 104
Width: 600
Flags: W
LayerCount: 2
Fore
SplineSet
287 395 m 1,0,-1
 287 763 l 1,1,-1
 312 763 l 1,2,-1
 312 395 l 1,3,-1
 287 395 l 1,0,-1
287 -251 m 1,4,-1
 287 118 l 1,5,-1
 312 118 l 1,6,-1
 312 -251 l 1,7,-1
 287 -251 l 1,4,-1
EndSplineSet
EndChar

StartChar: section
Encoding: 167 167 105
Width: 600
Flags: W
LayerCount: 2
Fore
SplineSet
293 -1 m 0,0,1
 240 -1 240 -1 196.5 9.5 c 128,-1,2
 153 20 153 20 125 32 c 1,3,-1
 125 61 l 1,4,5
 203 23 203 23 293 23 c 0,6,7
 380 23 380 23 418.5 53.5 c 128,-1,8
 457 84 457 84 457 133 c 0,9,10
 457 168 457 168 436 189.5 c 128,-1,11
 415 211 415 211 380.5 224.5 c 128,-1,12
 346 238 346 238 303 251 c 0,13,14
 258 264 258 264 221.5 279.5 c 128,-1,15
 185 295 185 295 163.5 321.5 c 128,-1,16
 142 348 142 348 142 395 c 0,17,18
 142 444 142 444 172 475 c 128,-1,19
 202 506 202 506 250 522 c 1,20,21
 206 538 206 538 177 561.5 c 128,-1,22
 148 585 148 585 148 633 c 0,23,24
 148 692 148 692 195 725.5 c 128,-1,25
 242 759 242 759 323 759 c 0,26,27
 368 759 368 759 407 751 c 128,-1,28
 446 743 446 743 477 730 c 1,29,-1
 466 706 l 1,30,31
 439 720 439 720 400 727.5 c 128,-1,32
 361 735 361 735 323 735 c 0,33,34
 253 735 253 735 213.5 709.5 c 128,-1,35
 174 684 174 684 174 633 c 0,36,37
 174 598 174 598 194 580 c 128,-1,38
 214 562 214 562 246.5 551 c 128,-1,39
 279 540 279 540 318 527 c 0,40,41
 360 514 360 514 399.5 498.5 c 128,-1,42
 439 483 439 483 464 456.5 c 128,-1,43
 489 430 489 430 489 381 c 0,44,45
 489 333 489 333 463 298.5 c 128,-1,46
 437 264 437 264 397 244 c 1,47,48
 434 228 434 228 458.5 203 c 128,-1,49
 483 178 483 178 483 133 c 0,50,51
 483 72 483 72 435.5 35.5 c 128,-1,52
 388 -1 388 -1 293 -1 c 0,0,1
371 255 m 1,53,54
 413 272 413 272 438 305 c 128,-1,55
 463 338 463 338 463 381 c 0,56,57
 463 436 463 436 416.5 463 c 128,-1,58
 370 490 370 490 285 511 c 1,59,60
 236 498 236 498 202 471 c 128,-1,61
 168 444 168 444 168 395 c 0,62,63
 168 356 168 356 187.5 334 c 128,-1,64
 207 312 207 312 239.5 299 c 128,-1,65
 272 286 272 286 311 274 c 2,66,-1
 371 255 l 1,53,54
EndSplineSet
EndChar

StartChar: dieresis
Encoding: 168 168 106
Width: 600
GlyphClass: 2
Flags: W
AnchorPoint: "Anchor-13" 300 638 basemark 0
AnchorPoint: "Anchor-13" 300 528 mark 0
AnchorPoint: "Anchor-8" 300 528 mark 0
AnchorPoint: "Anchor-3" 300 528 mark 0
LayerCount: 2
Fore
SplineSet
398 643 m 0,0,1
 382 643 382 643 376.5 653 c 128,-1,2
 371 663 371 663 371 678 c 0,3,4
 371 692 371 692 376.5 702.5 c 128,-1,5
 382 713 382 713 398 713 c 0,6,7
 415 713 415 713 419.5 702 c 128,-1,8
 424 691 424 691 424 678 c 0,9,10
 424 664 424 664 419.5 653.5 c 128,-1,11
 415 643 415 643 398 643 c 0,0,1
201 643 m 0,12,13
 185 643 185 643 180 653 c 128,-1,14
 175 663 175 663 175 678 c 256,15,16
 175 693 175 693 180 703 c 128,-1,17
 185 713 185 713 201 713 c 0,18,19
 219 713 219 713 223.5 702 c 128,-1,20
 228 691 228 691 228 678 c 256,21,22
 228 665 228 665 223.5 654 c 128,-1,23
 219 643 219 643 201 643 c 0,12,13
EndSplineSet
EndChar

StartChar: copyright
Encoding: 169 169 107
Width: 600
Flags: W
LayerCount: 2
Fore
SplineSet
296 100 m 256,0,1
 222 100 222 100 164.5 132.5 c 128,-1,2
 107 165 107 165 73.5 223 c 128,-1,3
 40 281 40 281 40 357 c 0,4,5
 40 436 40 436 75 494.5 c 128,-1,6
 110 553 110 553 169.5 585.5 c 128,-1,7
 229 618 229 618 301 618 c 0,8,9
 376 618 376 618 434.5 584 c 128,-1,10
 493 550 493 550 526.5 491 c 128,-1,11
 560 432 560 432 560 358 c 0,12,13
 560 281 560 281 524.5 223 c 128,-1,14
 489 165 489 165 429.5 132.5 c 128,-1,15
 370 100 370 100 296 100 c 256,0,1
298 123 m 0,16,17
 366 123 366 123 420.5 153 c 128,-1,18
 475 183 475 183 506 236 c 128,-1,19
 537 289 537 289 537 358 c 0,20,21
 537 426 537 426 506.5 479.5 c 128,-1,22
 476 533 476 533 422.5 564 c 128,-1,23
 369 595 369 595 300 595 c 0,24,25
 233 595 233 595 179.5 565 c 128,-1,26
 126 535 126 535 94.5 481.5 c 128,-1,27
 63 428 63 428 63 359 c 0,28,29
 63 292 63 292 93 238.5 c 128,-1,30
 123 185 123 185 175.5 154 c 128,-1,31
 228 123 228 123 298 123 c 0,16,17
315 203 m 0,32,33
 247 203 247 203 205.5 242 c 128,-1,34
 164 281 164 281 164 356 c 0,35,36
 164 430 164 430 205.5 472.5 c 128,-1,37
 247 515 247 515 323 515 c 0,38,39
 345 515 345 515 367 511 c 128,-1,40
 389 507 389 507 406 497 c 1,41,-1
 398 477 l 1,42,43
 363 493 363 493 321 493 c 0,44,45
 258 493 258 493 223 456.5 c 128,-1,46
 188 420 188 420 188 356 c 0,47,48
 188 291 188 291 224 258 c 128,-1,49
 260 225 260 225 321 225 c 0,50,51
 337 225 337 225 355.5 228 c 128,-1,52
 374 231 374 231 395 239 c 1,53,-1
 395 218 l 1,54,55
 377 211 377 211 357.5 207 c 128,-1,56
 338 203 338 203 315 203 c 0,32,33
EndSplineSet
EndChar

StartChar: ordfeminine
Encoding: 170 170 108
Width: 600
Flags: W
LayerCount: 2
Fore
SplineSet
280 393 m 0,0,1
 234 393 234 393 204 415.5 c 128,-1,2
 174 438 174 438 174 485 c 0,3,4
 174 534 174 534 212 558.5 c 128,-1,5
 250 583 250 583 324 585 c 2,6,-1
 399 587 l 1,7,-1
 399 618 l 2,8,9
 399 659 399 659 372.5 679 c 128,-1,10
 346 699 346 699 299 699 c 0,11,12
 250 699 250 699 204 674 c 1,13,-1
 194 696 l 1,14,15
 217 707 217 707 243.5 714.5 c 128,-1,16
 270 722 270 722 302 722 c 0,17,18
 361 722 361 722 392 696 c 128,-1,19
 423 670 423 670 423 622 c 2,20,-1
 423 397 l 1,21,-1
 402 397 l 1,22,-1
 398 447 l 1,23,24
 385 425 385 425 355 409 c 128,-1,25
 325 393 325 393 280 393 c 0,0,1
284 416 m 0,26,27
 341 416 341 416 370 444.5 c 128,-1,28
 399 473 399 473 399 522 c 2,29,-1
 399 565 l 1,30,-1
 323 563 l 2,31,32
 199 560 199 560 199 486 c 0,33,34
 199 450 199 450 222.5 433 c 128,-1,35
 246 416 246 416 284 416 c 0,26,27
EndSplineSet
EndChar

StartChar: guillemotleft
Encoding: 171 171 109
Width: 600
Flags: W
LayerCount: 2
Fore
SplineSet
442 82 m 1,0,-1
 290 267 l 1,1,-1
 290 280 l 1,2,-1
 442 467 l 1,3,-1
 458 455 l 1,4,-1
 321 274 l 1,5,-1
 458 93 l 1,6,-1
 442 82 l 1,0,-1
273 82 m 1,7,-1
 121 267 l 1,8,-1
 121 280 l 1,9,-1
 273 467 l 1,10,-1
 289 455 l 1,11,-1
 152 274 l 1,12,-1
 289 93 l 1,13,-1
 273 82 l 1,7,-1
EndSplineSet
EndChar

StartChar: logicalnot
Encoding: 172 172 110
Width: 600
Flags: W
LayerCount: 2
Fore
SplineSet
474 132 m 1,0,-1
 474 341 l 1,1,-1
 55 341 l 1,2,-1
 55 365 l 1,3,-1
 498 365 l 1,4,-1
 498 132 l 1,5,-1
 474 132 l 1,0,-1
EndSplineSet
EndChar

StartChar: registered
Encoding: 174 174 112
Width: 600
Flags: W
LayerCount: 2
Fore
SplineSet
296 100 m 256,0,1
 222 100 222 100 164.5 132.5 c 128,-1,2
 107 165 107 165 73.5 223 c 128,-1,3
 40 281 40 281 40 357 c 0,4,5
 40 436 40 436 75 494.5 c 128,-1,6
 110 553 110 553 169.5 585.5 c 128,-1,7
 229 618 229 618 301 618 c 0,8,9
 376 618 376 618 434.5 584 c 128,-1,10
 493 550 493 550 526.5 491 c 128,-1,11
 560 432 560 432 560 358 c 0,12,13
 560 281 560 281 524.5 223 c 128,-1,14
 489 165 489 165 429.5 132.5 c 128,-1,15
 370 100 370 100 296 100 c 256,0,1
298 123 m 0,16,17
 366 123 366 123 420.5 153 c 128,-1,18
 475 183 475 183 506 236 c 128,-1,19
 537 289 537 289 537 358 c 0,20,21
 537 426 537 426 506.5 479.5 c 128,-1,22
 476 533 476 533 422.5 564 c 128,-1,23
 369 595 369 595 300 595 c 0,24,25
 233 595 233 595 179.5 565 c 128,-1,26
 126 535 126 535 94.5 481.5 c 128,-1,27
 63 428 63 428 63 359 c 0,28,29
 63 292 63 292 93 238.5 c 128,-1,30
 123 185 123 185 175.5 154 c 128,-1,31
 228 123 228 123 298 123 c 0,16,17
209 190 m 1,32,-1
 209 534 l 1,33,-1
 306 534 l 2,34,35
 356 534 356 534 387.5 511 c 128,-1,36
 419 488 419 488 419 438 c 0,37,38
 419 396 419 396 397.5 373 c 128,-1,39
 376 350 376 350 344 340 c 1,40,-1
 436 190 l 1,41,-1
 409 190 l 1,42,-1
 321 336 l 1,43,-1
 231 336 l 1,44,-1
 231 190 l 1,45,-1
 209 190 l 1,32,-1
231 356 m 1,46,-1
 303 356 l 2,47,48
 344 356 344 356 370 375 c 128,-1,49
 396 394 396 394 396 437 c 0,50,51
 396 478 396 478 371 495 c 128,-1,52
 346 512 346 512 305 512 c 2,53,-1
 231 512 l 1,54,-1
 231 356 l 1,46,-1
EndSplineSet
EndChar

StartChar: overscore
Encoding: 175 175 113
Width: 600
Flags: W
LayerCount: 2
Fore
SplineSet
172 634 m 1,0,-1
 172 658 l 1,1,-1
 427 658 l 1,2,-1
 427 634 l 1,3,-1
 172 634 l 1,0,-1
EndSplineSet
EndChar

StartChar: degree
Encoding: 176 176 114
Width: 600
Flags: W
LayerCount: 2
Fore
SplineSet
301 441 m 0,0,1
 262 441 262 441 230 458 c 128,-1,2
 198 475 198 475 178.5 506.5 c 128,-1,3
 159 538 159 538 159 582 c 256,4,5
 159 626 159 626 178 657.5 c 128,-1,6
 197 689 197 689 229.5 706.5 c 128,-1,7
 262 724 262 724 300 724 c 0,8,9
 339 724 339 724 371 706 c 128,-1,10
 403 688 403 688 422 656 c 128,-1,11
 441 624 441 624 441 581 c 0,12,13
 441 516 441 516 400 478.5 c 128,-1,14
 359 441 359 441 301 441 c 0,0,1
300 464 m 0,15,16
 348 464 348 464 382 496.5 c 128,-1,17
 416 529 416 529 416 582 c 256,18,19
 416 635 416 635 381.5 668 c 128,-1,20
 347 701 347 701 298 701 c 0,21,22
 251 701 251 701 217.5 668.5 c 128,-1,23
 184 636 184 636 184 583 c 256,24,25
 184 530 184 530 217 497 c 128,-1,26
 250 464 250 464 300 464 c 0,15,16
EndSplineSet
EndChar

StartChar: plusminus
Encoding: 177 177 115
Width: 600
Flags: W
LayerCount: 2
Fore
SplineSet
288 123 m 1,0,-1
 288 341 l 1,1,-1
 70 341 l 1,2,-1
 70 365 l 1,3,-1
 288 365 l 1,4,-1
 288 583 l 1,5,-1
 312 583 l 1,6,-1
 312 365 l 1,7,-1
 530 365 l 1,8,-1
 530 341 l 1,9,-1
 312 341 l 1,10,-1
 312 123 l 1,11,-1
 288 123 l 1,0,-1
70 0 m 1,12,-1
 70 24 l 1,13,-1
 530 24 l 1,14,-1
 530 0 l 1,15,-1
 70 0 l 1,12,-1
EndSplineSet
EndChar

StartChar: uni00B2
Encoding: 178 178 116
Width: 600
Flags: W
LayerCount: 2
Fore
SplineSet
157 416 m 1,0,-1
 157 437 l 1,1,-1
 280 563 l 2,2,3
 334 618 334 618 366 657 c 128,-1,4
 398 696 398 696 398 741 c 0,5,6
 398 780 398 780 373 805 c 128,-1,7
 348 830 348 830 299 830 c 0,8,9
 268 830 268 830 241 820 c 128,-1,10
 214 810 214 810 186 789 c 1,11,-1
 173 809 l 1,12,13
 228 855 228 855 299 855 c 0,14,15
 359 855 359 855 392 822.5 c 128,-1,16
 425 790 425 790 425 741 c 0,17,18
 425 706 425 706 409.5 677 c 128,-1,19
 394 648 394 648 365 617 c 128,-1,20
 336 586 336 586 297 546 c 2,21,-1
 194 441 l 1,22,-1
 437 441 l 1,23,-1
 437 416 l 1,24,-1
 157 416 l 1,0,-1
EndSplineSet
EndChar

StartChar: uni00B3
Encoding: 179 179 117
Width: 600
Flags: W
LayerCount: 2
Fore
SplineSet
280 412 m 0,0,1
 246 412 246 412 214 419 c 128,-1,2
 182 426 182 426 156 437 c 1,3,-1
 156 465 l 1,4,5
 186 452 186 452 216 444.5 c 128,-1,6
 246 437 246 437 280 437 c 0,7,8
 342 437 342 437 375 464 c 128,-1,9
 408 491 408 491 408 539 c 0,10,11
 408 630 408 630 286 630 c 2,12,-1
 219 630 l 1,13,-1
 219 652 l 1,14,-1
 286 652 l 2,15,16
 339 652 339 652 368.5 677 c 128,-1,17
 398 702 398 702 398 744 c 0,18,19
 398 784 398 784 372 805 c 128,-1,20
 346 826 346 826 297 826 c 0,21,22
 262 826 262 826 233 815.5 c 128,-1,23
 204 805 204 805 175 788 c 1,24,-1
 165 810 l 1,25,26
 193 829 193 829 226.5 840 c 128,-1,27
 260 851 260 851 298 851 c 0,28,29
 356 851 356 851 390 823.5 c 128,-1,30
 424 796 424 796 424 746 c 0,31,32
 424 705 424 705 402.5 678.5 c 128,-1,33
 381 652 381 652 348 644 c 1,34,-1
 348 642 l 1,35,36
 434 623 434 623 434 538 c 0,37,38
 434 478 434 478 393.5 445 c 128,-1,39
 353 412 353 412 280 412 c 0,0,1
EndSplineSet
EndChar

StartChar: acute
Encoding: 180 180 118
Width: 600
Flags: W
LayerCount: 2
Fore
SplineSet
274 606 m 1,0,-1
 274 612 l 1,1,2
 296 632 296 632 323 660 c 128,-1,3
 350 688 350 688 374 716 c 128,-1,4
 398 744 398 744 413 766 c 1,5,-1
 443 766 l 1,6,-1
 443 759 l 1,7,8
 417 725 417 725 376 682 c 128,-1,9
 335 639 335 639 295 606 c 1,10,-1
 274 606 l 1,0,-1
EndSplineSet
EndChar

StartChar: uni00B5
Encoding: 181 181 119
Width: 600
GlyphClass: 2
Flags: W
AnchorPoint: "Anchor-4" 580 528 basechar 0
AnchorPoint: "Anchor-3" 300 528 basechar 0
AnchorPoint: "Anchor-2" 540 10 basechar 0
AnchorPoint: "Anchor-0" 300 0 basechar 0
LayerCount: 2
Fore
SplineSet
100 -240 m 1,0,-1
 100 528 l 1,1,-1
 126 528 l 1,2,-1
 126 198 l 2,3,4
 126 103 126 103 166 59 c 128,-1,5
 206 15 206 15 282 15 c 0,6,7
 364 15 364 15 416.5 66.5 c 128,-1,8
 469 118 469 118 469 226 c 2,9,-1
 469 528 l 1,10,-1
 495 528 l 1,11,-1
 495 0 l 1,12,-1
 473 0 l 1,13,-1
 470 112 l 1,14,-1
 468 112 l 1,15,16
 457 82 457 82 434 54 c 128,-1,17
 411 26 411 26 373.5 8 c 128,-1,18
 336 -10 336 -10 281 -10 c 0,19,20
 170 -10 170 -10 126 71 c 1,21,-1
 126 -240 l 1,22,-1
 100 -240 l 1,0,-1
EndSplineSet
EndChar

StartChar: paragraph
Encoding: 182 182 120
Width: 600
Flags: W
LayerCount: 2
Fore
SplineSet
280 -127 m 1,0,-1
 280 355 l 1,1,2
 265 350 265 350 251.5 348 c 128,-1,3
 238 346 238 346 219 346 c 0,4,5
 170 346 170 346 139 373.5 c 128,-1,6
 108 401 108 401 92.5 449 c 128,-1,7
 77 497 77 497 77 556 c 0,8,9
 77 652 77 652 115.5 706 c 128,-1,10
 154 760 154 760 239 760 c 2,11,-1
 483 760 l 1,12,-1
 483 -127 l 1,13,-1
 458 -127 l 1,14,-1
 458 734 l 1,15,-1
 305 734 l 1,16,-1
 305 -127 l 1,17,-1
 280 -127 l 1,0,-1
EndSplineSet
EndChar

StartChar: cedilla
Encoding: 184 184 122
Width: 600
Flags: W
LayerCount: 2
Fore
SplineSet
286 -240 m 0,0,1
 258 -240 258 -240 235 -234 c 1,2,-1
 235 -210 l 1,3,4
 248 -214 248 -214 260.5 -215 c 128,-1,5
 273 -216 273 -216 283 -216 c 0,6,7
 380 -216 380 -216 380 -147 c 0,8,9
 380 -115 380 -115 355.5 -100 c 128,-1,10
 331 -85 331 -85 277 -85 c 1,11,-1
 320 0 l 1,12,-1
 346 0 l 1,13,-1
 313 -65 l 1,14,15
 355 -67 355 -67 380 -87.5 c 128,-1,16
 405 -108 405 -108 405 -146 c 0,17,18
 405 -189 405 -189 373 -214.5 c 128,-1,19
 341 -240 341 -240 286 -240 c 0,0,1
EndSplineSet
EndChar

StartChar: uni00B9
Encoding: 185 185 123
Width: 600
Flags: W
LayerCount: 2
Fore
SplineSet
190 416 m 1,0,-1
 190 435 l 1,1,-1
 297 440 l 1,2,-1
 297 696 l 2,3,4
 297 724 297 724 297 756 c 128,-1,5
 297 788 297 788 298 815 c 1,6,7
 281 804 281 804 265 795.5 c 128,-1,8
 249 787 249 787 225 774 c 2,9,-1
 178 749 l 1,10,-1
 167 771 l 1,11,-1
 303 844 l 1,12,-1
 323 844 l 1,13,-1
 323 440 l 1,14,-1
 425 435 l 1,15,-1
 425 416 l 1,16,-1
 190 416 l 1,0,-1
EndSplineSet
EndChar

StartChar: ordmasculine
Encoding: 186 186 124
Width: 600
Flags: W
LayerCount: 2
Fore
SplineSet
300 394 m 0,0,1
 236 394 236 394 203 441 c 128,-1,2
 170 488 170 488 170 559 c 0,3,4
 170 635 170 635 206 679.5 c 128,-1,5
 242 724 242 724 303 724 c 0,6,7
 348 724 348 724 376 702 c 128,-1,8
 404 680 404 680 417.5 642.5 c 128,-1,9
 431 605 431 605 431 559 c 0,10,11
 431 489 431 489 398.5 441.5 c 128,-1,12
 366 394 366 394 300 394 c 0,0,1
300 418 m 0,13,14
 353 418 353 418 378.5 458.5 c 128,-1,15
 404 499 404 499 404 559 c 0,16,17
 404 597 404 597 393.5 629 c 128,-1,18
 383 661 383 661 360.5 680.5 c 128,-1,19
 338 700 338 700 303 700 c 0,20,21
 254 700 254 700 225.5 662 c 128,-1,22
 197 624 197 624 197 559 c 0,23,24
 197 498 197 498 222.5 458 c 128,-1,25
 248 418 248 418 300 418 c 0,13,14
EndSplineSet
EndChar

StartChar: AE
Encoding: 198 198 136
Width: 600
GlyphClass: 2
Flags: W
AnchorPoint: "Anchor-3" 360 714 basechar 0
AnchorPoint: "Anchor-0" 300 0 basechar 0
LayerCount: 2
Fore
SplineSet
20 0 m 1,0,-1
 274 714 l 1,1,-1
 585 714 l 1,2,-1
 585 689 l 1,3,-1
 343 689 l 1,4,-1
 343 389 l 1,5,-1
 569 389 l 1,6,-1
 569 364 l 1,7,-1
 343 364 l 1,8,-1
 343 25 l 1,9,-1
 585 25 l 1,10,-1
 585 0 l 1,11,-1
 317 0 l 1,12,-1
 317 275 l 1,13,-1
 145 275 l 1,14,-1
 48 0 l 1,15,-1
 20 0 l 1,0,-1
290 689 m 1,16,-1
 153 300 l 1,17,-1
 317 300 l 1,18,-1
 317 689 l 1,19,-1
 290 689 l 1,16,-1
EndSplineSet
Substitution2: "'c2sc' Capitals to Small Capitals lookup 32 subtable" ae.sc
Substitution2: "'aalt' Access All Alternates lookup 0 subtable" ae.sc
EndChar

StartChar: Eth
Encoding: 208 208 146
Width: 600
GlyphClass: 2
Flags: W
AnchorPoint: "Anchor-4" 610 714 basechar 0
AnchorPoint: "Anchor-3" 300 714 basechar 0
AnchorPoint: "Anchor-1" 294 357 basechar 0
AnchorPoint: "Anchor-0" 300 0 basechar 0
LayerCount: 2
Fore
SplineSet
105 0 m 1,0,-1
 105 353 l 1,1,-1
 0 353 l 1,2,-1
 0 378 l 1,3,-1
 105 378 l 1,4,-1
 105 714 l 1,5,-1
 247 714 l 2,6,7
 403 714 403 714 479 624.5 c 128,-1,8
 555 535 555 535 555 363 c 0,9,10
 555 185 555 185 475 92.5 c 128,-1,11
 395 0 395 0 238 0 c 2,12,-1
 105 0 l 1,0,-1
131 25 m 1,13,-1
 227 25 l 2,14,15
 379 25 379 25 453.5 108.5 c 128,-1,16
 528 192 528 192 528 362 c 0,17,18
 528 522 528 522 459 605.5 c 128,-1,19
 390 689 390 689 237 689 c 2,20,-1
 131 689 l 1,21,-1
 131 378 l 1,22,-1
 275 378 l 1,23,-1
 275 353 l 1,24,-1
 131 353 l 1,25,-1
 131 25 l 1,13,-1
EndSplineSet
Substitution2: "'c2sc' Capitals to Small Capitals lookup 32 subtable" eth.sc
Substitution2: "'aalt' Access All Alternates lookup 0 subtable" eth.sc
EndChar

StartChar: multiply
Encoding: 215 215 153
Width: 600
Flags: W
LayerCount: 2
Fore
SplineSet
103 139 m 1,0,-1
 86 156 l 1,1,-1
 283 353 l 1,2,-1
 86 550 l 1,3,-1
 103 567 l 1,4,-1
 300 370 l 1,5,-1
 497 567 l 1,6,-1
 514 550 l 1,7,-1
 317 353 l 1,8,-1
 514 156 l 1,9,-1
 497 139 l 1,10,-1
 300 336 l 1,11,-1
 103 139 l 1,0,-1
EndSplineSet
EndChar

StartChar: Oslash
Encoding: 216 216 154
Width: 600
GlyphClass: 2
Flags: W
AnchorPoint: "Anchor-4" 600 714 basechar 0
AnchorPoint: "Anchor-3" 300 714 basechar 0
AnchorPoint: "Anchor-2" 302 10 basechar 0
AnchorPoint: "Anchor-1" 300 357 basechar 0
AnchorPoint: "Anchor-0" 300 0 basechar 0
LayerCount: 2
Fore
SplineSet
91 -28 m 1,0,-1
 69 -15 l 1,1,-1
 124 81 l 1,2,3
 88 132 88 132 71.5 204.5 c 128,-1,4
 55 277 55 277 55 360 c 0,5,6
 55 530 55 530 119.5 627 c 128,-1,7
 184 724 184 724 303 724 c 0,8,9
 351 724 351 724 389 708 c 128,-1,10
 427 692 427 692 456 661 c 1,11,-1
 499 737 l 1,12,-1
 520 724 l 1,13,-1
 473 641 l 1,14,15
 509 593 509 593 527 521.5 c 128,-1,16
 545 450 545 450 545 360 c 0,17,18
 545 257 545 257 520 173 c 128,-1,19
 495 89 495 89 441.5 39.5 c 128,-1,20
 388 -10 388 -10 301 -10 c 0,21,22
 249 -10 249 -10 209.5 8.5 c 128,-1,23
 170 27 170 27 141 60 c 1,24,-1
 91 -28 l 1,0,-1
81 358 m 0,25,26
 81 279 81 279 95.5 215 c 128,-1,27
 110 151 110 151 138 106 c 1,28,-1
 442 638 l 1,29,30
 389 699 389 699 302 699 c 0,31,32
 230 699 230 699 180.5 656.5 c 128,-1,33
 131 614 131 614 106 537.5 c 128,-1,34
 81 461 81 461 81 358 c 0,25,26
302 15 m 0,35,36
 410 15 410 15 464 107 c 128,-1,37
 518 199 518 199 518 358 c 0,38,39
 518 528 518 528 459 616 c 1,40,-1
 155 83 l 1,41,42
 182 50 182 50 218.5 32.5 c 128,-1,43
 255 15 255 15 302 15 c 0,35,36
EndSplineSet
Substitution2: "'c2sc' Capitals to Small Capitals lookup 32 subtable" oslash.sc
Substitution2: "'aalt' Access All Alternates lookup 0 subtable" oslash.sc
EndChar

StartChar: Thorn
Encoding: 222 222 160
Width: 600
GlyphClass: 2
Flags: W
AnchorPoint: "Anchor-3" 300 714 basechar 0
AnchorPoint: "Anchor-0" 300 0 basechar 0
LayerCount: 2
Fore
SplineSet
115 0 m 1,0,-1
 115 714 l 1,1,-1
 141 714 l 1,2,-1
 141 572 l 1,3,-1
 303 572 l 2,4,5
 421 572 421 572 480.5 524.5 c 128,-1,6
 540 477 540 477 540 372 c 0,7,8
 540 262 540 262 470 212.5 c 128,-1,9
 400 163 400 163 278 163 c 2,10,-1
 141 163 l 1,11,-1
 141 0 l 1,12,-1
 115 0 l 1,0,-1
141 188 m 1,13,-1
 274 188 l 2,14,15
 346 188 346 188 400 205 c 128,-1,16
 454 222 454 222 483.5 262 c 128,-1,17
 513 302 513 302 513 372 c 0,18,19
 513 465 513 465 460.5 506 c 128,-1,20
 408 547 408 547 296 547 c 2,21,-1
 141 547 l 1,22,-1
 141 188 l 1,13,-1
EndSplineSet
Substitution2: "'c2sc' Capitals to Small Capitals lookup 32 subtable" thorn.sc
Substitution2: "'aalt' Access All Alternates lookup 0 subtable" thorn.sc
EndChar

StartChar: germandbls
Encoding: 223 223 161
Width: 600
GlyphClass: 2
Flags: W
AnchorPoint: "Anchor-3" 300 765 basechar 0
AnchorPoint: "Anchor-0" 300 0 basechar 0
LayerCount: 2
Fore
SplineSet
357 -10 m 0,0,1
 310 -10 310 -10 279.5 -2 c 128,-1,2
 249 6 249 6 223 17 c 1,3,-1
 223 45 l 1,4,5
 256 30 256 30 288 22.5 c 128,-1,6
 320 15 320 15 357 15 c 0,7,8
 425 15 425 15 460.5 47.5 c 128,-1,9
 496 80 496 80 496 134 c 0,10,11
 496 172 496 172 483.5 198.5 c 128,-1,12
 471 225 471 225 449.5 244.5 c 128,-1,13
 428 264 428 264 402 282 c 0,14,15
 373 302 373 302 348.5 321 c 128,-1,16
 324 340 324 340 309.5 363 c 128,-1,17
 295 386 295 386 295 420 c 0,18,19
 295 456 295 456 309 478 c 128,-1,20
 323 500 323 500 343.5 515.5 c 128,-1,21
 364 531 364 531 384 545.5 c 128,-1,22
 404 560 404 560 418 581 c 128,-1,23
 432 602 432 602 432 636 c 0,24,25
 432 684 432 684 399 712 c 128,-1,26
 366 740 366 740 302 740 c 0,27,28
 216 740 216 740 175.5 693 c 128,-1,29
 135 646 135 646 135 555 c 2,30,-1
 135 0 l 1,31,-1
 109 0 l 1,32,-1
 109 563 l 2,33,34
 109 660 109 660 158.5 712.5 c 128,-1,35
 208 765 208 765 302 765 c 0,36,37
 378 765 378 765 418.5 729.5 c 128,-1,38
 459 694 459 694 459 636 c 0,39,40
 459 598 459 598 445 575 c 128,-1,41
 431 552 431 552 410.5 536.5 c 128,-1,42
 390 521 390 521 370 506 c 128,-1,43
 350 491 350 491 336 471.5 c 128,-1,44
 322 452 322 452 322 420 c 0,45,46
 322 380 322 380 347 355.5 c 128,-1,47
 372 331 372 331 416 302 c 0,48,49
 444 282 444 282 468.5 261 c 128,-1,50
 493 240 493 240 508 210 c 128,-1,51
 523 180 523 180 523 134 c 0,52,53
 523 96 523 96 505 63 c 128,-1,54
 487 30 487 30 450 10 c 128,-1,55
 413 -10 413 -10 357 -10 c 0,0,1
EndSplineSet
Substitution2: "'smcp' Lowercase to Small Capitals lookup 33 subtable" germandbls.sc
Substitution2: "'aalt' Access All Alternates lookup 0 subtable" germandbls.sc
EndChar

StartChar: ae
Encoding: 230 230 168
Width: 600
GlyphClass: 2
Flags: W
AnchorPoint: "Anchor-3" 300 528 basechar 0
AnchorPoint: "Anchor-0" 300 0 basechar 0
LayerCount: 2
Fore
SplineSet
154 -10 m 0,0,1
 92 -10 92 -10 62.5 29 c 128,-1,2
 33 68 33 68 33 128 c 0,3,4
 33 210 33 210 84.5 247 c 128,-1,5
 136 284 136 284 225 291 c 2,6,-1
 282 296 l 1,7,-1
 282 362 l 2,8,9
 282 440 282 440 254 476 c 128,-1,10
 226 512 226 512 173 512 c 0,11,12
 150 512 150 512 123 504.5 c 128,-1,13
 96 497 96 497 66 478 c 1,14,-1
 56 502 l 1,15,16
 82 518 82 518 112 527.5 c 128,-1,17
 142 537 142 537 174 537 c 0,18,19
 232 537 232 537 265.5 502.5 c 128,-1,20
 299 468 299 468 304 395 c 1,21,22
 315 460 315 460 348 499 c 128,-1,23
 381 538 381 538 435 538 c 0,24,25
 504 538 504 538 534.5 476 c 128,-1,26
 565 414 565 414 565 297 c 2,27,-1
 565 270 l 1,28,-1
 308 270 l 1,29,30
 308 146 308 146 344 80.5 c 128,-1,31
 380 15 380 15 454 15 c 0,32,33
 474 15 474 15 495 21.5 c 128,-1,34
 516 28 516 28 547 50 c 1,35,-1
 547 22 l 1,36,37
 522 5 522 5 500 -2.5 c 128,-1,38
 478 -10 478 -10 452 -10 c 0,39,40
 383 -10 383 -10 348 33 c 128,-1,41
 313 76 313 76 299 141 c 1,42,43
 288 76 288 76 253 33 c 128,-1,44
 218 -10 218 -10 154 -10 c 0,0,1
309 295 m 1,45,-1
 539 295 l 1,46,47
 539 405 539 405 514 459 c 128,-1,48
 489 513 489 513 434 513 c 0,49,50
 376 513 376 513 345 453.5 c 128,-1,51
 314 394 314 394 309 295 c 1,45,-1
154 15 m 0,52,53
 198 15 198 15 226 41.5 c 128,-1,54
 254 68 254 68 268 110.5 c 128,-1,55
 282 153 282 153 282 200 c 2,56,-1
 282 271 l 1,57,-1
 226 267 l 2,58,59
 144 261 144 261 102.5 227.5 c 128,-1,60
 61 194 61 194 61 127 c 0,61,62
 61 78 61 78 84 46.5 c 128,-1,63
 107 15 107 15 154 15 c 0,52,53
EndSplineSet
Substitution2: "'smcp' Lowercase to Small Capitals lookup 33 subtable" ae.sc
Substitution2: "'aalt' Access All Alternates lookup 0 subtable" ae.sc
EndChar

StartChar: eth
Encoding: 240 240 178
Width: 600
GlyphClass: 2
Flags: W
AnchorPoint: "Anchor-4" 580 760 basechar 0
AnchorPoint: "Anchor-3" 300 757 basechar 0
AnchorPoint: "Anchor-1" 300 264 basechar 0
AnchorPoint: "Anchor-0" 300 0 basechar 0
LayerCount: 2
Fore
SplineSet
301 -10 m 0,0,1
 229 -10 229 -10 177.5 19 c 128,-1,2
 126 48 126 48 98 100 c 128,-1,3
 70 152 70 152 70 222 c 0,4,5
 70 297 70 297 101 351.5 c 128,-1,6
 132 406 132 406 185.5 435.5 c 128,-1,7
 239 465 239 465 307 465 c 0,8,9
 374 465 374 465 420 439 c 128,-1,10
 466 413 466 413 491 378 c 1,11,-1
 493 378 l 1,12,13
 459 549 459 549 341 656 c 1,14,-1
 211 578 l 1,15,-1
 198 598 l 1,16,-1
 321 672 l 1,17,18
 272 711 272 711 214 736 c 1,19,-1
 227 757 l 1,20,21
 260 742 260 742 288.5 724 c 128,-1,22
 317 706 317 706 342 685 c 1,23,-1
 453 752 l 1,24,-1
 466 731 l 1,25,-1
 361 668 l 1,26,27
 421 612 421 612 458.5 543.5 c 128,-1,28
 496 475 496 475 513 403 c 128,-1,29
 530 331 530 331 530 264 c 0,30,31
 530 137 530 137 472.5 63.5 c 128,-1,32
 415 -10 415 -10 301 -10 c 0,0,1
297 15 m 0,33,34
 392 15 392 15 447.5 79.5 c 128,-1,35
 503 144 503 144 503 252 c 0,36,37
 503 296 503 296 484.5 339.5 c 128,-1,38
 466 383 466 383 424 411.5 c 128,-1,39
 382 440 382 440 312 440 c 0,40,41
 249 440 249 440 200.5 414.5 c 128,-1,42
 152 389 152 389 124.5 340.5 c 128,-1,43
 97 292 97 292 97 223 c 0,44,45
 97 156 97 156 123.5 109.5 c 128,-1,46
 150 63 150 63 195 39 c 128,-1,47
 240 15 240 15 297 15 c 0,33,34
EndSplineSet
Substitution2: "'smcp' Lowercase to Small Capitals lookup 33 subtable" eth.sc
Substitution2: "'aalt' Access All Alternates lookup 0 subtable" eth.sc
EndChar

StartChar: divide
Encoding: 247 247 185
Width: 600
Flags: W
LayerCount: 2
Fore
SplineSet
299 500 m 0,0,1
 284 500 284 500 279 509 c 128,-1,2
 274 518 274 518 274 531 c 0,3,4
 274 543 274 543 279 552.5 c 128,-1,5
 284 562 284 562 299 562 c 0,6,7
 317 562 317 562 321.5 552.5 c 128,-1,8
 326 543 326 543 326 531 c 0,9,10
 326 518 326 518 321.5 509 c 128,-1,11
 317 500 317 500 299 500 c 0,0,1
70 341 m 1,12,-1
 70 365 l 1,13,-1
 530 365 l 1,14,-1
 530 341 l 1,15,-1
 70 341 l 1,12,-1
299 144 m 0,16,17
 284 144 284 144 279 153 c 128,-1,18
 274 162 274 162 274 175 c 0,19,20
 274 187 274 187 279 196.5 c 128,-1,21
 284 206 284 206 299 206 c 0,22,23
 317 206 317 206 321.5 196.5 c 128,-1,24
 326 187 326 187 326 175 c 0,25,26
 326 162 326 162 321.5 153 c 128,-1,27
 317 144 317 144 299 144 c 0,16,17
EndSplineSet
EndChar

StartChar: oslash
Encoding: 248 248 186
Width: 600
GlyphClass: 2
Flags: W
AnchorPoint: "Anchor-4" 580 528 basechar 0
AnchorPoint: "Anchor-3" 300 528 basechar 0
AnchorPoint: "Anchor-2" 300 10 basechar 0
AnchorPoint: "Anchor-1" 300 264 basechar 0
AnchorPoint: "Anchor-0" 300 0 basechar 0
LayerCount: 2
Fore
SplineSet
87 -27 m 1,0,-1
 68 -11 l 1,1,-1
 129 65 l 1,2,3
 99 102 99 102 84.5 153 c 128,-1,4
 70 204 70 204 70 264 c 0,5,6
 70 390 70 390 132 463.5 c 128,-1,7
 194 537 194 537 305 537 c 0,8,9
 357 537 357 537 395.5 521 c 128,-1,10
 434 505 434 505 461 477 c 1,11,-1
 524 555 l 1,12,-1
 543 539 l 1,13,-1
 478 458 l 1,14,15
 505 421 505 421 517.5 372 c 128,-1,16
 530 323 530 323 530 267 c 0,17,18
 530 188 530 188 505 125.5 c 128,-1,19
 480 63 480 63 429 26.5 c 128,-1,20
 378 -10 378 -10 300 -10 c 0,21,22
 251 -10 251 -10 212.5 5 c 128,-1,23
 174 20 174 20 146 47 c 1,24,-1
 87 -27 l 1,0,-1
97 263 m 0,25,26
 97 209 97 209 109 163.5 c 128,-1,27
 121 118 121 118 146 86 c 1,28,-1
 445 457 l 1,29,30
 421 483 421 483 386.5 497.5 c 128,-1,31
 352 512 352 512 305 512 c 0,32,33
 207 512 207 512 152 446.5 c 128,-1,34
 97 381 97 381 97 263 c 0,25,26
300 15 m 0,35,36
 370 15 370 15 415 47 c 128,-1,37
 460 79 460 79 481.5 135.5 c 128,-1,38
 503 192 503 192 503 265 c 0,39,40
 503 315 503 315 493 359 c 128,-1,41
 483 403 483 403 460 436 c 1,42,-1
 162 67 l 1,43,44
 187 42 187 42 221.5 28.5 c 128,-1,45
 256 15 256 15 300 15 c 0,35,36
EndSplineSet
Substitution2: "'smcp' Lowercase to Small Capitals lookup 33 subtable" oslash.sc
Substitution2: "'aalt' Access All Alternates lookup 0 subtable" oslash.sc
EndChar

StartChar: thorn
Encoding: 254 254 192
Width: 600
GlyphClass: 2
Flags: W
AnchorPoint: "Anchor-3" 320 714 basechar 0
AnchorPoint: "Anchor-0" 320 -240 basechar 0
LayerCount: 2
Fore
SplineSet
105 -240 m 1,0,-1
 105 714 l 1,1,-1
 131 714 l 1,2,-1
 131 466 l 2,3,4
 131 432 131 432 128 399 c 1,5,-1
 131 399 l 1,6,7
 142 434 142 434 167 465.5 c 128,-1,8
 192 497 192 497 232 517 c 128,-1,9
 272 537 272 537 328 537 c 0,10,11
 427 537 427 537 478.5 468.5 c 128,-1,12
 530 400 530 400 530 271 c 0,13,14
 530 135 530 135 474 62.5 c 128,-1,15
 418 -10 418 -10 317 -10 c 0,16,17
 238 -10 238 -10 193 28 c 128,-1,18
 148 66 148 66 131 119 c 1,19,-1
 129 119 l 1,20,21
 130 85 130 85 130.5 50.5 c 128,-1,22
 131 16 131 16 131 -15 c 2,23,-1
 131 -240 l 1,24,-1
 105 -240 l 1,0,-1
317 15 m 0,25,26
 406 15 406 15 454.5 78.5 c 128,-1,27
 503 142 503 142 503 272 c 0,28,29
 503 512 503 512 328 512 c 0,30,31
 234 512 234 512 182.5 447 c 128,-1,32
 131 382 131 382 131 265 c 2,33,-1
 131 262 l 2,34,35
 131 135 131 135 181.5 75 c 128,-1,36
 232 15 232 15 317 15 c 0,25,26
EndSplineSet
Substitution2: "'smcp' Lowercase to Small Capitals lookup 33 subtable" thorn.sc
Substitution2: "'aalt' Access All Alternates lookup 0 subtable" thorn.sc
EndChar

StartChar: dcaron
Encoding: 271 271 209
Width: 600
GlyphClass: 2
Flags: W
AnchorPoint: "Anchor-4" 580 760 basechar 0
AnchorPoint: "Anchor-3" 320 760 basechar 0
AnchorPoint: "Anchor-1" 266 264 basechar 0
AnchorPoint: "Anchor-0" 271 0 basechar 0
LayerCount: 2
Fore
SplineSet
253 -10 m 0,0,1
 155 -10 155 -10 107.5 59 c 128,-1,2
 60 128 60 128 60 254 c 0,3,4
 60 391 60 391 112.5 464 c 128,-1,5
 165 537 165 537 260 537 c 0,6,7
 309 537 309 537 342.5 519 c 128,-1,8
 376 501 376 501 397 472 c 128,-1,9
 418 443 418 443 429 409 c 1,10,-1
 431 409 l 1,11,12
 430 443 430 443 429.5 477.5 c 128,-1,13
 429 512 429 512 429 543 c 2,14,-1
 429 760 l 1,15,-1
 455 760 l 1,16,-1
 455 0 l 1,17,-1
 433 0 l 1,18,-1
 431 113 l 1,19,-1
 429 113 l 1,20,21
 409 60 409 60 367.5 25 c 128,-1,22
 326 -10 326 -10 253 -10 c 0,0,1
532 600 m 1,23,-1
 532 606 l 1,24,25
 540 621 540 621 550 649.5 c 128,-1,26
 560 678 560 678 568 708 c 128,-1,27
 576 738 576 738 579 760 c 1,28,-1
 608 760 l 1,29,-1
 608 754 l 1,30,31
 599 715 599 715 584.5 675 c 128,-1,32
 570 635 570 635 549 600 c 1,33,-1
 532 600 l 1,23,-1
256 15 m 0,34,35
 349 15 349 15 389 81 c 128,-1,36
 429 147 429 147 429 263 c 2,37,-1
 429 266 l 2,38,39
 429 386 429 386 387.5 449 c 128,-1,40
 346 512 346 512 261 512 c 0,41,42
 177 512 177 512 132 448 c 128,-1,43
 87 384 87 384 87 255 c 0,44,45
 87 133 87 133 129 74 c 128,-1,46
 171 15 171 15 256 15 c 0,34,35
EndSplineSet
Substitution2: "'smcp' Lowercase to Small Capitals lookup 33 subtable" dcaron.sc
Substitution2: "'aalt' Access All Alternates lookup 0 subtable" dcaron.sc
EndChar

StartChar: dcroat
Encoding: 273 273 211
Width: 600
GlyphClass: 2
Flags: W
AnchorPoint: "Anchor-4" 580 760 basechar 0
AnchorPoint: "Anchor-3" 300 760 basechar 0
AnchorPoint: "Anchor-1" 300 264 basechar 0
AnchorPoint: "Anchor-0" 300 0 basechar 0
LayerCount: 2
Fore
SplineSet
281 -10 m 0,0,1
 175 -10 175 -10 122.5 59 c 128,-1,2
 70 128 70 128 70 254 c 0,3,4
 70 391 70 391 127.5 464 c 128,-1,5
 185 537 185 537 289 537 c 0,6,7
 342 537 342 537 378 519 c 128,-1,8
 414 501 414 501 436 472 c 128,-1,9
 458 443 458 443 469 409 c 1,10,-1
 471 409 l 1,11,12
 470 443 470 443 469.5 477.5 c 128,-1,13
 469 512 469 512 469 543 c 2,14,-1
 469 630 l 1,15,-1
 258 630 l 1,16,-1
 258 655 l 1,17,-1
 469 655 l 1,18,-1
 469 760 l 1,19,-1
 495 760 l 1,20,-1
 495 655 l 1,21,-1
 600 655 l 1,22,-1
 600 630 l 1,23,-1
 495 630 l 1,24,-1
 495 0 l 1,25,-1
 473 0 l 1,26,-1
 471 113 l 1,27,-1
 469 113 l 1,28,29
 449 60 449 60 404.5 25 c 128,-1,30
 360 -10 360 -10 281 -10 c 0,0,1
283 15 m 0,31,32
 384 15 384 15 426.5 80 c 128,-1,33
 469 145 469 145 469 263 c 2,34,-1
 469 266 l 2,35,36
 469 386 469 386 425 449 c 128,-1,37
 381 512 381 512 289 512 c 0,38,39
 198 512 198 512 147.5 448 c 128,-1,40
 97 384 97 384 97 254 c 0,41,42
 97 15 97 15 283 15 c 0,31,32
EndSplineSet
Substitution2: "'smcp' Lowercase to Small Capitals lookup 33 subtable" dcroat.sc
Substitution2: "'aalt' Access All Alternates lookup 0 subtable" dcroat.sc
EndChar

StartChar: eogonek
Encoding: 281 281 219
Width: 600
GlyphClass: 2
Flags: W
AnchorPoint: "Anchor-4" 580 528 basechar 0
AnchorPoint: "Anchor-3" 300 528 basechar 0
AnchorPoint: "Anchor-2" 315 10 basechar 0
AnchorPoint: "Anchor-0" 320 -217 basechar 0
LayerCount: 2
Fore
SplineSet
336 -10 m 0,0,1
 242 -10 242 -10 184.5 25 c 128,-1,2
 127 60 127 60 101 119.5 c 128,-1,3
 75 179 75 179 75 254 c 0,4,5
 75 332 75 332 101 396 c 128,-1,6
 127 460 127 460 180.5 498.5 c 128,-1,7
 234 537 234 537 318 537 c 0,8,9
 391 537 391 537 436.5 504.5 c 128,-1,10
 482 472 482 472 503.5 416 c 128,-1,11
 525 360 525 360 525 291 c 2,12,-1
 525 266 l 1,13,-1
 102 266 l 1,14,15
 102 148 102 148 156.5 81.5 c 128,-1,16
 211 15 211 15 337 15 c 0,17,18
 386 15 386 15 427 24.5 c 128,-1,19
 468 34 468 34 510 51 c 1,20,-1
 510 23 l 1,21,22
 486 4 486 4 458 -18 c 128,-1,23
 430 -40 430 -40 410.5 -68 c 128,-1,24
 391 -96 391 -96 391 -132 c 0,25,26
 391 -192 391 -192 452 -192 c 0,27,28
 478 -192 478 -192 497 -185 c 1,29,-1
 497 -209 l 1,30,31
 489 -212 489 -212 475.5 -214.5 c 128,-1,32
 462 -217 462 -217 448 -217 c 0,33,34
 413 -217 413 -217 389 -197 c 128,-1,35
 365 -177 365 -177 365 -136 c 0,36,37
 365 -93 365 -93 390.5 -59.5 c 128,-1,38
 416 -26 416 -26 454 5 c 1,39,40
 396 -10 396 -10 336 -10 c 0,0,1
103 291 m 1,41,-1
 498 291 l 1,42,43
 498 392 498 392 454 452 c 128,-1,44
 410 512 410 512 318 512 c 0,45,46
 230 512 230 512 171.5 456 c 128,-1,47
 113 400 113 400 103 291 c 1,41,-1
EndSplineSet
Substitution2: "'smcp' Lowercase to Small Capitals lookup 33 subtable" eogonek.sc
Substitution2: "'locl' Localized Forms in Latin lookup 11 subtable" eogonek.loclNAV
Ligature2: "'ccmp' Glyph Composition/Decomposition lookup 6 subtable" e uni0328
AlternateSubs2: "'aalt' Access All Alternates lookup 1 subtable" eogonek.loclNAV eogonek.sc
EndChar

StartChar: Hbar
Encoding: 294 294 232
Width: 600
GlyphClass: 2
Flags: W
AnchorPoint: "Anchor-3" 300 714 basechar 0
AnchorPoint: "Anchor-1" 300 357 basechar 0
AnchorPoint: "Anchor-0" 300 0 basechar 0
LayerCount: 2
Fore
SplineSet
95 0 m 1,0,-1
 95 527 l 1,1,-1
 0 527 l 1,2,-1
 0 552 l 1,3,-1
 95 552 l 1,4,-1
 95 714 l 1,5,-1
 121 714 l 1,6,-1
 121 552 l 1,7,-1
 479 552 l 1,8,-1
 479 714 l 1,9,-1
 505 714 l 1,10,-1
 505 552 l 1,11,-1
 600 552 l 1,12,-1
 600 527 l 1,13,-1
 505 527 l 1,14,-1
 505 0 l 1,15,-1
 479 0 l 1,16,-1
 479 363 l 1,17,-1
 121 363 l 1,18,-1
 121 0 l 1,19,-1
 95 0 l 1,0,-1
121 388 m 1,20,-1
 479 388 l 1,21,-1
 479 527 l 1,22,-1
 121 527 l 1,23,-1
 121 388 l 1,20,-1
EndSplineSet
Substitution2: "'c2sc' Capitals to Small Capitals lookup 32 subtable" hbar.sc
Substitution2: "'aalt' Access All Alternates lookup 0 subtable" hbar.sc
EndChar

StartChar: hbar
Encoding: 295 295 233
Width: 600
GlyphClass: 2
Flags: W
AnchorPoint: "Anchor-3" 116 760 basechar 0
AnchorPoint: "Anchor-1" 300 264 basechar 0
AnchorPoint: "Anchor-0" 300 0 basechar 0
LayerCount: 2
Fore
SplineSet
105 0 m 1,0,-1
 105 630 l 1,1,-1
 0 630 l 1,2,-1
 0 655 l 1,3,-1
 105 655 l 1,4,-1
 105 760 l 1,5,-1
 131 760 l 1,6,-1
 131 655 l 1,7,-1
 342 655 l 1,8,-1
 342 630 l 1,9,-1
 131 630 l 1,10,-1
 131 496 l 2,11,12
 131 472 131 472 130.5 453.5 c 128,-1,13
 130 435 130 435 129 412 c 1,14,-1
 131 412 l 1,15,16
 141 445 141 445 164.5 473.5 c 128,-1,17
 188 502 188 502 226 519.5 c 128,-1,18
 264 537 264 537 320 537 c 0,19,20
 404 537 404 537 452 491 c 128,-1,21
 500 445 500 445 500 350 c 2,22,-1
 500 0 l 1,23,-1
 474 0 l 1,24,-1
 474 345 l 2,25,26
 474 433 474 433 433 472.5 c 128,-1,27
 392 512 392 512 319 512 c 0,28,29
 235 512 235 512 183 461 c 128,-1,30
 131 410 131 410 131 302 c 2,31,-1
 131 0 l 1,32,-1
 105 0 l 1,0,-1
EndSplineSet
Substitution2: "'smcp' Lowercase to Small Capitals lookup 33 subtable" hbar.sc
Substitution2: "'aalt' Access All Alternates lookup 0 subtable" hbar.sc
EndChar

StartChar: IJ
Encoding: 306 306 243
Width: 600
GlyphClass: 2
LigCaretCntFixed: 1
Flags: W
AnchorPoint: "Anchor-3" 300 714 basechar 0
AnchorPoint: "Anchor-0" 300 0 basechar 0
LayerCount: 2
Fore
SplineSet
289 -15 m 0,0,1
 238 -15 238 -15 194 -3.5 c 128,-1,2
 150 8 150 8 121 27 c 1,3,-1
 121 55 l 1,4,5
 147 37 147 37 191.5 23 c 128,-1,6
 236 9 236 9 290 9 c 0,7,8
 384 9 384 9 421.5 58.5 c 128,-1,9
 459 108 459 108 459 204 c 2,10,-1
 459 714 l 1,11,-1
 485 714 l 1,12,-1
 485 196 l 2,13,14
 485 97 485 97 441.5 41 c 128,-1,15
 398 -15 398 -15 289 -15 c 0,0,1
115 147 m 1,16,-1
 115 714 l 1,17,-1
 141 714 l 1,18,-1
 141 147 l 1,19,-1
 115 147 l 1,16,-1
EndSplineSet
Substitution2: "'c2sc' Capitals to Small Capitals lookup 32 subtable" ij.sc
Substitution2: "'aalt' Access All Alternates lookup 0 subtable" ij.sc
LCarets2: 1 0
EndChar

StartChar: ij
Encoding: 307 307 244
Width: 600
GlyphClass: 2
LigCaretCntFixed: 1
Flags: W
AnchorPoint: "Anchor-3" 300 734 basechar 0
AnchorPoint: "Anchor-0" 300 -248 basechar 0
LayerCount: 2
Fore
SplineSet
157 660 m 256,0,1
 138 660 138 660 131.5 671 c 128,-1,2
 125 682 125 682 125 697 c 0,3,4
 125 711 125 711 131 722.5 c 128,-1,5
 137 734 137 734 156 734 c 256,6,7
 175 734 175 734 181 723 c 128,-1,8
 187 712 187 712 187 696 c 0,9,10
 187 683 187 683 181.5 671.5 c 128,-1,11
 176 660 176 660 157 660 c 256,0,1
445 660 m 256,12,13
 426 660 426 660 419.5 671 c 128,-1,14
 413 682 413 682 413 697 c 0,15,16
 413 711 413 711 419 722.5 c 128,-1,17
 425 734 425 734 444 734 c 256,18,19
 463 734 463 734 469 723 c 128,-1,20
 475 712 475 712 475 696 c 0,21,22
 475 683 475 683 469.5 671.5 c 128,-1,23
 464 660 464 660 445 660 c 256,12,13
276 -248 m 0,24,25
 231 -248 231 -248 193 -239 c 128,-1,26
 155 -230 155 -230 132 -218 c 1,27,-1
 132 -191 l 1,28,29
 158 -205 158 -205 199 -213.5 c 128,-1,30
 240 -222 240 -222 278 -222 c 0,31,32
 359 -222 359 -222 395.5 -184 c 128,-1,33
 432 -146 432 -146 432 -81 c 2,34,-1
 432 528 l 1,35,-1
 458 528 l 1,36,-1
 458 -88 l 2,37,38
 458 -169 458 -169 410 -208.5 c 128,-1,39
 362 -248 362 -248 276 -248 c 0,24,25
143 0 m 1,40,-1
 143 528 l 1,41,-1
 169 528 l 1,42,-1
 169 0 l 1,43,-1
 143 0 l 1,40,-1
EndSplineSet
Substitution2: "'smcp' Lowercase to Small Capitals lookup 33 subtable" ij.sc
Substitution2: "'aalt' Access All Alternates lookup 0 subtable" ij.sc
LCarets2: 1 0
EndChar

StartChar: kgreenlandic
Encoding: 312 312 249
Width: 600
GlyphClass: 2
Flags: W
AnchorPoint: "Anchor-3" 300 528 basechar 0
AnchorPoint: "Anchor-0" 300 0 basechar 0
LayerCount: 2
Fore
SplineSet
140 0 m 1,0,-1
 140 528 l 1,1,-1
 166 528 l 1,2,-1
 166 385 l 2,3,4
 166 337 166 337 166 293 c 128,-1,5
 166 249 166 249 165 201 c 1,6,-1
 167 201 l 1,7,8
 183 217 183 217 199.5 233.5 c 128,-1,9
 216 250 216 250 235 269 c 2,10,-1
 491 528 l 1,11,-1
 525 528 l 1,12,-1
 318 315 l 1,13,-1
 545 0 l 1,14,-1
 514 0 l 1,15,-1
 300 297 l 1,16,-1
 166 169 l 1,17,-1
 166 0 l 1,18,-1
 140 0 l 1,0,-1
EndSplineSet
EndChar

StartChar: Lslash
Encoding: 321 321 258
Width: 600
GlyphClass: 2
Flags: W
AnchorPoint: "Anchor-4" 463 714 basechar 0
AnchorPoint: "Anchor-3" 202 714 basechar 0
AnchorPoint: "Anchor-1" 340 357 basechar 0
AnchorPoint: "Anchor-0" 377 0 basechar 0
LayerCount: 2
Fore
SplineSet
190 0 m 1,0,-1
 190 298 l 1,1,-1
 105 243 l 1,2,-1
 90 264 l 1,3,-1
 190 328 l 1,4,-1
 190 714 l 1,5,-1
 216 714 l 1,6,-1
 216 345 l 1,7,-1
 380 451 l 1,8,-1
 395 430 l 1,9,-1
 216 315 l 1,10,-1
 216 25 l 1,11,-1
 550 25 l 1,12,-1
 550 0 l 1,13,-1
 190 0 l 1,0,-1
EndSplineSet
Substitution2: "'c2sc' Capitals to Small Capitals lookup 32 subtable" lslash.sc
Substitution2: "'aalt' Access All Alternates lookup 0 subtable" lslash.sc
EndChar

StartChar: lslash
Encoding: 322 322 259
Width: 600
GlyphClass: 2
Flags: W
AnchorPoint: "Anchor-4" 486 760 basechar 0
AnchorPoint: "Anchor-3" 300 760 basechar 0
AnchorPoint: "Anchor-1" 314 379 basechar 0
AnchorPoint: "Anchor-0" 300 0 basechar 0
LayerCount: 2
Fore
SplineSet
100 0 m 1,0,-1
 100 21 l 1,1,-1
 301 25 l 1,2,-1
 301 342 l 1,3,-1
 179 263 l 1,4,-1
 164 284 l 1,5,-1
 301 372 l 1,6,-1
 301 735 l 1,7,-1
 122 739 l 1,8,-1
 122 760 l 1,9,-1
 327 760 l 1,10,-1
 327 389 l 1,11,-1
 454 471 l 1,12,-1
 469 450 l 1,13,-1
 327 358 l 1,14,-1
 327 25 l 1,15,-1
 530 21 l 1,16,-1
 530 0 l 1,17,-1
 100 0 l 1,0,-1
EndSplineSet
Substitution2: "'smcp' Lowercase to Small Capitals lookup 33 subtable" lslash.sc
Substitution2: "'aalt' Access All Alternates lookup 0 subtable" lslash.sc
EndChar

StartChar: napostrophe
Encoding: 329 329 266
Width: 600
GlyphClass: 2
Flags: W
AnchorPoint: "Anchor-3" 310 528 basechar 0
AnchorPoint: "Anchor-0" 315 0 basechar 0
LayerCount: 2
Fore
SplineSet
-4 469 m 1,0,1
 11 504 11 504 24.5 547.5 c 128,-1,2
 38 591 38 591 47 634.5 c 128,-1,3
 56 678 56 678 59 714 c 1,4,-1
 79 714 l 1,5,-1
 85 705 l 1,6,7
 76 644 76 644 56.5 582.5 c 128,-1,8
 37 521 37 521 13 469 c 1,9,-1
 -4 469 l 1,0,1
126 0 m 1,10,-1
 126 528 l 1,11,-1
 148 528 l 1,12,-1
 151 417 l 1,13,-1
 153 417 l 1,14,15
 164 448 164 448 186 475 c 128,-1,16
 208 502 208 502 243 519.5 c 128,-1,17
 278 537 278 537 331 537 c 0,18,19
 410 537 410 537 455 491.5 c 128,-1,20
 500 446 500 446 500 354 c 2,21,-1
 500 0 l 1,22,-1
 474 0 l 1,23,-1
 474 345 l 2,24,25
 474 433 474 433 436 472.5 c 128,-1,26
 398 512 398 512 330 512 c 0,27,28
 250 512 250 512 201 461 c 128,-1,29
 152 410 152 410 152 302 c 2,30,-1
 152 0 l 1,31,-1
 126 0 l 1,10,-1
EndSplineSet
EndChar

StartChar: Eng
Encoding: 330 330 267
Width: 600
GlyphClass: 2
Flags: W
AnchorPoint: "Anchor-4" 600 714 basechar 0
AnchorPoint: "Anchor-3" 305 714 basechar 0
AnchorPoint: "Anchor-0" 325 -174 basechar 0
LayerCount: 2
Fore
SplineSet
95 0 m 1,0,-1
 95 714 l 1,1,-1
 122 714 l 1,2,-1
 478 53 l 1,3,-1
 480 53 l 1,4,5
 479 88 479 88 479 125.5 c 128,-1,6
 479 163 479 163 479 191 c 2,7,-1
 479 714 l 1,8,-1
 505 714 l 1,9,-1
 505 0 l 1,10,-1
 505 0 l 1,11,12
 504 -82 504 -82 466.5 -128 c 128,-1,13
 429 -174 429 -174 356 -174 c 0,14,15
 333 -174 333 -174 310 -170 c 128,-1,16
 287 -166 287 -166 276 -161 c 1,17,-1
 276 -136 l 1,18,19
 292 -141 292 -141 312.5 -144.5 c 128,-1,20
 333 -148 333 -148 355 -148 c 0,21,22
 414 -148 414 -148 446 -111 c 128,-1,23
 478 -74 478 -74 478 0 c 1,24,-1
 122 665 l 1,25,-1
 120 665 l 1,26,27
 121 633 121 633 121 602 c 128,-1,28
 121 571 121 571 121 530 c 2,29,-1
 121 0 l 1,30,-1
 95 0 l 1,0,-1
EndSplineSet
Substitution2: "'c2sc' Capitals to Small Capitals lookup 32 subtable" eng.sc
AlternateSubs2: "'aalt' Access All Alternates lookup 1 subtable" Eng.alt1 Eng.alt2 Eng.alt3 eng.sc
EndChar

StartChar: eng
Encoding: 331 331 268
Width: 600
GlyphClass: 2
Flags: W
AnchorPoint: "Anchor-4" 580 528 basechar 0
AnchorPoint: "Anchor-3" 308 528 basechar 0
AnchorPoint: "Anchor-0" 313 -240 basechar 0
LayerCount: 2
Fore
SplineSet
105 0 m 1,0,-1
 105 528 l 1,1,-1
 127 528 l 1,2,-1
 130 417 l 1,3,-1
 132 417 l 1,4,5
 144 448 144 448 166.5 475 c 128,-1,6
 189 502 189 502 226.5 519.5 c 128,-1,7
 264 537 264 537 320 537 c 0,8,9
 404 537 404 537 452 491.5 c 128,-1,10
 500 446 500 446 500 354 c 2,11,-1
 500 -100 l 2,12,13
 500 -171 500 -171 467 -205.5 c 128,-1,14
 434 -240 434 -240 388 -240 c 0,15,16
 366 -240 366 -240 347 -237 c 128,-1,17
 328 -234 328 -234 314 -230 c 1,18,-1
 314 -204 l 1,19,20
 332 -211 332 -211 351 -213 c 128,-1,21
 370 -215 370 -215 388 -215 c 0,22,23
 432 -215 432 -215 453 -183.5 c 128,-1,24
 474 -152 474 -152 474 -96 c 2,25,-1
 474 345 l 2,26,27
 474 433 474 433 433 472.5 c 128,-1,28
 392 512 392 512 319 512 c 0,29,30
 235 512 235 512 183 461 c 128,-1,31
 131 410 131 410 131 302 c 2,32,-1
 131 0 l 1,33,-1
 105 0 l 1,0,-1
EndSplineSet
Substitution2: "'smcp' Lowercase to Small Capitals lookup 33 subtable" eng.sc
Substitution2: "'aalt' Access All Alternates lookup 0 subtable" eng.sc
EndChar

StartChar: OE
Encoding: 338 338 275
Width: 600
GlyphClass: 2
Flags: W
AnchorPoint: "Anchor-3" 300 714 basechar 0
AnchorPoint: "Anchor-0" 300 0 basechar 0
LayerCount: 2
Fore
SplineSet
299 -2 m 0,0,1
 174 -2 174 -2 114.5 89 c 128,-1,2
 55 180 55 180 55 359 c 0,3,4
 55 438 55 438 65.5 503.5 c 128,-1,5
 76 569 76 569 103.5 616 c 128,-1,6
 131 663 131 663 179 688.5 c 128,-1,7
 227 714 227 714 302 714 c 2,8,-1
 568 714 l 1,9,-1
 568 690 l 1,10,-1
 328 690 l 1,11,-1
 328 388 l 1,12,-1
 555 388 l 1,13,-1
 555 363 l 1,14,-1
 328 363 l 1,15,-1
 328 25 l 1,16,-1
 568 25 l 1,17,-1
 568 0 l 1,18,-1
 357 0 l 2,19,20
 344 0 344 0 330 -1 c 128,-1,21
 316 -2 316 -2 299 -2 c 0,0,1
294 23 m 2,22,-1
 302 23 l 1,23,-1
 302 690 l 1,24,-1
 294 690 l 2,25,26
 228 690 228 690 186 664.5 c 128,-1,27
 144 639 144 639 121 594 c 128,-1,28
 98 549 98 549 89.5 489 c 128,-1,29
 81 429 81 429 81 359 c 0,30,31
 81 256 81 256 103.5 180.5 c 128,-1,32
 126 105 126 105 173 64 c 128,-1,33
 220 23 220 23 294 23 c 2,22,-1
EndSplineSet
Substitution2: "'c2sc' Capitals to Small Capitals lookup 32 subtable" oe.sc
Substitution2: "'aalt' Access All Alternates lookup 0 subtable" oe.sc
EndChar

StartChar: oe
Encoding: 339 339 276
Width: 600
GlyphClass: 2
Flags: W
AnchorPoint: "Anchor-3" 300 528 basechar 0
AnchorPoint: "Anchor-0" 300 0 basechar 0
LayerCount: 2
Fore
SplineSet
177 -10 m 0,0,1
 106 -10 106 -10 71 64 c 128,-1,2
 36 138 36 138 36 264 c 0,3,4
 36 398 36 398 75 467.5 c 128,-1,5
 114 537 114 537 184 537 c 0,6,7
 240 537 240 537 270.5 491 c 128,-1,8
 301 445 301 445 310 373 c 1,9,10
 318 418 318 418 334 455.5 c 128,-1,11
 350 493 350 493 376 515 c 128,-1,12
 402 537 402 537 438 537 c 0,13,14
 480 537 480 537 505.5 504 c 128,-1,15
 531 471 531 471 542.5 416 c 128,-1,16
 554 361 554 361 554 296 c 2,17,-1
 554 268 l 1,18,-1
 325 268 l 1,19,20
 325 144 325 144 358.5 79 c 128,-1,21
 392 14 392 14 454 14 c 0,22,23
 476 14 476 14 498 22 c 128,-1,24
 520 30 520 30 549 50 c 1,25,-1
 549 22 l 1,26,27
 520 3 520 3 498.5 -3.5 c 128,-1,28
 477 -10 477 -10 452 -10 c 0,29,30
 389 -10 389 -10 355 36 c 128,-1,31
 321 82 321 82 309 155 c 1,32,33
 298 84 298 84 266 37 c 128,-1,34
 234 -10 234 -10 177 -10 c 0,0,1
177 15 m 0,35,36
 218 15 218 15 243.5 48.5 c 128,-1,37
 269 82 269 82 281 138.5 c 128,-1,38
 293 195 293 195 293 265 c 0,39,40
 293 338 293 338 282 394 c 128,-1,41
 271 450 271 450 247 481.5 c 128,-1,42
 223 513 223 513 184 513 c 0,43,44
 123 513 123 513 92.5 447.5 c 128,-1,45
 62 382 62 382 62 264 c 0,46,47
 62 150 62 150 90 82.5 c 128,-1,48
 118 15 118 15 177 15 c 0,35,36
325 294 m 1,49,-1
 527 294 l 1,50,51
 527 356 527 356 518 406 c 128,-1,52
 509 456 509 456 489 484.5 c 128,-1,53
 469 513 469 513 437 513 c 0,54,55
 392 513 392 513 361 459.5 c 128,-1,56
 330 406 330 406 325 294 c 1,49,-1
EndSplineSet
Substitution2: "'smcp' Lowercase to Small Capitals lookup 33 subtable" oe.sc
Substitution2: "'aalt' Access All Alternates lookup 0 subtable" oe.sc
EndChar

StartChar: Tbar
Encoding: 358 358 295
Width: 600
GlyphClass: 2
Flags: W
AnchorPoint: "Anchor-4" 580 714 basechar 0
AnchorPoint: "Anchor-3" 300 714 basechar 0
AnchorPoint: "Anchor-1" 300 357 basechar 0
AnchorPoint: "Anchor-0" 300 0 basechar 0
LayerCount: 2
Fore
SplineSet
287 0 m 1,0,-1
 287 355 l 1,1,-1
 110 355 l 1,2,-1
 110 380 l 1,3,-1
 287 380 l 1,4,-1
 287 689 l 1,5,-1
 50 689 l 1,6,-1
 50 714 l 1,7,-1
 550 714 l 1,8,-1
 550 689 l 1,9,-1
 313 689 l 1,10,-1
 313 380 l 1,11,-1
 490 380 l 1,12,-1
 490 355 l 1,13,-1
 313 355 l 1,14,-1
 313 0 l 1,15,-1
 287 0 l 1,0,-1
EndSplineSet
Substitution2: "'c2sc' Capitals to Small Capitals lookup 32 subtable" tbar.sc
Substitution2: "'aalt' Access All Alternates lookup 0 subtable" tbar.sc
EndChar

StartChar: tbar
Encoding: 359 359 296
Width: 600
GlyphClass: 2
Flags: W
AnchorPoint: "Anchor-4" 580 659 basechar 0
AnchorPoint: "Anchor-3" 272 659 basechar 0
AnchorPoint: "Anchor-1" 267 264 basechar 0
AnchorPoint: "Anchor-0" 319 0 basechar 0
LayerCount: 2
Fore
SplineSet
84 285 m 1,0,-1
 84 310 l 1,1,-1
 255 310 l 1,2,-1
 255 503 l 1,3,-1
 84 503 l 1,4,-1
 84 524 l 1,5,-1
 254 528 l 1,6,-1
 259 659 l 1,7,-1
 281 659 l 1,8,-1
 281 528 l 1,9,-1
 498 528 l 1,10,-1
 498 503 l 1,11,-1
 281 503 l 1,12,-1
 281 310 l 1,13,-1
 498 310 l 1,14,-1
 498 285 l 1,15,-1
 281 285 l 1,16,-1
 281 183 l 2,17,18
 281 102 281 102 307.5 58.5 c 128,-1,19
 334 15 334 15 411 15 c 0,20,21
 436 15 436 15 455 18.5 c 128,-1,22
 474 22 474 22 490 28 c 1,23,-1
 490 3 l 1,24,25
 474 -2 474 -2 455.5 -6 c 128,-1,26
 437 -10 437 -10 411 -10 c 0,27,28
 351 -10 351 -10 317 13 c 128,-1,29
 283 36 283 36 269 78.5 c 128,-1,30
 255 121 255 121 255 180 c 2,31,-1
 255 285 l 1,32,-1
 84 285 l 1,0,-1
EndSplineSet
Substitution2: "'smcp' Lowercase to Small Capitals lookup 33 subtable" tbar.sc
Substitution2: "'aalt' Access All Alternates lookup 0 subtable" tbar.sc
EndChar

StartChar: Uogonek
Encoding: 370 370 307
Width: 600
GlyphClass: 2
Flags: W
AnchorPoint: "Anchor-4" 580 714 basechar 0
AnchorPoint: "Anchor-3" 300 714 basechar 0
AnchorPoint: "Anchor-2" 540 10 basechar 0
AnchorPoint: "Anchor-0" 300 -217 basechar 0
LayerCount: 2
Fore
SplineSet
296 -10 m 0,0,1
 192 -10 192 -10 143.5 57.5 c 128,-1,2
 95 125 95 125 95 254 c 2,3,-1
 95 714 l 1,4,-1
 121 714 l 1,5,-1
 121 258 l 2,6,7
 121 137 121 137 163 76 c 128,-1,8
 205 15 205 15 297 15 c 0,9,10
 386 15 386 15 432.5 74 c 128,-1,11
 479 133 479 133 479 258 c 2,12,-1
 479 714 l 1,13,-1
 505 714 l 1,14,-1
 505 252 l 2,15,16
 505 160 505 160 478.5 101 c 128,-1,17
 452 42 452 42 403 15 c 1,18,19
 376 -6 376 -6 345.5 -26.5 c 128,-1,20
 315 -47 315 -47 293.5 -73 c 128,-1,21
 272 -99 272 -99 272 -135 c 0,22,23
 272 -161 272 -161 287 -176.5 c 128,-1,24
 302 -192 302 -192 333 -192 c 0,25,26
 359 -192 359 -192 378 -185 c 1,27,-1
 378 -209 l 1,28,29
 370 -212 370 -212 357 -214.5 c 128,-1,30
 344 -217 344 -217 329 -217 c 0,31,32
 294 -217 294 -217 270 -198.5 c 128,-1,33
 246 -180 246 -180 246 -137 c 0,34,35
 246 -91 246 -91 273 -62.5 c 128,-1,36
 300 -34 300 -34 339 -7 c 1,37,38
 318 -10 318 -10 296 -10 c 0,0,1
EndSplineSet
Substitution2: "'c2sc' Capitals to Small Capitals lookup 32 subtable" uogonek.sc
Substitution2: "'locl' Localized Forms in Latin lookup 11 subtable" Uogonek.loclNAV
Ligature2: "'ccmp' Glyph Composition/Decomposition lookup 6 subtable" U uni0328
AlternateSubs2: "'aalt' Access All Alternates lookup 1 subtable" Uogonek.loclNAV uogonek.sc
EndChar

StartChar: longs
Encoding: 383 383 320
Width: 600
GlyphClass: 2
Flags: W
AnchorPoint: "Anchor-3" 409 765 basechar 0
AnchorPoint: "Anchor-0" 300 0 basechar 0
LayerCount: 2
Fore
SplineSet
261 0 m 1,0,-1
 261 555 l 2,1,2
 261 650 261 650 306.5 707.5 c 128,-1,3
 352 765 352 765 440 765 c 0,4,5
 460 765 460 765 476.5 762.5 c 128,-1,6
 493 760 493 760 510 756 c 1,7,-1
 507 730 l 1,8,9
 491 735 491 735 476.5 737.5 c 128,-1,10
 462 740 462 740 440 740 c 0,11,12
 363 740 363 740 325 692 c 128,-1,13
 287 644 287 644 287 552 c 2,14,-1
 287 0 l 1,15,-1
 261 0 l 1,0,-1
EndSplineSet
EndChar

StartChar: florin
Encoding: 402 402 321
Width: 600
GlyphClass: 2
Flags: W
AnchorPoint: "Anchor-3" 368 724 basechar 0
AnchorPoint: "Anchor-0" 290 -240 basechar 0
LayerCount: 2
Fore
SplineSet
181 -240 m 0,0,1
 157 -240 157 -240 140.5 -237 c 128,-1,2
 124 -234 124 -234 113 -231 c 1,3,-1
 113 -205 l 1,4,5
 129 -210 129 -210 145 -212.5 c 128,-1,6
 161 -215 161 -215 180 -215 c 0,7,8
 227 -215 227 -215 250 -183.5 c 128,-1,9
 273 -152 273 -152 273 -93 c 2,10,-1
 273 424 l 1,11,-1
 177 424 l 1,12,-1
 177 446 l 1,13,-1
 273 449 l 1,14,-1
 273 540 l 2,15,16
 273 628 273 628 309 676 c 128,-1,17
 345 724 345 724 422 724 c 0,18,19
 443 724 443 724 462.5 721.5 c 128,-1,20
 482 719 482 719 503 713 c 1,21,-1
 497 688 l 1,22,23
 480 694 480 694 461 696.5 c 128,-1,24
 442 699 442 699 419 699 c 0,25,26
 358 699 358 699 328.5 660.5 c 128,-1,27
 299 622 299 622 299 537 c 2,28,-1
 299 449 l 1,29,-1
 438 449 l 1,30,-1
 438 424 l 1,31,-1
 299 424 l 1,32,-1
 299 -98 l 2,33,34
 299 -160 299 -160 269.5 -200 c 128,-1,35
 240 -240 240 -240 181 -240 c 0,0,1
EndSplineSet
EndChar

StartChar: circumflex
Encoding: 710 710 330
Width: 600
Flags: W
LayerCount: 2
Fore
SplineSet
169 606 m 1,0,-1
 169 612 l 1,1,2
 188 632 188 632 210 660 c 128,-1,3
 232 688 232 688 252.5 715 c 128,-1,4
 273 742 273 742 285 763 c 1,5,-1
 307 763 l 1,6,7
 319 742 319 742 339 715 c 128,-1,8
 359 688 359 688 380.5 660 c 128,-1,9
 402 632 402 632 421 612 c 1,10,-1
 421 606 l 1,11,-1
 400 606 l 1,12,13
 372 634 372 634 344.5 668 c 128,-1,14
 317 702 317 702 296 731 c 1,15,16
 275 702 275 702 246.5 668 c 128,-1,17
 218 634 218 634 190 606 c 1,18,-1
 169 606 l 1,0,-1
EndSplineSet
EndChar

StartChar: caron
Encoding: 711 711 331
Width: 600
GlyphClass: 2
Flags: W
AnchorPoint: "Anchor-13" 299 763 basemark 0
AnchorPoint: "Anchor-13" 299 528 mark 0
AnchorPoint: "Anchor-8" 299 528 mark 0
AnchorPoint: "Anchor-3" 299 528 mark 0
LayerCount: 2
Fore
SplineSet
288 606 m 1,0,1
 276 626 276 626 256 654 c 128,-1,2
 236 682 236 682 214 709 c 128,-1,3
 192 736 192 736 174 757 c 1,4,-1
 174 763 l 1,5,-1
 195 763 l 1,6,7
 223 735 223 735 250.5 700.5 c 128,-1,8
 278 666 278 666 299 638 c 1,9,10
 320 666 320 666 348.5 700.5 c 128,-1,11
 377 735 377 735 405 763 c 1,12,-1
 426 763 l 1,13,-1
 426 757 l 1,14,15
 408 736 408 736 385.5 709 c 128,-1,16
 363 682 363 682 342.5 654 c 128,-1,17
 322 626 322 626 310 606 c 1,18,-1
 288 606 l 1,0,1
EndSplineSet
EndChar

StartChar: breve
Encoding: 728 728 333
Width: 600
GlyphClass: 2
Flags: W
AnchorPoint: "Anchor-13" 298 765 basemark 0
AnchorPoint: "Anchor-13" 299 528 mark 0
AnchorPoint: "Anchor-8" 299 528 mark 0
AnchorPoint: "Anchor-3" 299 528 mark 0
LayerCount: 2
Fore
SplineSet
299 606 m 0,0,1
 249 606 249 606 215.5 634.5 c 128,-1,2
 182 663 182 663 177 718 c 1,3,-1
 202 718 l 1,4,5
 206 678 206 678 231 653.5 c 128,-1,6
 256 629 256 629 300 629 c 256,7,8
 344 629 344 629 368 653.5 c 128,-1,9
 392 678 392 678 397 718 c 1,10,-1
 422 718 l 1,11,12
 415 663 415 663 383 634.5 c 128,-1,13
 351 606 351 606 299 606 c 0,0,1
EndSplineSet
EndChar

StartChar: dotaccent
Encoding: 729 729 334
Width: 600
Flags: W
LayerCount: 2
Fore
SplineSet
300 660 m 0,0,1
 281 660 281 660 274.5 671 c 128,-1,2
 268 682 268 682 268 697 c 0,3,4
 268 711 268 711 274 722.5 c 128,-1,5
 280 734 280 734 300 734 c 0,6,7
 318 734 318 734 324 722.5 c 128,-1,8
 330 711 330 711 330 697 c 0,9,10
 330 684 330 684 325 672 c 128,-1,11
 320 660 320 660 300 660 c 0,0,1
EndSplineSet
EndChar

StartChar: ring
Encoding: 730 730 335
Width: 600
Flags: W
LayerCount: 2
Fore
SplineSet
299 611 m 0,0,1
 259 611 259 611 229 636.5 c 128,-1,2
 199 662 199 662 199 709 c 256,3,4
 199 756 199 756 228 783.5 c 128,-1,5
 257 811 257 811 299 811 c 0,6,7
 342 811 342 811 371 782.5 c 128,-1,8
 400 754 400 754 400 710 c 0,9,10
 400 665 400 665 370.5 638 c 128,-1,11
 341 611 341 611 299 611 c 0,0,1
299 633 m 0,12,13
 334 633 334 633 355 655 c 128,-1,14
 376 677 376 677 376 711 c 0,15,16
 376 744 376 744 355 766.5 c 128,-1,17
 334 789 334 789 300 789 c 0,18,19
 265 789 265 789 244 766.5 c 128,-1,20
 223 744 223 744 223 710 c 256,21,22
 223 676 223 676 244.5 654.5 c 128,-1,23
 266 633 266 633 299 633 c 0,12,13
EndSplineSet
EndChar

StartChar: ogonek
Encoding: 731 731 336
Width: 600
Flags: W
LayerCount: 2
Fore
SplineSet
316 -217 m 0,0,1
 282 -217 282 -217 258 -196.5 c 128,-1,2
 234 -176 234 -176 234 -135 c 0,3,4
 234 -99 234 -99 258 -63.5 c 128,-1,5
 282 -28 282 -28 334 11 c 1,6,-1
 352 0 l 1,7,8
 318 -27 318 -27 289 -60 c 128,-1,9
 260 -93 260 -93 260 -131 c 0,10,11
 260 -192 260 -192 318 -192 c 0,12,13
 347 -192 347 -192 366 -185 c 1,14,-1
 366 -209 l 1,15,16
 358 -212 358 -212 345 -214.5 c 128,-1,17
 332 -217 332 -217 316 -217 c 0,0,1
EndSplineSet
EndChar

StartChar: tilde
Encoding: 732 732 337
Width: 600
Flags: W
LayerCount: 2
Fore
SplineSet
138 618 m 1,0,1
 142 668 142 668 165.5 692 c 128,-1,2
 189 716 189 716 227 716 c 0,3,4
 252 716 252 716 270.5 704.5 c 128,-1,5
 289 693 289 693 304.5 678.5 c 128,-1,6
 320 664 320 664 336.5 652.5 c 128,-1,7
 353 641 353 641 373 641 c 0,8,9
 395 641 395 641 414.5 655.5 c 128,-1,10
 434 670 434 670 438 716 c 1,11,-1
 463 716 l 1,12,13
 459 667 459 667 434.5 642 c 128,-1,14
 410 617 410 617 372 617 c 0,15,16
 346 617 346 617 328 628.5 c 128,-1,17
 310 640 310 640 294.5 654.5 c 128,-1,18
 279 669 279 669 263 680.5 c 128,-1,19
 247 692 247 692 225 692 c 0,20,21
 205 692 205 692 186.5 677.5 c 128,-1,22
 168 663 168 663 163 618 c 1,23,-1
 138 618 l 1,0,1
EndSplineSet
EndChar

StartChar: hungarumlaut
Encoding: 733 733 338
Width: 600
Flags: W
LayerCount: 2
Fore
SplineSet
331 606 m 1,0,-1
 331 612 l 1,1,2
 349 632 349 632 370 659 c 128,-1,3
 391 686 391 686 409.5 715 c 128,-1,4
 428 744 428 744 440 766 c 1,5,-1
 470 766 l 1,6,-1
 470 759 l 1,7,8
 448 724 448 724 416 681.5 c 128,-1,9
 384 639 384 639 352 606 c 1,10,-1
 331 606 l 1,0,-1
191 606 m 1,11,-1
 191 612 l 1,12,13
 209 632 209 632 230 659 c 128,-1,14
 251 686 251 686 269.5 715 c 128,-1,15
 288 744 288 744 300 766 c 1,16,-1
 330 766 l 1,17,-1
 330 759 l 1,18,19
 308 724 308 724 276 681.5 c 128,-1,20
 244 639 244 639 212 606 c 1,21,-1
 191 606 l 1,11,-1
EndSplineSet
EndChar

StartChar: tonos
Encoding: 900 900 339
Width: 600
GlyphClass: 2
Flags: W
AnchorPoint: "Anchor-13" 295 760 basemark 0
AnchorPoint: "Anchor-13" 281 528 mark 0
AnchorPoint: "Anchor-8" 281 528 mark 0
AnchorPoint: "Anchor-3" 281 528 mark 0
LayerCount: 2
Fore
SplineSet
266 606 m 1,0,-1
 266 613 l 1,1,2
 279 651 279 651 292 705 c 128,-1,3
 305 759 305 759 310 807 c 1,4,-1
 338 807 l 1,5,-1
 338 799 l 1,6,7
 334 768 334 768 325 733 c 128,-1,8
 316 698 316 698 305 665 c 128,-1,9
 294 632 294 632 285 606 c 1,10,-1
 266 606 l 1,0,-1
EndSplineSet
EndChar

StartChar: dieresistonos
Encoding: 901 901 340
Width: 600
GlyphClass: 2
Flags: W
AnchorPoint: "Anchor-13" 301 838 basemark 0
AnchorPoint: "Anchor-13" 300 528 mark 0
AnchorPoint: "Anchor-8" 300 528 mark 0
AnchorPoint: "Anchor-3" 300 528 mark 0
LayerCount: 2
Fore
SplineSet
284 669 m 1,0,-1
 284 676 l 1,1,2
 300 711 300 711 312.5 756.5 c 128,-1,3
 325 802 325 802 331 839 c 1,4,-1
 362 839 l 1,5,-1
 362 831 l 1,6,7
 354 796 354 796 337 750 c 128,-1,8
 320 704 320 704 303 669 c 1,9,-1
 284 669 l 1,0,-1
201 643 m 0,10,11
 185 643 185 643 180 653 c 128,-1,12
 175 663 175 663 175 678 c 256,13,14
 175 693 175 693 180 703 c 128,-1,15
 185 713 185 713 201 713 c 0,16,17
 219 713 219 713 223.5 702 c 128,-1,18
 228 691 228 691 228 678 c 256,19,20
 228 665 228 665 223.5 654 c 128,-1,21
 219 643 219 643 201 643 c 0,10,11
398 643 m 0,22,23
 382 643 382 643 376.5 653 c 128,-1,24
 371 663 371 663 371 678 c 0,25,26
 371 692 371 692 376.5 702.5 c 128,-1,27
 382 713 382 713 398 713 c 0,28,29
 415 713 415 713 419.5 702 c 128,-1,30
 424 691 424 691 424 678 c 0,31,32
 424 664 424 664 419.5 653.5 c 128,-1,33
 415 643 415 643 398 643 c 0,22,23
EndSplineSet
EndChar

StartChar: Epsilontonos
Encoding: 904 904 343
Width: 600
GlyphClass: 2
Flags: W
AnchorPoint: "Anchor-3" 322 714 basechar 0
AnchorPoint: "Anchor-0" 331 0 basechar 0
LayerCount: 2
Fore
SplineSet
-19 606 m 1,0,-1
 -19 613 l 1,1,2
 -6 651 -6 651 7 705 c 128,-1,3
 20 759 20 759 25 807 c 1,4,-1
 53 807 l 1,5,-1
 53 799 l 1,6,7
 48 768 48 768 39.5 733 c 128,-1,8
 31 698 31 698 20.5 665 c 128,-1,9
 10 632 10 632 0 606 c 1,10,-1
 -19 606 l 1,0,-1
115 0 m 1,11,-1
 115 714 l 1,12,-1
 510 714 l 1,13,-1
 510 689 l 1,14,-1
 141 689 l 1,15,-1
 141 389 l 1,16,-1
 490 389 l 1,17,-1
 490 364 l 1,18,-1
 141 364 l 1,19,-1
 141 25 l 1,20,-1
 510 25 l 1,21,-1
 510 0 l 1,22,-1
 115 0 l 1,11,-1
EndSplineSet
EndChar

StartChar: Etatonos
Encoding: 905 905 344
Width: 600
GlyphClass: 2
Flags: W
AnchorPoint: "Anchor-3" 316 714 basechar 0
AnchorPoint: "Anchor-1" 316 377 basechar 0
AnchorPoint: "Anchor-0" 316 0 basechar 0
LayerCount: 2
Fore
SplineSet
-32 606 m 1,0,-1
 -32 613 l 1,1,2
 -19 651 -19 651 -6 705 c 128,-1,3
 7 759 7 759 12 807 c 1,4,-1
 40 807 l 1,5,-1
 40 799 l 1,6,7
 36 768 36 768 27 733 c 128,-1,8
 18 698 18 698 7 665 c 128,-1,9
 -4 632 -4 632 -13 606 c 1,10,-1
 -32 606 l 1,0,-1
125 0 m 1,11,-1
 125 714 l 1,12,-1
 151 714 l 1,13,-1
 151 388 l 1,14,-1
 479 388 l 1,15,-1
 479 714 l 1,16,-1
 505 714 l 1,17,-1
 505 0 l 1,18,-1
 479 0 l 1,19,-1
 479 363 l 1,20,-1
 151 363 l 1,21,-1
 151 0 l 1,22,-1
 125 0 l 1,11,-1
EndSplineSet
EndChar

StartChar: Upsilontonos
Encoding: 910 910 347
Width: 600
GlyphClass: 2
Flags: W
AnchorPoint: "Anchor-3" 331 714 basechar 0
AnchorPoint: "Anchor-0" 331 0 basechar 0
LayerCount: 2
Fore
SplineSet
-19 606 m 1,0,-1
 -19 613 l 1,1,2
 -6 651 -6 651 7 705 c 128,-1,3
 20 759 20 759 25 807 c 1,4,-1
 53 807 l 1,5,-1
 53 799 l 1,6,7
 48 768 48 768 39.5 733 c 128,-1,8
 31 698 31 698 20.5 665 c 128,-1,9
 10 632 10 632 0 606 c 1,10,-1
 -19 606 l 1,0,-1
317 0 m 1,11,-1
 317 269 l 1,12,-1
 103 714 l 1,13,-1
 130 714 l 1,14,-1
 330 298 l 1,15,-1
 525 714 l 1,16,-1
 553 714 l 1,17,-1
 343 269 l 1,18,-1
 343 0 l 1,19,-1
 317 0 l 1,11,-1
EndSplineSet
EndChar

StartChar: Gamma
Encoding: 915 915 352
Width: 600
GlyphClass: 2
Flags: W
AnchorPoint: "Anchor-3" 340 714 basechar 0
AnchorPoint: "Anchor-0" 340 0 basechar 0
LayerCount: 2
Fore
SplineSet
150 0 m 1,0,-1
 150 714 l 1,1,-1
 510 714 l 1,2,-1
 510 689 l 1,3,-1
 176 689 l 1,4,-1
 176 0 l 1,5,-1
 150 0 l 1,0,-1
EndSplineSet
EndChar

StartChar: uni0394
Encoding: 916 916 353
Width: 600
GlyphClass: 2
Flags: W
AnchorPoint: "Anchor-3" 300 714 basechar 0
AnchorPoint: "Anchor-0" 300 0 basechar 0
LayerCount: 2
Fore
SplineSet
20 0 m 1,0,-1
 20 13 l 1,1,-1
 287 714 l 1,2,-1
 312 714 l 1,3,-1
 580 12 l 1,4,-1
 580 0 l 1,5,-1
 20 0 l 1,0,-1
53 25 m 1,6,-1
 546 25 l 1,7,-1
 341 567 l 2,8,9
 328 600 328 600 316.5 632.5 c 128,-1,10
 305 665 305 665 299 682 c 1,11,12
 292 664 292 664 282.5 635.5 c 128,-1,13
 273 607 273 607 260 573 c 2,14,-1
 53 25 l 1,6,-1
EndSplineSet
EndChar

StartChar: Theta
Encoding: 920 920 357
Width: 600
GlyphClass: 2
Flags: W
AnchorPoint: "Anchor-4" 600 714 basechar 0
AnchorPoint: "Anchor-3" 300 714 basechar 0
AnchorPoint: "Anchor-2" 302 10 basechar 0
AnchorPoint: "Anchor-1" 300 357 basechar 0
AnchorPoint: "Anchor-0" 300 0 basechar 0
LayerCount: 2
Fore
SplineSet
301 -10 m 0,0,1
 235 -10 235 -10 188.5 19 c 128,-1,2
 142 48 142 48 112.5 99 c 128,-1,3
 83 150 83 150 69 217 c 128,-1,4
 55 284 55 284 55 360 c 0,5,6
 55 530 55 530 119.5 627 c 128,-1,7
 184 724 184 724 303 724 c 0,8,9
 384 724 384 724 438 678.5 c 128,-1,10
 492 633 492 633 518.5 551.5 c 128,-1,11
 545 470 545 470 545 360 c 0,12,13
 545 257 545 257 520 173 c 128,-1,14
 495 89 495 89 441.5 39.5 c 128,-1,15
 388 -10 388 -10 301 -10 c 0,0,1
302 15 m 0,16,17
 410 15 410 15 464 107 c 128,-1,18
 518 199 518 199 518 358 c 0,19,20
 518 522 518 522 462.5 610.5 c 128,-1,21
 407 699 407 699 302 699 c 0,22,23
 230 699 230 699 180.5 656.5 c 128,-1,24
 131 614 131 614 106 537.5 c 128,-1,25
 81 461 81 461 81 358 c 0,26,27
 81 254 81 254 105.5 177 c 128,-1,28
 130 100 130 100 179 57.5 c 128,-1,29
 228 15 228 15 302 15 c 0,16,17
171 348 m 1,30,-1
 171 373 l 1,31,-1
 430 373 l 1,32,-1
 430 348 l 1,33,-1
 171 348 l 1,30,-1
EndSplineSet
EndChar

StartChar: Lambda
Encoding: 923 923 360
Width: 600
GlyphClass: 2
Flags: W
AnchorPoint: "Anchor-3" 300 714 basechar 0
AnchorPoint: "Anchor-0" 300 0 basechar 0
LayerCount: 2
Fore
SplineSet
20 0 m 1,0,-1
 287 714 l 1,1,-1
 312 714 l 1,2,-1
 580 0 l 1,3,-1
 552 0 l 1,4,-1
 337 571 l 2,5,6
 326 600 326 600 316 627 c 128,-1,7
 306 654 306 654 299 677 c 1,8,9
 292 654 292 654 283 629.5 c 128,-1,10
 274 605 274 605 261 571 c 2,11,-1
 48 0 l 1,12,-1
 20 0 l 1,0,-1
EndSplineSet
EndChar

StartChar: Xi
Encoding: 926 926 363
Width: 600
GlyphClass: 2
Flags: W
AnchorPoint: "Anchor-3" 300 714 basechar 0
AnchorPoint: "Anchor-0" 300 0 basechar 0
LayerCount: 2
Fore
SplineSet
115 689 m 1,0,-1
 115 714 l 1,1,-1
 485 714 l 1,2,-1
 485 689 l 1,3,-1
 115 689 l 1,0,-1
145 363 m 1,4,-1
 145 388 l 1,5,-1
 455 388 l 1,6,-1
 455 363 l 1,7,-1
 145 363 l 1,4,-1
95 0 m 1,8,-1
 95 25 l 1,9,-1
 505 25 l 1,10,-1
 505 0 l 1,11,-1
 95 0 l 1,8,-1
EndSplineSet
EndChar

StartChar: Pi
Encoding: 928 928 365
Width: 600
GlyphClass: 2
Flags: W
AnchorPoint: "Anchor-3" 300 714 basechar 0
AnchorPoint: "Anchor-0" 300 0 basechar 0
LayerCount: 2
Fore
SplineSet
95 0 m 1,0,-1
 95 714 l 1,1,-1
 505 714 l 1,2,-1
 505 0 l 1,3,-1
 479 0 l 1,4,-1
 479 689 l 1,5,-1
 121 689 l 1,6,-1
 121 0 l 1,7,-1
 95 0 l 1,0,-1
EndSplineSet
EndChar

StartChar: Sigma
Encoding: 931 931 367
Width: 600
GlyphClass: 2
Flags: W
AnchorPoint: "Anchor-3" 300 714 basechar 0
AnchorPoint: "Anchor-0" 300 0 basechar 0
LayerCount: 2
Fore
SplineSet
115 0 m 1,0,-1
 115 21 l 1,1,-1
 343 372 l 1,2,-1
 121 695 l 1,3,-1
 121 714 l 1,4,-1
 466 714 l 1,5,-1
 466 688 l 1,6,-1
 158 688 l 1,7,-1
 377 374 l 1,8,-1
 151 26 l 1,9,-1
 495 26 l 1,10,-1
 495 0 l 1,11,-1
 115 0 l 1,0,-1
EndSplineSet
EndChar

StartChar: Phi
Encoding: 934 934 370
Width: 600
GlyphClass: 2
Flags: W
AnchorPoint: "Anchor-3" 300 714 basechar 0
AnchorPoint: "Anchor-0" 300 0 basechar 0
LayerCount: 2
Fore
SplineSet
287 -10 m 1,0,-1
 287 99 l 1,1,2
 222 100 222 100 168.5 130 c 128,-1,3
 115 160 115 160 82.5 220.5 c 128,-1,4
 50 281 50 281 50 373 c 0,5,6
 50 502 50 502 115.5 568 c 128,-1,7
 181 634 181 634 287 637 c 1,8,-1
 287 724 l 1,9,-1
 313 724 l 1,10,-1
 313 637 l 1,11,12
 382 636 382 636 435.5 608.5 c 128,-1,13
 489 581 489 581 519.5 523.5 c 128,-1,14
 550 466 550 466 550 375 c 256,15,16
 550 284 550 284 519.5 223 c 128,-1,17
 489 162 489 162 435.5 131.5 c 128,-1,18
 382 101 382 101 313 99 c 1,19,-1
 313 -10 l 1,20,-1
 287 -10 l 1,0,-1
287 125 m 1,21,-1
 287 612 l 1,22,23
 195 610 195 610 136 551 c 128,-1,24
 77 492 77 492 77 372 c 0,25,26
 77 289 77 289 104.5 234.5 c 128,-1,27
 132 180 132 180 180 153 c 128,-1,28
 228 126 228 126 287 125 c 1,21,-1
313 125 m 1,29,30
 374 126 374 126 421.5 153.5 c 128,-1,31
 469 181 469 181 496 236 c 128,-1,32
 523 291 523 291 523 376 c 0,33,34
 523 500 523 500 465.5 555 c 128,-1,35
 408 610 408 610 313 612 c 1,36,-1
 313 125 l 1,29,30
EndSplineSet
EndChar

StartChar: Psi
Encoding: 936 936 372
Width: 600
GlyphClass: 2
Flags: W
AnchorPoint: "Anchor-3" 300 714 basechar 0
AnchorPoint: "Anchor-0" 300 0 basechar 0
LayerCount: 2
Fore
SplineSet
287 0 m 1,0,-1
 287 224 l 1,1,2
 212 226 212 226 159 249 c 128,-1,3
 106 272 106 272 78 328 c 128,-1,4
 50 384 50 384 50 484 c 2,5,-1
 50 714 l 1,6,-1
 76 714 l 1,7,-1
 76 487 l 2,8,9
 76 408 76 408 95 355.5 c 128,-1,10
 114 303 114 303 160 277 c 128,-1,11
 206 251 206 251 287 249 c 1,12,-1
 287 714 l 1,13,-1
 313 714 l 1,14,-1
 313 249 l 1,15,16
 390 252 390 252 436.5 275.5 c 128,-1,17
 483 299 483 299 503.5 350.5 c 128,-1,18
 524 402 524 402 524 486 c 2,19,-1
 524 714 l 1,20,-1
 550 714 l 1,21,-1
 550 481 l 2,22,23
 550 386 550 386 523 330.5 c 128,-1,24
 496 275 496 275 443.5 250.5 c 128,-1,25
 391 226 391 226 313 224 c 1,26,-1
 313 0 l 1,27,-1
 287 0 l 1,0,-1
EndSplineSet
EndChar

StartChar: uni03A9
Encoding: 937 937 373
Width: 600
GlyphClass: 2
Flags: W
AnchorPoint: "Anchor-3" 299 714 basechar 0
AnchorPoint: "Anchor-0" 300 0 basechar 0
LayerCount: 2
Fore
SplineSet
31 0 m 1,0,-1
 31 25 l 1,1,-1
 198 25 l 1,2,3
 158 60 158 60 125.5 108 c 128,-1,4
 93 156 93 156 74 223 c 128,-1,5
 55 290 55 290 55 381 c 0,6,7
 55 490 55 490 86 566.5 c 128,-1,8
 117 643 117 643 172 684 c 128,-1,9
 227 725 227 725 300 725 c 0,10,11
 411 725 411 725 477.5 637.5 c 128,-1,12
 544 550 544 550 544 379 c 0,13,14
 544 286 544 286 526 219 c 128,-1,15
 508 152 508 152 476 105 c 128,-1,16
 444 58 444 58 402 25 c 1,17,-1
 568 25 l 1,18,-1
 568 0 l 1,19,-1
 358 0 l 1,20,-1
 358 20 l 1,21,22
 435 72 435 72 476 159.5 c 128,-1,23
 517 247 517 247 517 380 c 0,24,25
 517 536 517 536 457 618 c 128,-1,26
 397 700 397 700 301 700 c 0,27,28
 236 700 236 700 187 662 c 128,-1,29
 138 624 138 624 110 553 c 128,-1,30
 82 482 82 482 82 381 c 0,31,32
 82 290 82 290 103 221.5 c 128,-1,33
 124 153 124 153 160 103.5 c 128,-1,34
 196 54 196 54 239 20 c 1,35,-1
 239 0 l 1,36,-1
 31 0 l 1,0,-1
EndSplineSet
EndChar

StartChar: alpha
Encoding: 945 945 381
Width: 600
GlyphClass: 2
Flags: W
AnchorPoint: "Anchor-3" 300 528 basechar 0
AnchorPoint: "Anchor-0" 288 0 basechar 0
LayerCount: 2
Fore
SplineSet
279 -10 m 0,0,1
 174 -10 174 -10 122 60 c 128,-1,2
 70 130 70 130 70 262 c 0,3,4
 70 395 70 395 127.5 466.5 c 128,-1,5
 185 538 185 538 286 538 c 0,6,7
 353 538 353 538 397 510 c 128,-1,8
 441 482 441 482 458 427 c 1,9,-1
 460 427 l 1,10,11
 460 454 460 454 466 480 c 128,-1,12
 472 506 472 506 479 528 c 1,13,-1
 503 528 l 1,14,15
 495 495 495 495 490.5 455.5 c 128,-1,16
 486 416 486 416 486 348 c 2,17,-1
 486 119 l 2,18,19
 486 59 486 59 498.5 37 c 128,-1,20
 511 15 511 15 537 15 c 0,21,22
 558 15 558 15 574 21 c 1,23,-1
 574 -3 l 1,24,25
 558 -10 558 -10 536 -10 c 0,26,27
 492 -10 492 -10 476 18 c 128,-1,28
 460 46 460 46 460 111 c 1,29,-1
 458 111 l 1,30,31
 440 62 440 62 397 26 c 128,-1,32
 354 -10 354 -10 279 -10 c 0,0,1
279 15 m 0,33,34
 374 15 374 15 417 81.5 c 128,-1,35
 460 148 460 148 460 258 c 2,36,-1
 460 281 l 2,37,38
 460 406 460 406 414.5 459.5 c 128,-1,39
 369 513 369 513 286 513 c 0,40,41
 196 513 196 513 146.5 447.5 c 128,-1,42
 97 382 97 382 97 262 c 256,43,44
 97 142 97 142 142.5 78.5 c 128,-1,45
 188 15 188 15 279 15 c 0,33,34
EndSplineSet
EndChar

StartChar: beta
Encoding: 946 946 382
Width: 600
GlyphClass: 2
Flags: W
AnchorPoint: "Anchor-4" 580 765 basechar 0
AnchorPoint: "Anchor-3" 322 765 basechar 0
AnchorPoint: "Anchor-0" 326 0 basechar 0
LayerCount: 2
Fore
SplineSet
105 -240 m 1,0,-1
 105 540 l 2,1,2
 105 641 105 641 158.5 703 c 128,-1,3
 212 765 212 765 316 765 c 0,4,5
 410 765 410 765 462.5 717 c 128,-1,6
 515 669 515 669 515 581 c 0,7,8
 515 514 515 514 480.5 465 c 128,-1,9
 446 416 446 416 384 404 c 1,10,-1
 384 402 l 1,11,12
 458 391 458 391 500 343 c 128,-1,13
 542 295 542 295 542 209 c 0,14,15
 542 113 542 113 479.5 54.5 c 128,-1,16
 417 -4 417 -4 307 -4 c 0,17,18
 257 -4 257 -4 216.5 10 c 128,-1,19
 176 24 176 24 131 54 c 1,20,-1
 131 -240 l 1,21,-1
 105 -240 l 1,0,-1
307 21 m 0,22,23
 404 21 404 21 459.5 71.5 c 128,-1,24
 515 122 515 122 515 209 c 0,25,26
 515 292 515 292 468 340.5 c 128,-1,27
 421 389 421 389 311 389 c 2,28,-1
 252 389 l 1,29,-1
 252 414 l 1,30,-1
 311 414 l 2,31,32
 391 414 391 414 439.5 455 c 128,-1,33
 488 496 488 496 488 581 c 0,34,35
 488 655 488 655 444.5 697.5 c 128,-1,36
 401 740 401 740 316 740 c 0,37,38
 224 740 224 740 177.5 686 c 128,-1,39
 131 632 131 632 131 536 c 2,40,-1
 131 81 l 1,41,42
 173 51 173 51 213 36 c 128,-1,43
 253 21 253 21 307 21 c 0,22,23
EndSplineSet
EndChar

StartChar: gamma
Encoding: 947 947 383
Width: 600
GlyphClass: 2
Flags: W
AnchorPoint: "Anchor-4" 580 528 basechar 0
AnchorPoint: "Anchor-3" 309 528 basechar 0
AnchorPoint: "Anchor-0" 307 -240 basechar 0
LayerCount: 2
Fore
SplineSet
250 -240 m 1,0,1
 250 -196 250 -196 257 -149 c 128,-1,2
 264 -102 264 -102 274 -59 c 128,-1,3
 284 -16 284 -16 294 15 c 1,4,-1
 85 528 l 1,5,-1
 113 528 l 1,6,-1
 268 142 l 2,7,8
 272 133 272 133 284 105 c 128,-1,9
 296 77 296 77 306 47 c 1,10,-1
 308 47 l 1,11,12
 317 72 317 72 325.5 93.5 c 128,-1,13
 334 115 334 115 344 141 c 2,14,-1
 487 528 l 1,15,-1
 515 528 l 1,16,-1
 332 42 l 2,17,18
 304 -33 304 -33 291 -100 c 128,-1,19
 278 -167 278 -167 276 -240 c 1,20,-1
 250 -240 l 1,0,1
EndSplineSet
EndChar

StartChar: delta
Encoding: 948 948 384
Width: 600
GlyphClass: 2
Flags: W
AnchorPoint: "Anchor-3" 337 768 basechar 0
AnchorPoint: "Anchor-0" 306 0 basechar 0
LayerCount: 2
Fore
SplineSet
300 -10 m 0,0,1
 195 -10 195 -10 132.5 49 c 128,-1,2
 70 108 70 108 70 212 c 0,3,4
 70 302 70 302 123.5 367.5 c 128,-1,5
 177 433 177 433 297 468 c 1,6,7
 230 506 230 506 195 540 c 128,-1,8
 160 574 160 574 160 629 c 0,9,10
 160 696 160 696 207 732 c 128,-1,11
 254 768 254 768 331 768 c 0,12,13
 368 768 368 768 411.5 758 c 128,-1,14
 455 748 455 748 505 722 c 1,15,-1
 493 700 l 1,16,17
 450 723 450 723 410.5 733 c 128,-1,18
 371 743 371 743 332 743 c 0,19,20
 258 743 258 743 222.5 713 c 128,-1,21
 187 683 187 683 187 632 c 0,22,23
 187 596 187 596 203 572 c 128,-1,24
 219 548 219 548 250.5 526 c 128,-1,25
 282 504 282 504 328 478 c 0,26,27
 384 446 384 446 430 413 c 128,-1,28
 476 380 476 380 503 334 c 128,-1,29
 530 288 530 288 530 218 c 0,30,31
 530 152 530 152 504 100.5 c 128,-1,32
 478 49 478 49 426.5 19.5 c 128,-1,33
 375 -10 375 -10 300 -10 c 0,0,1
301 15 m 0,34,35
 398 15 398 15 450.5 70 c 128,-1,36
 503 125 503 125 503 215 c 0,37,38
 503 298 503 298 457.5 352 c 128,-1,39
 412 406 412 406 322 451 c 1,40,41
 216 423 216 423 156.5 366.5 c 128,-1,42
 97 310 97 310 97 213 c 0,43,44
 97 118 97 118 153 66.5 c 128,-1,45
 209 15 209 15 301 15 c 0,34,35
EndSplineSet
EndChar

StartChar: epsilon
Encoding: 949 949 385
Width: 600
GlyphClass: 2
Flags: W
AnchorPoint: "Anchor-3" 323 528 basechar 0
AnchorPoint: "Anchor-0" 326 0 basechar 0
LayerCount: 2
Fore
SplineSet
326 -10 m 0,0,1
 226 -10 226 -10 179 31 c 128,-1,2
 132 72 132 72 132 138 c 0,3,4
 132 191 132 191 160.5 228.5 c 128,-1,5
 189 266 189 266 249 281 c 1,6,-1
 249 283 l 1,7,8
 192 300 192 300 171 330 c 128,-1,9
 150 360 150 360 150 401 c 0,10,11
 150 451 150 451 176 481 c 128,-1,12
 202 511 202 511 244 524.5 c 128,-1,13
 286 538 286 538 333 538 c 0,14,15
 389 538 389 538 423.5 530 c 128,-1,16
 458 522 458 522 494 508 c 1,17,-1
 485 484 l 1,18,19
 456 497 456 497 418.5 505 c 128,-1,20
 381 513 381 513 334 513 c 0,21,22
 258 513 258 513 217.5 484 c 128,-1,23
 177 455 177 455 177 401 c 0,24,25
 177 348 177 348 219 321 c 128,-1,26
 261 294 261 294 350 294 c 2,27,-1
 424 294 l 1,28,-1
 424 269 l 1,29,-1
 344 269 l 2,30,31
 256 269 256 269 207.5 238 c 128,-1,32
 159 207 159 207 159 138 c 0,33,34
 159 86 159 86 199 50.5 c 128,-1,35
 239 15 239 15 326 15 c 0,36,37
 378 15 378 15 418 23 c 128,-1,38
 458 31 458 31 495 45 c 1,39,-1
 495 20 l 1,40,41
 469 9 469 9 426.5 -0.5 c 128,-1,42
 384 -10 384 -10 326 -10 c 0,0,1
EndSplineSet
EndChar

StartChar: zeta
Encoding: 950 950 386
Width: 600
GlyphClass: 2
Flags: W
AnchorPoint: "Anchor-3" 339 760 basechar 0
AnchorPoint: "Anchor-0" 337 -197 basechar 0
LayerCount: 2
Fore
SplineSet
429 -197 m 1,0,1
 457 -163 457 -163 470.5 -132.5 c 128,-1,2
 484 -102 484 -102 484 -77 c 0,3,4
 484 -32 484 -32 452.5 -15 c 128,-1,5
 421 2 421 2 353 12 c 0,6,7
 246 28 246 28 197.5 80 c 128,-1,8
 149 132 149 132 149 224 c 0,9,10
 149 292 149 292 168.5 349 c 128,-1,11
 188 406 188 406 228.5 463 c 128,-1,12
 269 520 269 520 331.5 586 c 128,-1,13
 394 652 394 652 481 736 c 1,14,15
 452 735 452 735 425 735 c 128,-1,16
 398 735 398 735 369 735 c 2,17,-1
 182 735 l 1,18,-1
 182 760 l 1,19,-1
 518 760 l 1,20,-1
 518 738 l 1,21,22
 426 649 426 649 361 581.5 c 128,-1,23
 296 514 296 514 255 458 c 128,-1,24
 214 402 214 402 195 346 c 128,-1,25
 176 290 176 290 176 224 c 0,26,27
 176 141 176 141 221 96 c 128,-1,28
 266 51 266 51 361 36 c 0,29,30
 408 28 408 28 441.5 17.5 c 128,-1,31
 475 7 475 7 493 -15 c 128,-1,32
 511 -37 511 -37 511 -77 c 0,33,34
 511 -107 511 -107 497.5 -136.5 c 128,-1,35
 484 -166 484 -166 459 -197 c 1,36,-1
 429 -197 l 1,0,1
EndSplineSet
EndChar

StartChar: eta
Encoding: 951 951 387
Width: 600
GlyphClass: 2
Flags: W
AnchorPoint: "Anchor-4" 580 528 basechar 0
AnchorPoint: "Anchor-3" 307 528 basechar 0
AnchorPoint: "Anchor-0" 298 -240 basechar 0
LayerCount: 2
Fore
SplineSet
105 0 m 1,0,-1
 105 528 l 1,1,-1
 127 528 l 1,2,-1
 130 417 l 1,3,-1
 132 417 l 1,4,5
 144 448 144 448 166.5 475 c 128,-1,6
 189 502 189 502 226.5 519.5 c 128,-1,7
 264 537 264 537 320 537 c 0,8,9
 404 537 404 537 452 491.5 c 128,-1,10
 500 446 500 446 500 354 c 2,11,-1
 500 -240 l 1,12,-1
 474 -240 l 1,13,-1
 474 345 l 2,14,15
 474 433 474 433 433 472.5 c 128,-1,16
 392 512 392 512 319 512 c 0,17,18
 235 512 235 512 183 461 c 128,-1,19
 131 410 131 410 131 302 c 2,20,-1
 131 0 l 1,21,-1
 105 0 l 1,0,-1
EndSplineSet
EndChar

StartChar: theta
Encoding: 952 952 388
Width: 600
GlyphClass: 2
Flags: W
AnchorPoint: "Anchor-4" 580 775 basechar 0
AnchorPoint: "Anchor-3" 301 775 basechar 0
AnchorPoint: "Anchor-0" 299 0 basechar 0
LayerCount: 2
Fore
SplineSet
298 -10 m 0,0,1
 192 -10 192 -10 135 87.5 c 128,-1,2
 78 185 78 185 78 392 c 0,3,4
 78 586 78 586 136 680.5 c 128,-1,5
 194 775 194 775 300 775 c 0,6,7
 408 775 408 775 464.5 681 c 128,-1,8
 521 587 521 587 521 394 c 0,9,10
 521 186 521 186 463 88 c 128,-1,11
 405 -10 405 -10 298 -10 c 0,0,1
105 407 m 1,12,-1
 493 407 l 1,13,14
 490 750 490 750 300 750 c 0,15,16
 109 750 109 750 105 407 c 1,12,-1
298 15 m 0,17,18
 396 15 396 15 444 106.5 c 128,-1,19
 492 198 492 198 494 382 c 1,20,-1
 105 382 l 1,21,22
 109 15 109 15 298 15 c 0,17,18
EndSplineSet
EndChar

StartChar: iota
Encoding: 953 953 389
Width: 600
GlyphClass: 2
Flags: W
AnchorPoint: "Anchor-3" 280 528 basechar 0
AnchorPoint: "Anchor-0" 373 0 basechar 0
LayerCount: 2
Fore
SplineSet
396 -10 m 0,0,1
 332 -10 332 -10 299 25 c 128,-1,2
 266 60 266 60 266 136 c 2,3,-1
 266 528 l 1,4,-1
 292 528 l 1,5,-1
 292 143 l 2,6,7
 292 73 292 73 318.5 44 c 128,-1,8
 345 15 345 15 398 15 c 0,9,10
 413 15 413 15 427.5 17 c 128,-1,11
 442 19 442 19 454 22 c 1,12,-1
 454 -3 l 1,13,14
 430 -10 430 -10 396 -10 c 0,0,1
EndSplineSet
EndChar

StartChar: lambda
Encoding: 955 955 391
Width: 600
GlyphClass: 2
Flags: W
AnchorPoint: "Anchor-3" 301 766 basechar 0
AnchorPoint: "Anchor-0" 299 0 basechar 0
LayerCount: 2
Fore
SplineSet
518 -8 m 0,0,1
 490 -8 490 -8 475 8 c 128,-1,2
 460 24 460 24 449 55 c 2,3,-1
 322 426 l 2,4,5
 314 450 314 450 307.5 467.5 c 128,-1,6
 301 485 301 485 296 504 c 1,7,-1
 294 504 l 1,8,9
 287 486 287 486 280.5 468 c 128,-1,10
 274 450 274 450 266 433 c 2,11,-1
 83 0 l 1,12,-1
 53 0 l 1,13,-1
 283 537 l 1,14,-1
 247 646 l 2,15,16
 228 702 228 702 206.5 721.5 c 128,-1,17
 185 741 185 741 151 741 c 0,18,19
 138 741 138 741 127 738.5 c 128,-1,20
 116 736 116 736 107 733 c 1,21,-1
 107 759 l 1,22,23
 117 762 117 762 128.5 764 c 128,-1,24
 140 766 140 766 157 766 c 0,25,26
 200 766 200 766 224.5 744 c 128,-1,27
 249 722 249 722 270 660 c 2,28,-1
 474 64 l 2,29,30
 484 36 484 36 495.5 26.5 c 128,-1,31
 507 17 507 17 521 17 c 0,32,33
 529 17 529 17 535.5 18.5 c 128,-1,34
 542 20 542 20 546 21 c 1,35,-1
 546 -3 l 1,36,37
 541 -5 541 -5 534.5 -6.5 c 128,-1,38
 528 -8 528 -8 518 -8 c 0,0,1
EndSplineSet
EndChar

StartChar: uni03BC
Encoding: 956 956 392
Width: 600
GlyphClass: 2
Flags: W
AnchorPoint: "Anchor-4" 580 528 basechar 0
AnchorPoint: "Anchor-3" 300 528 basechar 0
AnchorPoint: "Anchor-2" 540 10 basechar 0
AnchorPoint: "Anchor-0" 300 -240 basechar 0
LayerCount: 2
Fore
SplineSet
100 -240 m 1,0,-1
 100 528 l 1,1,-1
 126 528 l 1,2,-1
 126 198 l 2,3,4
 126 103 126 103 166 59 c 128,-1,5
 206 15 206 15 282 15 c 0,6,7
 364 15 364 15 416.5 66.5 c 128,-1,8
 469 118 469 118 469 226 c 2,9,-1
 469 528 l 1,10,-1
 495 528 l 1,11,-1
 495 0 l 1,12,-1
 473 0 l 1,13,-1
 470 112 l 1,14,-1
 468 112 l 1,15,16
 457 82 457 82 434 54 c 128,-1,17
 411 26 411 26 373.5 8 c 128,-1,18
 336 -10 336 -10 281 -10 c 0,19,20
 170 -10 170 -10 126 71 c 1,21,-1
 126 -240 l 1,22,-1
 100 -240 l 1,0,-1
EndSplineSet
EndChar

StartChar: nu
Encoding: 957 957 393
Width: 600
GlyphClass: 2
Flags: W
AnchorPoint: "Anchor-3" 318 528 basechar 0
AnchorPoint: "Anchor-0" 322 0 basechar 0
LayerCount: 2
Fore
SplineSet
269 0 m 1,0,-1
 85 528 l 1,1,-1
 114 528 l 1,2,-1
 271 67 l 2,3,4
 274 58 274 58 277.5 48.5 c 128,-1,5
 281 39 281 39 284 30 c 1,6,-1
 286 30 l 1,7,8
 380 118 380 118 434.5 240 c 128,-1,9
 489 362 489 362 489 528 c 1,10,-1
 515 528 l 1,11,12
 515 354 515 354 457.5 227 c 128,-1,13
 400 100 400 100 292 0 c 1,14,-1
 269 0 l 1,0,-1
EndSplineSet
EndChar

StartChar: xi
Encoding: 958 958 394
Width: 600
GlyphClass: 2
Flags: W
AnchorPoint: "Anchor-3" 339 760 basechar 0
AnchorPoint: "Anchor-0" 337 -197 basechar 0
LayerCount: 2
Fore
SplineSet
399 -197 m 1,0,1
 429 -154 429 -154 440.5 -127 c 128,-1,2
 452 -100 452 -100 452 -74 c 0,3,4
 452 -45 452 -45 438.5 -29.5 c 128,-1,5
 425 -14 425 -14 394.5 -4 c 128,-1,6
 364 6 364 6 315 17 c 0,7,8
 280 25 280 25 245.5 36.5 c 128,-1,9
 211 48 211 48 183 67.5 c 128,-1,10
 155 87 155 87 138 120.5 c 128,-1,11
 121 154 121 154 121 206 c 0,12,13
 121 292 121 292 166.5 337.5 c 128,-1,14
 212 383 212 383 285 400 c 1,15,-1
 285 402 l 1,16,17
 223 414 223 414 188 452 c 128,-1,18
 153 490 153 490 153 557 c 0,19,20
 153 612 153 612 175.5 648 c 128,-1,21
 198 684 198 684 236 705 c 128,-1,22
 274 726 274 726 319 737 c 1,23,24
 291 736 291 736 268 735.5 c 128,-1,25
 245 735 245 735 204 735 c 2,26,-1
 153 735 l 1,27,-1
 153 760 l 1,28,-1
 469 760 l 1,29,-1
 469 735 l 1,30,-1
 435 735 l 2,31,32
 390 735 390 735 345 726 c 128,-1,33
 300 717 300 717 262.5 696.5 c 128,-1,34
 225 676 225 676 202.5 641 c 128,-1,35
 180 606 180 606 180 554 c 0,36,37
 180 481 180 481 230 448 c 128,-1,38
 280 415 280 415 376 415 c 2,39,-1
 442 415 l 1,40,-1
 442 390 l 1,41,-1
 376 390 l 2,42,43
 312 390 312 390 260 371 c 128,-1,44
 208 352 208 352 178 311.5 c 128,-1,45
 148 271 148 271 148 206 c 0,46,47
 148 146 148 146 173 114 c 128,-1,48
 198 82 198 82 238.5 66.5 c 128,-1,49
 279 51 279 51 326 40 c 0,50,51
 372 29 372 29 406.5 17.5 c 128,-1,52
 441 6 441 6 459.5 -14 c 128,-1,53
 478 -34 478 -34 478 -73 c 0,54,55
 478 -102 478 -102 466.5 -130.5 c 128,-1,56
 455 -159 455 -159 429 -197 c 1,57,-1
 399 -197 l 1,0,1
EndSplineSet
EndChar

StartChar: pi
Encoding: 960 960 396
Width: 600
GlyphClass: 2
Flags: W
AnchorPoint: "Anchor-3" 310 528 basechar 0
AnchorPoint: "Anchor-0" 310 0 basechar 0
LayerCount: 2
Fore
SplineSet
503 -10 m 0,0,1
 462 -10 462 -10 439.5 16 c 128,-1,2
 417 42 417 42 417 92 c 2,3,-1
 417 505 l 1,4,-1
 180 505 l 1,5,-1
 180 0 l 1,6,-1
 154 0 l 1,7,-1
 154 505 l 1,8,-1
 47 505 l 1,9,-1
 47 523 l 1,10,-1
 133 528 l 1,11,-1
 553 528 l 1,12,-1
 553 505 l 1,13,-1
 443 505 l 1,14,-1
 443 100 l 2,15,16
 443 59 443 59 457.5 37 c 128,-1,17
 472 15 472 15 507 15 c 0,18,19
 522 15 522 15 531 17 c 128,-1,20
 540 19 540 19 547 21 c 1,21,-1
 547 -4 l 1,22,23
 540 -6 540 -6 528.5 -8 c 128,-1,24
 517 -10 517 -10 503 -10 c 0,0,1
EndSplineSet
EndChar

StartChar: rho
Encoding: 961 961 397
Width: 600
GlyphClass: 2
Flags: W
AnchorPoint: "Anchor-3" 316 528 basechar 0
AnchorPoint: "Anchor-0" 300 -240 basechar 0
LayerCount: 2
Fore
SplineSet
105 -240 m 1,0,-1
 105 284 l 2,1,2
 105 408 105 408 157.5 473 c 128,-1,3
 210 538 210 538 317 538 c 0,4,5
 530 538 530 538 530 266 c 0,6,7
 530 135 530 135 472.5 62.5 c 128,-1,8
 415 -10 415 -10 305 -10 c 0,9,10
 246 -10 246 -10 203 6.5 c 128,-1,11
 160 23 160 23 131 46 c 1,12,-1
 129 46 l 1,13,14
 130 13 130 13 130.5 -10.5 c 128,-1,15
 131 -34 131 -34 131 -63 c 2,16,-1
 131 -240 l 1,17,-1
 105 -240 l 1,0,-1
307 15 m 0,18,19
 399 15 399 15 451 78.5 c 128,-1,20
 503 142 503 142 503 266 c 0,21,22
 503 386 503 386 458.5 449 c 128,-1,23
 414 512 414 512 317 512 c 256,24,25
 220 512 220 512 175.5 451 c 128,-1,26
 131 390 131 390 131 276 c 2,27,-1
 131 76 l 1,28,29
 164 48 164 48 208.5 31.5 c 128,-1,30
 253 15 253 15 307 15 c 0,18,19
EndSplineSet
EndChar

StartChar: sigma1
Encoding: 962 962 398
Width: 600
GlyphClass: 2
Flags: W
AnchorPoint: "Anchor-3" 353 528 basechar 0
AnchorPoint: "Anchor-0" 341 -207 basechar 0
LayerCount: 2
Fore
SplineSet
387 -197 m 1,0,1
 415 -160 415 -160 428.5 -131 c 128,-1,2
 442 -102 442 -102 442 -73 c 0,3,4
 442 -43 442 -43 428 -27 c 128,-1,5
 414 -11 414 -11 385 -1.5 c 128,-1,6
 356 8 356 8 311 17 c 0,7,8
 196 42 196 42 143 98.5 c 128,-1,9
 90 155 90 155 90 266 c 0,10,11
 90 395 90 395 157.5 466.5 c 128,-1,12
 225 538 225 538 355 538 c 0,13,14
 392 538 392 538 423 532.5 c 128,-1,15
 454 527 454 527 480 517 c 1,16,-1
 476 492 l 1,17,18
 420 513 420 513 354 513 c 0,19,20
 238 513 238 513 177.5 449 c 128,-1,21
 117 385 117 385 117 266 c 0,22,23
 117 193 117 193 140 149 c 128,-1,24
 163 105 163 105 208.5 80.5 c 128,-1,25
 254 56 254 56 322 40 c 0,26,27
 367 30 367 30 400 19 c 128,-1,28
 433 8 433 8 451 -12 c 128,-1,29
 469 -32 469 -32 469 -71 c 256,30,31
 469 -110 469 -110 453 -140 c 128,-1,32
 437 -170 437 -170 417 -197 c 1,33,-1
 387 -197 l 1,0,1
EndSplineSet
EndChar

StartChar: sigma
Encoding: 963 963 399
Width: 600
GlyphClass: 2
Flags: W
AnchorPoint: "Anchor-3" 290 528 basechar 0
AnchorPoint: "Anchor-0" 290 0 basechar 0
LayerCount: 2
Fore
SplineSet
290 -10 m 0,0,1
 216 -10 216 -10 167.5 23 c 128,-1,2
 119 56 119 56 94.5 114.5 c 128,-1,3
 70 173 70 173 70 248 c 0,4,5
 70 377 70 377 136 452.5 c 128,-1,6
 202 528 202 528 344 528 c 2,7,-1
 546 528 l 1,8,-1
 546 503 l 1,9,-1
 423 503 l 1,10,11
 464 447 464 447 487 387.5 c 128,-1,12
 510 328 510 328 510 252 c 0,13,14
 510 130 510 130 452.5 60 c 128,-1,15
 395 -10 395 -10 290 -10 c 0,0,1
292 15 m 0,16,17
 385 15 385 15 434 78 c 128,-1,18
 483 141 483 141 483 252 c 0,19,20
 483 331 483 331 459 389.5 c 128,-1,21
 435 448 435 448 391 503 c 1,22,-1
 344 503 l 2,23,24
 215 503 215 503 156 435 c 128,-1,25
 97 367 97 367 97 248 c 0,26,27
 97 180 97 180 118.5 127.5 c 128,-1,28
 140 75 140 75 183 45 c 128,-1,29
 226 15 226 15 292 15 c 0,16,17
EndSplineSet
EndChar

StartChar: tau
Encoding: 964 964 400
Width: 600
GlyphClass: 2
Flags: W
AnchorPoint: "Anchor-3" 296 528 basechar 0
AnchorPoint: "Anchor-0" 337 0 basechar 0
LayerCount: 2
Fore
SplineSet
387 -9 m 0,0,1
 313 -9 313 -9 284 33.5 c 128,-1,2
 255 76 255 76 255 149 c 2,3,-1
 255 503 l 1,4,-1
 109 503 l 1,5,-1
 109 524 l 1,6,-1
 182 528 l 1,7,-1
 490 528 l 1,8,-1
 490 503 l 1,9,-1
 281 503 l 1,10,-1
 281 154 l 2,11,12
 281 86 281 86 303.5 50.5 c 128,-1,13
 326 15 326 15 390 15 c 0,14,15
 410 15 410 15 430 18.5 c 128,-1,16
 450 22 450 22 466 27 c 1,17,-1
 466 3 l 1,18,19
 452 -2 452 -2 431 -5.5 c 128,-1,20
 410 -9 410 -9 387 -9 c 0,0,1
EndSplineSet
EndChar

StartChar: upsilon
Encoding: 965 965 401
Width: 600
GlyphClass: 2
Flags: W
AnchorPoint: "Anchor-3" 300 528 basechar 0
AnchorPoint: "Anchor-0" 297 0 basechar 0
LayerCount: 2
Fore
SplineSet
299 -10 m 0,0,1
 206 -10 206 -10 155.5 50 c 128,-1,2
 105 110 105 110 105 231 c 2,3,-1
 105 528 l 1,4,-1
 131 528 l 1,5,-1
 131 235 l 2,6,7
 131 120 131 120 174.5 67.5 c 128,-1,8
 218 15 218 15 301 15 c 0,9,10
 487 15 487 15 487 292 c 0,11,12
 487 351 487 351 480.5 411 c 128,-1,13
 474 471 474 471 457 528 c 1,14,-1
 485 528 l 1,15,16
 500 471 500 471 507 412.5 c 128,-1,17
 514 354 514 354 514 292 c 0,18,19
 514 143 514 143 460.5 66.5 c 128,-1,20
 407 -10 407 -10 299 -10 c 0,0,1
EndSplineSet
EndChar

StartChar: phi
Encoding: 966 966 402
Width: 600
GlyphClass: 2
Flags: W
AnchorPoint: "Anchor-3" 296 528 basechar 0
AnchorPoint: "Anchor-0" 296 -240 basechar 0
LayerCount: 2
Fore
SplineSet
283 -240 m 1,0,-1
 283 -11 l 1,1,2
 174 -6 174 -6 122 69.5 c 128,-1,3
 70 145 70 145 70 266 c 0,4,5
 70 352 70 352 95.5 415 c 128,-1,6
 121 478 121 478 168 535 c 1,7,-1
 189 522 l 1,8,9
 146 469 146 469 121.5 411 c 128,-1,10
 97 353 97 353 97 267 c 0,11,12
 97 153 97 153 142.5 85.5 c 128,-1,13
 188 18 188 18 283 14 c 1,14,-1
 283 369 l 2,15,16
 283 450 283 450 307.5 494 c 128,-1,17
 332 538 332 538 387 538 c 0,18,19
 434 538 434 538 465.5 507 c 128,-1,20
 497 476 497 476 513.5 421 c 128,-1,21
 530 366 530 366 530 294 c 0,22,23
 530 157 530 157 472.5 76.5 c 128,-1,24
 415 -4 415 -4 310 -11 c 1,25,-1
 310 -240 l 1,26,-1
 283 -240 l 1,0,-1
309 14 m 1,27,28
 398 18 398 18 450.5 90 c 128,-1,29
 503 162 503 162 503 292 c 0,30,31
 503 356 503 356 489.5 406 c 128,-1,32
 476 456 476 456 450 484.5 c 128,-1,33
 424 513 424 513 387 513 c 0,34,35
 342 513 342 513 325.5 473.5 c 128,-1,36
 309 434 309 434 309 370 c 2,37,-1
 309 14 l 1,27,28
EndSplineSet
EndChar

StartChar: chi
Encoding: 967 967 403
Width: 600
GlyphClass: 2
Flags: W
AnchorPoint: "Anchor-4" 580 528 basechar 0
AnchorPoint: "Anchor-3" 294 528 basechar 0
AnchorPoint: "Anchor-0" 294 -243 basechar 0
LayerCount: 2
Fore
SplineSet
480 -243 m 0,0,1
 442 -243 442 -243 420 -220.5 c 128,-1,2
 398 -198 398 -198 381 -146 c 2,3,-1
 291 134 l 1,4,-1
 121 -240 l 1,5,-1
 92 -240 l 1,6,-1
 276 160 l 1,7,-1
 176 460 l 2,8,9
 166 492 166 492 152 502 c 128,-1,10
 138 512 138 512 122 512 c 0,11,12
 111 512 111 512 102.5 510 c 128,-1,13
 94 508 94 508 85 505 c 1,14,-1
 85 529 l 1,15,16
 92 532 92 532 102 534.5 c 128,-1,17
 112 537 112 537 126 537 c 0,18,19
 178 537 178 537 199 473 c 2,20,-1
 294 184 l 1,21,-1
 452 528 l 1,22,-1
 480 528 l 1,23,-1
 310 158 l 1,24,-1
 402 -126 l 2,25,26
 420 -182 420 -182 438 -200 c 128,-1,27
 456 -218 456 -218 482 -218 c 0,28,29
 492 -218 492 -218 500 -216.5 c 128,-1,30
 508 -215 508 -215 515 -213 c 1,31,-1
 515 -237 l 1,32,33
 508 -239 508 -239 499.5 -241 c 128,-1,34
 491 -243 491 -243 480 -243 c 0,0,1
EndSplineSet
EndChar

StartChar: psi
Encoding: 968 968 404
Width: 600
GlyphClass: 2
Flags: W
AnchorPoint: "Anchor-3" 310 759 basechar 0
AnchorPoint: "Anchor-0" 310 -240 basechar 0
LayerCount: 2
Fore
SplineSet
297 -240 m 1,0,-1
 297 -5 l 1,1,2
 194 0 194 0 149.5 73 c 128,-1,3
 105 146 105 146 105 267 c 2,4,-1
 105 528 l 1,5,-1
 130 528 l 1,6,-1
 130 270 l 2,7,8
 130 158 130 158 169 91 c 128,-1,9
 208 24 208 24 297 20 c 1,10,-1
 297 759 l 1,11,-1
 323 759 l 1,12,-1
 323 20 l 1,13,14
 420 24 420 24 461.5 99.5 c 128,-1,15
 503 175 503 175 503 303 c 0,16,17
 503 368 503 368 494.5 421 c 128,-1,18
 486 474 486 474 470 528 c 1,19,-1
 497 528 l 1,20,21
 512 477 512 477 521 424 c 128,-1,22
 530 371 530 371 530 303 c 0,23,24
 530 215 530 215 510 147 c 128,-1,25
 490 79 490 79 444.5 39.5 c 128,-1,26
 399 0 399 0 323 -5 c 1,27,-1
 323 -240 l 1,28,-1
 297 -240 l 1,0,-1
EndSplineSet
EndChar

StartChar: omega
Encoding: 969 969 405
Width: 600
GlyphClass: 2
Flags: W
AnchorPoint: "Anchor-3" 300 528 basechar 0
AnchorPoint: "Anchor-0" 300 0 basechar 0
LayerCount: 2
Fore
SplineSet
201 -10 m 0,0,1
 140 -10 140 -10 105 54.5 c 128,-1,2
 70 119 70 119 70 251 c 0,3,4
 70 332 70 332 86.5 397 c 128,-1,5
 103 462 103 462 134 528 c 1,6,-1
 161 528 l 1,7,8
 130 460 130 460 113.5 394 c 128,-1,9
 97 328 97 328 97 251 c 0,10,11
 97 15 97 15 204 15 c 0,12,13
 288 15 288 15 288 171 c 2,14,-1
 288 338 l 1,15,-1
 314 338 l 1,16,-1
 314 171 l 2,17,18
 314 15 314 15 397 15 c 0,19,20
 452 15 452 15 477.5 76.5 c 128,-1,21
 503 138 503 138 503 251 c 0,22,23
 503 327 503 327 486.5 394 c 128,-1,24
 470 461 470 461 439 528 c 1,25,-1
 466 528 l 1,26,27
 495 464 495 464 512.5 397 c 128,-1,28
 530 330 530 330 530 251 c 0,29,30
 530 183 530 183 518 123.5 c 128,-1,31
 506 64 506 64 477.5 27 c 128,-1,32
 449 -10 449 -10 398 -10 c 0,33,34
 357 -10 357 -10 333 15 c 128,-1,35
 309 40 309 40 301 87 c 1,36,-1
 299 87 l 1,37,38
 291 40 291 40 265 15 c 128,-1,39
 239 -10 239 -10 201 -10 c 0,0,1
EndSplineSet
EndChar

StartChar: afii10051
Encoding: 1026 1026 412
Width: 600
GlyphClass: 2
Flags: W
AnchorPoint: "Anchor-3" 195 714 basechar 0
AnchorPoint: "Anchor-0" 300 0 basechar 0
LayerCount: 2
Fore
SplineSet
356 -10 m 0,0,1
 325 -10 325 -10 304 -2 c 1,2,-1
 304 25 l 1,3,4
 318 20 318 20 331.5 17.5 c 128,-1,5
 345 15 345 15 358 15 c 0,6,7
 414 15 414 15 444 50.5 c 128,-1,8
 474 86 474 86 474 156 c 2,9,-1
 474 257 l 2,10,11
 474 329 474 329 437 363.5 c 128,-1,12
 400 398 400 398 312 398 c 2,13,-1
 165 398 l 1,14,-1
 165 0 l 1,15,-1
 139 0 l 1,16,-1
 139 689 l 1,17,-1
 0 689 l 1,18,-1
 0 714 l 1,19,-1
 371 714 l 1,20,-1
 371 689 l 1,21,-1
 165 689 l 1,22,-1
 165 423 l 1,23,-1
 321 423 l 2,24,25
 411 423 411 423 455.5 383.5 c 128,-1,26
 500 344 500 344 500 260 c 2,27,-1
 500 152 l 2,28,29
 500 74 500 74 463 32 c 128,-1,30
 426 -10 426 -10 356 -10 c 0,0,1
EndSplineSet
EndChar

StartChar: afii10053
Encoding: 1028 1028 414
Width: 600
GlyphClass: 2
Flags: W
AnchorPoint: "Anchor-3" 384 714 basechar 0
AnchorPoint: "Anchor-0" 378 0 basechar 0
LayerCount: 2
Fore
SplineSet
375 -10 m 0,0,1
 269 -10 269 -10 198 36 c 128,-1,2
 127 82 127 82 91 163 c 128,-1,3
 55 244 55 244 55 349 c 0,4,5
 55 462 55 462 95 546.5 c 128,-1,6
 135 631 135 631 210 677.5 c 128,-1,7
 285 724 285 724 391 724 c 0,8,9
 484 724 484 724 565 687 c 1,10,-1
 555 662 l 1,11,12
 512 684 512 684 470 691.5 c 128,-1,13
 428 699 428 699 394 699 c 0,14,15
 293 699 293 699 225.5 657 c 128,-1,16
 158 615 158 615 122 542.5 c 128,-1,17
 86 470 86 470 82 379 c 1,18,-1
 473 379 l 1,19,-1
 473 354 l 1,20,-1
 82 354 l 1,21,22
 84 255 84 255 114 178.5 c 128,-1,23
 144 102 144 102 208.5 58.5 c 128,-1,24
 273 15 273 15 377 15 c 0,25,26
 420 15 420 15 467.5 22.5 c 128,-1,27
 515 30 515 30 552 44 c 1,28,-1
 552 21 l 1,29,30
 518 8 518 8 470 -1 c 128,-1,31
 422 -10 422 -10 375 -10 c 0,0,1
EndSplineSet
EndChar

StartChar: afii10058
Encoding: 1033 1033 419
Width: 600
GlyphClass: 2
Flags: W
AnchorPoint: "Anchor-3" 275 714 basechar 0
AnchorPoint: "Anchor-0" 300 0 basechar 0
LayerCount: 2
Fore
SplineSet
52 -9 m 0,0,1
 28 -9 28 -9 10 -1 c 1,2,-1
 10 25 l 1,3,4
 29 17 29 17 52 17 c 0,5,6
 94 17 94 17 112 60 c 128,-1,7
 130 103 130 103 140 172 c 0,8,9
 147 220 147 220 153 285.5 c 128,-1,10
 159 351 159 351 164.5 425.5 c 128,-1,11
 170 500 170 500 174.5 574.5 c 128,-1,12
 179 649 179 649 182 714 c 1,13,-1
 358 714 l 1,14,-1
 358 391 l 1,15,-1
 425 391 l 2,16,17
 500 391 500 391 542.5 347.5 c 128,-1,18
 585 304 585 304 585 201 c 0,19,20
 585 101 585 101 544.5 50.5 c 128,-1,21
 504 0 504 0 430 0 c 2,22,-1
 332 0 l 1,23,-1
 332 689 l 1,24,-1
 206 689 l 1,25,26
 203 632 203 632 198.5 559.5 c 128,-1,27
 194 487 194 487 188.5 412.5 c 128,-1,28
 183 338 183 338 177 273.5 c 128,-1,29
 171 209 171 209 166 168 c 0,30,31
 155 82 155 82 130 36.5 c 128,-1,32
 105 -9 105 -9 52 -9 c 0,0,1
358 25 m 1,33,-1
 425 25 l 2,34,35
 558 25 558 25 558 200 c 0,36,37
 558 290 558 290 523.5 328 c 128,-1,38
 489 366 489 366 420 366 c 2,39,-1
 358 366 l 1,40,-1
 358 25 l 1,33,-1
EndSplineSet
EndChar

StartChar: afii10059
Encoding: 1034 1034 420
Width: 600
GlyphClass: 2
Flags: W
AnchorPoint: "Anchor-3" 201 714 basechar 0
AnchorPoint: "Anchor-0" 300 0 basechar 0
LayerCount: 2
Fore
SplineSet
60 0 m 1,0,-1
 60 714 l 1,1,-1
 86 714 l 1,2,-1
 86 391 l 1,3,-1
 317 391 l 1,4,-1
 317 714 l 1,5,-1
 343 714 l 1,6,-1
 343 391 l 1,7,-1
 425 391 l 2,8,9
 500 391 500 391 542.5 347.5 c 128,-1,10
 585 304 585 304 585 201 c 0,11,12
 585 101 585 101 544.5 50.5 c 128,-1,13
 504 0 504 0 430 0 c 2,14,-1
 317 0 l 1,15,-1
 317 366 l 1,16,-1
 86 366 l 1,17,-1
 86 0 l 1,18,-1
 60 0 l 1,0,-1
343 25 m 1,19,-1
 425 25 l 2,20,21
 558 25 558 25 558 200 c 0,22,23
 558 290 558 290 523.5 328 c 128,-1,24
 489 366 489 366 420 366 c 2,25,-1
 343 366 l 1,26,-1
 343 25 l 1,19,-1
EndSplineSet
EndChar

StartChar: afii10060
Encoding: 1035 1035 421
Width: 600
GlyphClass: 2
Flags: W
AnchorPoint: "Anchor-3" 192 714 basechar 0
AnchorPoint: "Anchor-0" 319 0 basechar 0
LayerCount: 2
Fore
SplineSet
139 0 m 1,0,-1
 139 689 l 1,1,-1
 0 689 l 1,2,-1
 0 714 l 1,3,-1
 373 714 l 1,4,-1
 373 689 l 1,5,-1
 165 689 l 1,6,-1
 165 423 l 1,7,-1
 339 423 l 2,8,9
 422 423 422 423 461 385.5 c 128,-1,10
 500 348 500 348 500 262 c 2,11,-1
 500 0 l 1,12,-1
 474 0 l 1,13,-1
 474 258 l 2,14,15
 474 332 474 332 441.5 365 c 128,-1,16
 409 398 409 398 333 398 c 2,17,-1
 165 398 l 1,18,-1
 165 0 l 1,19,-1
 139 0 l 1,0,-1
EndSplineSet
EndChar

StartChar: afii10145
Encoding: 1039 1039 424
Width: 600
GlyphClass: 2
Flags: W
AnchorPoint: "Anchor-3" 300 714 basechar 0
AnchorPoint: "Anchor-0" 300 -175 basechar 0
LayerCount: 2
Fore
SplineSet
287 -175 m 1,0,-1
 287 0 l 1,1,-1
 95 0 l 1,2,-1
 95 714 l 1,3,-1
 121 714 l 1,4,-1
 121 25 l 1,5,-1
 479 25 l 1,6,-1
 479 714 l 1,7,-1
 505 714 l 1,8,-1
 505 0 l 1,9,-1
 313 0 l 1,10,-1
 313 -175 l 1,11,-1
 287 -175 l 1,0,-1
EndSplineSet
EndChar

StartChar: afii10018
Encoding: 1041 1041 426
Width: 600
GlyphClass: 2
Flags: W
AnchorPoint: "Anchor-3" 300 714 basechar 0
AnchorPoint: "Anchor-0" 300 0 basechar 0
LayerCount: 2
Fore
SplineSet
115 0 m 1,0,-1
 115 714 l 1,1,-1
 515 714 l 1,2,-1
 515 689 l 1,3,-1
 141 689 l 1,4,-1
 141 393 l 1,5,-1
 307 393 l 2,6,7
 378 393 378 393 430.5 376 c 128,-1,8
 483 359 483 359 511.5 317.5 c 128,-1,9
 540 276 540 276 540 203 c 0,10,11
 540 101 540 101 482 50.5 c 128,-1,12
 424 0 424 0 318 0 c 2,13,-1
 115 0 l 1,0,-1
141 25 m 1,14,-1
 311 25 l 2,15,16
 413 25 413 25 463 67 c 128,-1,17
 513 109 513 109 513 203 c 0,18,19
 513 269 513 269 487.5 304.5 c 128,-1,20
 462 340 462 340 414.5 354 c 128,-1,21
 367 368 367 368 302 368 c 2,22,-1
 141 368 l 1,23,-1
 141 25 l 1,14,-1
EndSplineSet
EndChar

StartChar: afii10021
Encoding: 1044 1044 429
Width: 600
GlyphClass: 2
Flags: W
AnchorPoint: "Anchor-3" 380 714 basechar 0
AnchorPoint: "Anchor-0" 300 -175 basechar 0
LayerCount: 2
Fore
SplineSet
30 -175 m 1,0,-1
 30 25 l 1,1,-1
 79 25 l 1,2,3
 117 91 117 91 149.5 175.5 c 128,-1,4
 182 260 182 260 206.5 353.5 c 128,-1,5
 231 447 231 447 246 539.5 c 128,-1,6
 261 632 261 632 264 714 c 1,7,-1
 490 714 l 1,8,-1
 490 25 l 1,9,-1
 560 25 l 1,10,-1
 560 -175 l 1,11,-1
 534 -175 l 1,12,-1
 534 0 l 1,13,-1
 56 0 l 1,14,-1
 56 -175 l 1,15,-1
 30 -175 l 1,0,-1
109 25 m 1,16,-1
 464 25 l 1,17,-1
 464 689 l 1,18,-1
 289 689 l 1,19,20
 285 608 285 608 270 519 c 128,-1,21
 255 430 255 430 230.5 341 c 128,-1,22
 206 252 206 252 175.5 171 c 128,-1,23
 145 90 145 90 109 25 c 1,16,-1
EndSplineSet
EndChar

StartChar: afii10024
Encoding: 1046 1046 431
Width: 600
GlyphClass: 2
Flags: W
AnchorPoint: "Anchor-3" 300 714 basechar 0
AnchorPoint: "Anchor-0" 300 0 basechar 0
LayerCount: 2
Fore
SplineSet
27 0 m 1,0,-1
 258 366 l 1,1,-1
 37 714 l 1,2,-1
 70 714 l 1,3,-1
 287 368 l 1,4,-1
 287 714 l 1,5,-1
 313 714 l 1,6,-1
 313 368 l 1,7,-1
 540 714 l 1,8,-1
 572 714 l 1,9,-1
 342 366 l 1,10,-1
 583 0 l 1,11,-1
 551 0 l 1,12,-1
 313 363 l 1,13,-1
 313 0 l 1,14,-1
 287 0 l 1,15,-1
 287 363 l 1,16,-1
 60 0 l 1,17,-1
 27 0 l 1,0,-1
EndSplineSet
EndChar

StartChar: afii10025
Encoding: 1047 1047 432
Width: 600
GlyphClass: 2
Flags: W
AnchorPoint: "Anchor-3" 300 714 basechar 0
AnchorPoint: "Anchor-0" 300 0 basechar 0
LayerCount: 2
Fore
SplineSet
282 -10 m 0,0,1
 219 -10 219 -10 168.5 3 c 128,-1,2
 118 16 118 16 84 36 c 1,3,-1
 84 66 l 1,4,5
 119 44 119 44 171.5 29.5 c 128,-1,6
 224 15 224 15 285 15 c 0,7,8
 392 15 392 15 448.5 61.5 c 128,-1,9
 505 108 505 108 505 194 c 0,10,11
 505 278 505 278 447.5 318.5 c 128,-1,12
 390 359 390 359 270 359 c 2,13,-1
 154 359 l 1,14,-1
 154 384 l 1,15,-1
 279 384 l 2,16,17
 388 384 388 384 440 426 c 128,-1,18
 492 468 492 468 492 541 c 0,19,20
 492 617 492 617 444.5 658 c 128,-1,21
 397 699 397 699 308 699 c 0,22,23
 240 699 240 699 195.5 678 c 128,-1,24
 151 657 151 657 112 631 c 1,25,-1
 98 652 l 1,26,27
 138 680 138 680 187.5 702 c 128,-1,28
 237 724 237 724 308 724 c 0,29,30
 410 724 410 724 464.5 675 c 128,-1,31
 519 626 519 626 519 541 c 0,32,33
 519 469 519 469 479.5 428 c 128,-1,34
 440 387 440 387 377 373 c 1,35,-1
 377 371 l 1,36,37
 453 354 453 354 492.5 312 c 128,-1,38
 532 270 532 270 532 195 c 0,39,40
 532 98 532 98 468.5 44 c 128,-1,41
 405 -10 405 -10 282 -10 c 0,0,1
EndSplineSet
EndChar

StartChar: afii10026
Encoding: 1048 1048 433
Width: 600
GlyphClass: 2
Flags: W
AnchorPoint: "Anchor-3" 300 714 basechar 0
AnchorPoint: "Anchor-0" 280 0 basechar 0
LayerCount: 2
Fore
SplineSet
95 0 m 1,0,-1
 95 714 l 1,1,-1
 121 714 l 1,2,-1
 121 141 l 2,3,4
 121 116 121 116 121 100 c 128,-1,5
 121 84 121 84 120 57 c 1,6,-1
 122 57 l 1,7,-1
 483 714 l 1,8,-1
 505 714 l 1,9,-1
 505 0 l 1,10,-1
 479 0 l 1,11,-1
 479 561 l 2,12,13
 479 592 479 592 479 611 c 128,-1,14
 479 630 479 630 480 656 c 1,15,-1
 478 656 l 1,16,-1
 118 0 l 1,17,-1
 95 0 l 1,0,-1
EndSplineSet
EndChar

StartChar: afii10028
Encoding: 1050 1050 435
Width: 600
GlyphClass: 2
Flags: W
AnchorPoint: "Anchor-3" 300 714 basechar 0
AnchorPoint: "Anchor-0" 315 0 basechar 0
LayerCount: 2
Fore
SplineSet
95 0 m 1,0,-1
 95 714 l 1,1,-1
 121 714 l 1,2,-1
 121 368 l 1,3,-1
 491 714 l 1,4,-1
 531 714 l 1,5,-1
 156 367 l 1,6,-1
 540 0 l 1,7,-1
 502 0 l 1,8,-1
 121 365 l 1,9,-1
 121 0 l 1,10,-1
 95 0 l 1,0,-1
EndSplineSet
EndChar

StartChar: afii10029
Encoding: 1051 1051 436
Width: 600
GlyphClass: 2
Flags: W
AnchorPoint: "Anchor-3" 380 714 basechar 0
AnchorPoint: "Anchor-0" 300 0 basechar 0
LayerCount: 2
Fore
SplineSet
60 -11 m 0,0,1
 42 -11 42 -11 30.5 -8.5 c 128,-1,2
 19 -6 19 -6 9 -2 c 1,3,-1
 9 24 l 1,4,5
 20 20 20 20 32 17 c 128,-1,6
 44 14 44 14 60 14 c 0,7,8
 96 14 96 14 119 42 c 128,-1,9
 142 70 142 70 157 120.5 c 128,-1,10
 172 171 172 171 184 239 c 0,11,12
 201 334 201 334 213.5 423 c 128,-1,13
 226 512 226 512 235 587 c 128,-1,14
 244 662 244 662 248 714 c 1,15,-1
 505 714 l 1,16,-1
 505 0 l 1,17,-1
 479 0 l 1,18,-1
 479 689 l 1,19,-1
 271 689 l 1,20,21
 266 626 266 626 257 549 c 128,-1,22
 248 472 248 472 236 391 c 128,-1,23
 224 310 224 310 210 234 c 0,24,25
 197 164 197 164 180.5 109 c 128,-1,26
 164 54 164 54 136 21.5 c 128,-1,27
 108 -11 108 -11 60 -11 c 0,0,1
EndSplineSet
EndChar

StartChar: afii10033
Encoding: 1055 1055 440
Width: 600
GlyphClass: 2
Flags: W
AnchorPoint: "Anchor-3" 300 714 basechar 0
AnchorPoint: "Anchor-0" 300 0 basechar 0
LayerCount: 2
Fore
SplineSet
95 0 m 1,0,-1
 95 714 l 1,1,-1
 505 714 l 1,2,-1
 505 0 l 1,3,-1
 479 0 l 1,4,-1
 479 689 l 1,5,-1
 121 689 l 1,6,-1
 121 0 l 1,7,-1
 95 0 l 1,0,-1
EndSplineSet
EndChar

StartChar: afii10037
Encoding: 1059 1059 444
Width: 600
GlyphClass: 2
Flags: W
AnchorPoint: "Anchor-3" 300 714 basechar 0
AnchorPoint: "Anchor-0" 200 0 basechar 0
LayerCount: 2
Fore
SplineSet
144 -10 m 0,0,1
 110 -10 110 -10 93 -5.5 c 128,-1,2
 76 -1 76 -1 63 5 c 1,3,-1
 63 32 l 1,4,5
 99 15 99 15 143 15 c 0,6,7
 186 15 186 15 214 35 c 128,-1,8
 242 55 242 55 262.5 92 c 128,-1,9
 283 129 283 129 303 179 c 1,10,-1
 50 714 l 1,11,-1
 79 714 l 1,12,-1
 287 270 l 2,13,14
 297 249 297 249 303.5 235.5 c 128,-1,15
 310 222 310 222 318 203 c 1,16,-1
 319 203 l 1,17,18
 325 219 325 219 331 236 c 128,-1,19
 337 253 337 253 343 267 c 2,20,-1
 521 714 l 1,21,-1
 550 714 l 1,22,-1
 315 139 l 2,23,24
 298 98 298 98 276 64 c 128,-1,25
 254 30 254 30 222 10 c 128,-1,26
 190 -10 190 -10 144 -10 c 0,0,1
EndSplineSet
EndChar

StartChar: afii10038
Encoding: 1060 1060 445
Width: 600
GlyphClass: 2
Flags: W
AnchorPoint: "Anchor-3" 300 714 basechar 0
AnchorPoint: "Anchor-0" 300 0 basechar 0
LayerCount: 2
Fore
SplineSet
287 -10 m 1,0,-1
 287 99 l 1,1,2
 221 100 221 100 166 130 c 128,-1,3
 111 160 111 160 78 220.5 c 128,-1,4
 45 281 45 281 45 373 c 0,5,6
 45 502 45 502 112 568 c 128,-1,7
 179 634 179 634 287 637 c 1,8,-1
 287 724 l 1,9,-1
 313 724 l 1,10,-1
 313 637 l 1,11,12
 383 636 383 636 437.5 608.5 c 128,-1,13
 492 581 492 581 523.5 523.5 c 128,-1,14
 555 466 555 466 555 375 c 256,15,16
 555 284 555 284 523.5 223 c 128,-1,17
 492 162 492 162 437 131.5 c 128,-1,18
 382 101 382 101 313 99 c 1,19,-1
 313 -10 l 1,20,-1
 287 -10 l 1,0,-1
287 125 m 1,21,-1
 287 612 l 1,22,23
 192 610 192 610 132 551 c 128,-1,24
 72 492 72 492 72 372 c 0,25,26
 72 289 72 289 100.5 234.5 c 128,-1,27
 129 180 129 180 177.5 153 c 128,-1,28
 226 126 226 126 287 125 c 1,21,-1
313 125 m 1,29,30
 375 126 375 126 423.5 153.5 c 128,-1,31
 472 181 472 181 500 236 c 128,-1,32
 528 291 528 291 528 376 c 0,33,34
 528 500 528 500 469 555 c 128,-1,35
 410 610 410 610 313 612 c 1,36,-1
 313 125 l 1,29,30
EndSplineSet
EndChar

StartChar: afii10040
Encoding: 1062 1062 447
Width: 600
GlyphClass: 2
Flags: W
AnchorPoint: "Anchor-3" 300 714 basechar 0
AnchorPoint: "Anchor-0" 300 -176 basechar 0
LayerCount: 2
Fore
SplineSet
95 0 m 1,0,-1
 95 714 l 1,1,-1
 121 714 l 1,2,-1
 121 25 l 1,3,-1
 479 25 l 1,4,-1
 479 714 l 1,5,-1
 505 714 l 1,6,-1
 505 25 l 1,7,-1
 600 25 l 1,8,-1
 600 -174 l 1,9,-1
 574 -174 l 1,10,-1
 574 0 l 1,11,-1
 95 0 l 1,0,-1
EndSplineSet
EndChar

StartChar: afii10041
Encoding: 1063 1063 448
Width: 600
GlyphClass: 2
Flags: W
AnchorPoint: "Anchor-3" 300 714 basechar 0
AnchorPoint: "Anchor-0" 300 0 basechar 0
LayerCount: 2
Fore
SplineSet
479 0 m 1,0,-1
 479 320 l 1,1,2
 431 297 431 297 383.5 282 c 128,-1,3
 336 267 336 267 277 267 c 0,4,5
 180 267 180 267 137.5 312 c 128,-1,6
 95 357 95 357 95 443 c 2,7,-1
 95 714 l 1,8,-1
 121 714 l 1,9,-1
 121 448 l 2,10,11
 121 372 121 372 155 332 c 128,-1,12
 189 292 189 292 278 292 c 0,13,14
 333 292 333 292 381.5 306 c 128,-1,15
 430 320 430 320 479 344 c 1,16,-1
 479 714 l 1,17,-1
 505 714 l 1,18,-1
 505 0 l 1,19,-1
 479 0 l 1,0,-1
EndSplineSet
EndChar

StartChar: afii10042
Encoding: 1064 1064 449
Width: 600
GlyphClass: 2
Flags: W
AnchorPoint: "Anchor-3" 300 714 basechar 0
AnchorPoint: "Anchor-0" 300 0 basechar 0
LayerCount: 2
Fore
SplineSet
60 0 m 1,0,-1
 60 714 l 1,1,-1
 86 714 l 1,2,-1
 86 25 l 1,3,-1
 287 25 l 1,4,-1
 287 714 l 1,5,-1
 313 714 l 1,6,-1
 313 25 l 1,7,-1
 514 25 l 1,8,-1
 514 714 l 1,9,-1
 540 714 l 1,10,-1
 540 0 l 1,11,-1
 60 0 l 1,0,-1
EndSplineSet
EndChar

StartChar: afii10043
Encoding: 1065 1065 450
Width: 600
GlyphClass: 2
Flags: W
AnchorPoint: "Anchor-3" 300 714 basechar 0
AnchorPoint: "Anchor-0" 300 -174 basechar 0
LayerCount: 2
Fore
SplineSet
60 0 m 1,0,-1
 60 714 l 1,1,-1
 86 714 l 1,2,-1
 86 25 l 1,3,-1
 287 25 l 1,4,-1
 287 714 l 1,5,-1
 313 714 l 1,6,-1
 313 25 l 1,7,-1
 514 25 l 1,8,-1
 514 714 l 1,9,-1
 540 714 l 1,10,-1
 540 25 l 1,11,-1
 600 25 l 1,12,-1
 600 -174 l 1,13,-1
 574 -174 l 1,14,-1
 574 0 l 1,15,-1
 60 0 l 1,0,-1
EndSplineSet
EndChar

StartChar: afii10044
Encoding: 1066 1066 451
Width: 600
GlyphClass: 2
Flags: W
AnchorPoint: "Anchor-3" 300 714 basechar 0
AnchorPoint: "Anchor-0" 300 0 basechar 0
LayerCount: 2
Fore
SplineSet
135 0 m 1,0,-1
 135 689 l 1,1,-1
 0 689 l 1,2,-1
 0 714 l 1,3,-1
 161 714 l 1,4,-1
 161 393 l 1,5,-1
 311 393 l 2,6,7
 382 393 382 393 434.5 376 c 128,-1,8
 487 359 487 359 515.5 317.5 c 128,-1,9
 544 276 544 276 544 203 c 0,10,11
 544 101 544 101 486 50.5 c 128,-1,12
 428 0 428 0 322 0 c 2,13,-1
 135 0 l 1,0,-1
161 25 m 1,14,-1
 315 25 l 2,15,16
 417 25 417 25 467 67 c 128,-1,17
 517 109 517 109 517 203 c 0,18,19
 517 269 517 269 491.5 304.5 c 128,-1,20
 466 340 466 340 418.5 354 c 128,-1,21
 371 368 371 368 306 368 c 2,22,-1
 161 368 l 1,23,-1
 161 25 l 1,14,-1
EndSplineSet
EndChar

StartChar: afii10045
Encoding: 1067 1067 452
Width: 600
GlyphClass: 2
Flags: W
AnchorPoint: "Anchor-3" 300 714 basechar 0
AnchorPoint: "Anchor-0" 300 0 basechar 0
LayerCount: 2
Fore
SplineSet
60 0 m 1,0,-1
 60 714 l 1,1,-1
 86 714 l 1,2,-1
 86 393 l 1,3,-1
 186 393 l 2,4,5
 258 393 258 393 310 376 c 128,-1,6
 362 359 362 359 390.5 317.5 c 128,-1,7
 419 276 419 276 419 203 c 0,8,9
 419 101 419 101 361.5 50.5 c 128,-1,10
 304 0 304 0 197 0 c 2,11,-1
 60 0 l 1,0,-1
514 0 m 1,12,-1
 514 714 l 1,13,-1
 540 714 l 1,14,-1
 540 0 l 1,15,-1
 514 0 l 1,12,-1
86 25 m 1,16,-1
 190 25 l 2,17,18
 292 25 292 25 342 67 c 128,-1,19
 392 109 392 109 392 203 c 0,20,21
 392 269 392 269 366.5 304.5 c 128,-1,22
 341 340 341 340 293.5 354 c 128,-1,23
 246 368 246 368 181 368 c 2,24,-1
 86 368 l 1,25,-1
 86 25 l 1,16,-1
EndSplineSet
EndChar

StartChar: afii10046
Encoding: 1068 1068 453
Width: 600
GlyphClass: 2
Flags: W
AnchorPoint: "Anchor-3" 300 714 basechar 0
AnchorPoint: "Anchor-0" 300 0 basechar 0
LayerCount: 2
Fore
SplineSet
115 0 m 1,0,-1
 115 714 l 1,1,-1
 141 714 l 1,2,-1
 141 393 l 1,3,-1
 291 393 l 2,4,5
 362 393 362 393 414.5 376 c 128,-1,6
 467 359 467 359 495.5 317.5 c 128,-1,7
 524 276 524 276 524 203 c 0,8,9
 524 101 524 101 466 50.5 c 128,-1,10
 408 0 408 0 302 0 c 2,11,-1
 115 0 l 1,0,-1
141 25 m 1,12,-1
 295 25 l 2,13,14
 397 25 397 25 447 67 c 128,-1,15
 497 109 497 109 497 203 c 0,16,17
 497 269 497 269 471.5 304.5 c 128,-1,18
 446 340 446 340 398.5 354 c 128,-1,19
 351 368 351 368 286 368 c 2,20,-1
 141 368 l 1,21,-1
 141 25 l 1,12,-1
EndSplineSet
EndChar

StartChar: afii10048
Encoding: 1070 1070 455
Width: 600
GlyphClass: 2
Flags: W
AnchorPoint: "Anchor-3" 300 714 basechar 0
AnchorPoint: "Anchor-0" 300 0 basechar 0
LayerCount: 2
Fore
SplineSet
80 0 m 1,0,-1
 80 714 l 1,1,-1
 106 714 l 1,2,-1
 106 388 l 1,3,-1
 221 388 l 1,4,5
 224 552 224 552 266 638.5 c 128,-1,6
 308 725 308 725 387 725 c 0,7,8
 476 725 476 725 510.5 630.5 c 128,-1,9
 545 536 545 536 545 359 c 0,10,11
 545 248 545 248 529 165 c 128,-1,12
 513 82 513 82 477.5 36 c 128,-1,13
 442 -10 442 -10 384 -10 c 0,14,15
 324 -10 324 -10 288.5 35 c 128,-1,16
 253 80 253 80 237 164 c 128,-1,17
 221 248 221 248 221 363 c 1,18,-1
 106 363 l 1,19,-1
 106 0 l 1,20,-1
 80 0 l 1,0,-1
384 15 m 0,21,22
 430 15 430 15 460 57 c 128,-1,23
 490 99 490 99 504 176 c 128,-1,24
 518 253 518 253 518 358 c 0,25,26
 518 524 518 524 488 612 c 128,-1,27
 458 700 458 700 386 700 c 0,28,29
 340 700 340 700 309 658.5 c 128,-1,30
 278 617 278 617 263 540.5 c 128,-1,31
 248 464 248 464 248 361 c 0,32,33
 248 200 248 200 279.5 107.5 c 128,-1,34
 311 15 311 15 384 15 c 0,21,22
EndSplineSet
EndChar

StartChar: afii10066
Encoding: 1073 1073 458
Width: 600
GlyphClass: 2
Flags: W
AnchorPoint: "Anchor-3" 300 762 basechar 0
AnchorPoint: "Anchor-0" 300 0 basechar 0
LayerCount: 2
Fore
SplineSet
303 -10 m 0,0,1
 236 -10 236 -10 190.5 17.5 c 128,-1,2
 145 45 145 45 119 91.5 c 128,-1,3
 93 138 93 138 81.5 196.5 c 128,-1,4
 70 255 70 255 70 317 c 0,5,6
 70 451 70 451 97.5 533.5 c 128,-1,7
 125 616 125 616 172 659 c 1,8,9
 216 705 216 705 296.5 727 c 128,-1,10
 377 749 377 749 500 762 c 1,11,-1
 503 738 l 1,12,13
 416 728 416 728 356 716 c 128,-1,14
 296 704 296 704 256 686 c 128,-1,15
 216 668 216 668 191 643 c 0,16,17
 151 603 151 603 125.5 531.5 c 128,-1,18
 100 460 100 460 96 362 c 1,19,-1
 98 362 l 1,20,21
 129 424 129 424 187 457.5 c 128,-1,22
 245 491 245 491 318 491 c 0,23,24
 420 491 420 491 475 431 c 128,-1,25
 530 371 530 371 530 250 c 0,26,27
 530 176 530 176 507 117.5 c 128,-1,28
 484 59 484 59 434 24.5 c 128,-1,29
 384 -10 384 -10 303 -10 c 0,0,1
305 15 m 0,30,31
 376 15 376 15 419.5 46 c 128,-1,32
 463 77 463 77 483 130.5 c 128,-1,33
 503 184 503 184 503 250 c 0,34,35
 503 360 503 360 454 413 c 128,-1,36
 405 466 405 466 317 466 c 0,37,38
 245 466 245 466 191.5 431.5 c 128,-1,39
 138 397 138 397 97 323 c 1,40,41
 97 265 97 265 106.5 210 c 128,-1,42
 116 155 116 155 139 111 c 128,-1,43
 162 67 162 67 202.5 41 c 128,-1,44
 243 15 243 15 305 15 c 0,30,31
EndSplineSet
Substitution2: "'locl' Localized Forms in Cyrillic lookup 19 subtable" afii10066.loclSRB
Substitution2: "'aalt' Access All Alternates lookup 0 subtable" afii10066.loclSRB
EndChar

StartChar: afii10067
Encoding: 1074 1074 459
Width: 600
GlyphClass: 2
Flags: W
AnchorPoint: "Anchor-3" 300 528 basechar 0
AnchorPoint: "Anchor-0" 300 0 basechar 0
LayerCount: 2
Fore
SplineSet
144 0 m 1,0,-1
 144 528 l 1,1,-1
 315 528 l 2,2,3
 404 528 404 528 440.5 492.5 c 128,-1,4
 477 457 477 457 477 402 c 0,5,6
 477 352 477 352 453 322 c 128,-1,7
 429 292 429 292 389 282 c 1,8,-1
 389 280 l 1,9,10
 442 271 442 271 471 238 c 128,-1,11
 500 205 500 205 500 147 c 0,12,13
 500 77 500 77 456 38.5 c 128,-1,14
 412 0 412 0 324 0 c 2,15,-1
 144 0 l 1,0,-1
170 292 m 1,16,-1
 312 292 l 2,17,18
 386 292 386 292 418 320 c 128,-1,19
 450 348 450 348 450 402 c 0,20,21
 450 447 450 447 419 475 c 128,-1,22
 388 503 388 503 311 503 c 2,23,-1
 170 503 l 1,24,-1
 170 292 l 1,16,-1
170 25 m 1,25,-1
 316 25 l 2,26,27
 396 25 396 25 434.5 55.5 c 128,-1,28
 473 86 473 86 473 147 c 0,29,30
 473 211 473 211 432.5 239 c 128,-1,31
 392 267 392 267 312 267 c 2,32,-1
 170 267 l 1,33,-1
 170 25 l 1,25,-1
EndSplineSet
EndChar

